<svg width="544" height="377" viewBox="0 0 544 377" fill="none" xmlns="http://www.w3.org/2000/svg">
<path d="M283.988 44.7393C298.57 61.9901 316.711 79.4314 336.804 96.4922V80.582C336.802 80.0022 336.921 79.4276 337.153 78.8916C337.385 78.3556 337.726 77.868 338.156 77.458C338.586 77.0482 339.097 76.7232 339.659 76.502C340.221 76.2807 340.824 76.1677 341.433 76.1689H357.968C358.576 76.1677 359.178 76.2808 359.74 76.502C360.302 76.7232 360.814 77.0481 361.244 77.458C361.674 77.868 362.015 78.3556 362.247 78.8916C362.479 79.4276 362.598 80.0022 362.597 80.582V117.425C375.11 127.171 416.525 157.251 416.525 157.251C418.607 158.773 419.972 161.019 420.322 163.497C420.672 165.976 419.979 168.486 418.394 170.479C416.798 172.471 414.437 173.778 411.831 174.112C409.225 174.446 406.585 173.779 404.494 172.26L389.787 161.563V323.433H171.787V161.501L157.277 172.07C156.25 172.888 155.059 173.498 153.777 173.865C152.496 174.233 151.149 174.35 149.819 174.208C148.489 174.066 147.203 173.669 146.038 173.041C144.873 172.413 143.853 171.567 143.04 170.554C142.227 169.54 141.638 168.381 141.308 167.145C140.977 165.908 140.912 164.621 141.117 163.36C141.322 162.1 141.793 160.892 142.501 159.81C143.209 158.727 144.139 157.792 145.236 157.061C145.345 156.978 248.288 79.2032 277.405 44.7393H283.988ZM347.279 0.00195312C347.445 -0.00766249 347.612 0.0145293 347.769 0.0664062C347.905 0.0874612 348.037 0.131328 348.157 0.196289C350.237 1.62565 352.05 3.37821 353.521 5.37988C354.998 7.34758 356.185 9.49868 357.049 11.7734C357.495 12.9572 357.845 14.1719 358.099 15.4062C358.391 16.723 358.556 18.0627 358.592 19.4082C358.709 22.3812 358.221 25.3478 357.153 28.1436C355.938 31.279 353.93 34.0805 351.307 36.2988C348.744 38.4363 345.691 39.9722 342.394 40.7822C339.565 41.4668 336.65 41.7728 333.732 41.6924C331.183 41.6415 328.638 41.4511 326.111 41.1221C324.904 40.962 323.707 40.7924 322.552 40.5723L321.681 40.4121L320.862 40.2217L319.402 39.9316C318.426 39.7215 317.461 39.5414 316.484 39.3613C315.508 39.1812 314.543 39.0009 313.566 38.8408C309.731 38.165 305.857 37.6968 301.966 37.4395C298.164 37.1346 294.337 37.317 290.586 37.9805C288.777 38.3055 287.029 38.8851 285.399 39.7012C284.595 40.1246 283.846 40.6355 283.164 41.2227C282.836 41.5106 282.53 41.8217 282.25 42.1533C281.99 42.4672 281.758 42.8018 281.558 43.1533L281.368 43.4336C281.223 43.6503 280.996 43.8057 280.734 43.8672C280.473 43.9286 280.196 43.8914 279.962 43.7637C279.793 43.6644 279.657 43.5216 279.569 43.3516C279.482 43.1817 279.447 42.9918 279.469 42.8037C279.505 42.1829 279.618 41.5674 279.805 40.9717C279.99 40.4165 280.218 39.8749 280.486 39.3516C281.043 38.3208 281.728 37.3564 282.523 36.4795C284.129 34.794 285.999 33.356 288.066 32.2168C292.089 30.0686 296.417 28.4875 300.916 27.5234C305.288 26.5858 309.727 25.9604 314.196 25.6523C315.246 25.5623 316.401 25.5127 317.503 25.4727C318.605 25.4326 319.718 25.3821 320.81 25.3721H323.97C324.883 25.3721 325.775 25.2917 326.636 25.2217C329.624 25.0661 332.499 24.0825 334.908 22.3906C335.524 21.8962 336.107 21.365 336.651 20.7998C337.061 20.3996 337.512 20.1186 338.131 19.5283C339.966 17.5146 341.337 15.1558 342.152 12.6045C343.465 9.32248 344.556 5.41972 346.162 0.916992V0.816406C346.215 0.666281 346.3 0.527301 346.409 0.408203C346.519 0.289226 346.653 0.191771 346.802 0.12207C346.951 0.0524549 347.114 0.0116114 347.279 0.00195312Z" fill="url(#paint0_linear_2143_30425)" fill-opacity="0.2"/>
<g filter="url(#filter0_d_2143_30425)">
<path d="M308.178 129.647C308.182 134.023 307.074 138.327 304.958 142.157C304.8 142.444 304.638 142.727 304.47 143.006C299.015 138.966 293.656 134.635 288.996 130.225C289.633 128.827 289.908 127.292 289.797 125.76C289.686 124.228 289.192 122.748 288.361 121.456C287.53 120.165 286.388 119.102 285.04 118.367C283.691 117.631 282.18 117.245 280.644 117.245C279.108 117.245 277.596 117.631 276.248 118.367C274.9 119.102 273.757 120.165 272.926 121.456C272.095 122.748 271.601 124.228 271.49 125.76C271.379 127.292 271.655 128.827 272.291 130.225C267.632 134.635 262.27 138.968 256.807 143.009C254.384 138.973 253.105 134.354 253.109 129.647C253.109 114.93 265.438 103 280.644 103C295.849 103 308.178 114.93 308.178 129.647Z" fill="url(#paint1_linear_2143_30425)"/>
<path d="M304.435 142.999C306.188 144.345 307.519 145.358 307.519 145.358C307.738 145.509 307.925 145.703 308.067 145.928C308.208 146.153 308.303 146.404 308.345 146.667C308.387 146.93 308.375 147.198 308.31 147.456C308.245 147.714 308.128 147.956 307.966 148.167C307.805 148.379 307.602 148.555 307.37 148.685C307.139 148.816 306.883 148.898 306.618 148.927C306.354 148.956 306.086 148.93 305.832 148.853C305.578 148.775 305.342 148.646 305.139 148.474L302.193 146.227C302.133 146.299 285.367 163.676 285.367 163.676C284.756 164.3 284.024 164.795 283.217 165.13C282.403 165.469 281.53 165.643 280.648 165.643C279.766 165.643 278.892 165.469 278.078 165.13C277.273 164.795 276.544 164.301 275.936 163.676C275.936 163.676 259.266 146.434 259.11 146.227L256.221 148.439C256.017 148.609 255.782 148.735 255.528 148.812C255.275 148.888 255.008 148.912 254.745 148.883C254.482 148.853 254.227 148.771 253.997 148.641C253.766 148.51 253.565 148.335 253.404 148.124C253.243 147.914 253.126 147.673 253.061 147.416C252.995 147.16 252.983 146.893 253.023 146.631C253.064 146.369 253.157 146.118 253.297 145.894C253.437 145.669 253.621 145.475 253.838 145.323C253.838 145.323 254.95 144.444 256.724 143.003" fill="white"/>
<path d="M289.823 126.413C289.823 127.729 289.54 129.029 288.992 130.225C286.244 127.66 283.671 124.913 281.29 122.003H279.987C277.783 124.739 274.941 127.234 272.058 129.959C271.528 128.8 271.462 127.772 271.462 126.413C271.444 125.196 271.668 123.988 272.121 122.858C272.574 121.729 273.247 120.7 274.101 119.833C274.955 118.966 275.973 118.278 277.096 117.808C278.218 117.338 279.423 117.096 280.64 117.096C281.858 117.096 283.062 117.338 284.185 117.808C285.308 118.278 286.326 118.966 287.18 119.833C288.034 120.7 288.707 121.729 289.16 122.858C289.613 123.988 289.837 125.196 289.819 126.413H289.823Z" fill="#6D6E71"/>
<path d="M289.002 130.225C288.271 131.826 287.095 133.184 285.614 134.136C284.134 135.088 282.41 135.594 280.65 135.594C278.889 135.594 277.166 135.088 275.685 134.136C274.204 133.184 273.028 131.826 272.297 130.225C275.044 127.66 277.617 124.914 279.997 122.005H281.3C283.681 124.914 286.254 127.66 289.002 130.225Z" fill="#6D6E71"/>
<path d="M307.889 148.108C307.573 148.522 307.106 148.793 306.59 148.862C306.075 148.932 305.553 148.793 305.139 148.478L302.193 146.23C302.133 146.303 285.367 163.679 285.367 163.679C284.756 164.304 284.024 164.798 283.217 165.134C282.403 165.472 281.53 165.647 280.648 165.647C279.766 165.647 278.892 165.472 278.078 165.134C277.273 164.799 276.544 164.304 275.936 163.679C275.936 163.679 259.266 146.438 259.11 146.23L256.221 148.438C256.017 148.608 255.782 148.735 255.528 148.811C255.275 148.887 255.008 148.912 254.745 148.882C254.482 148.853 254.227 148.77 253.997 148.64C253.766 148.51 253.565 148.334 253.404 148.124C253.243 147.913 253.126 147.673 253.061 147.416C252.995 147.159 252.983 146.892 253.023 146.63C253.064 146.369 253.157 146.118 253.297 145.893C253.437 145.668 253.621 145.474 253.838 145.322C253.838 145.322 274.227 129.163 279.991 122.005H281.294C284.179 125.586 287.768 129.207 291.744 132.749V129.446C291.744 129.325 291.768 129.206 291.814 129.095C291.86 128.984 291.927 128.882 292.012 128.797C292.097 128.712 292.198 128.645 292.31 128.599C292.421 128.553 292.54 128.529 292.66 128.53H295.932C296.053 128.529 296.172 128.553 296.283 128.599C296.394 128.645 296.495 128.712 296.581 128.797C296.666 128.882 296.733 128.984 296.779 129.095C296.825 129.206 296.849 129.325 296.848 129.446V137.094C299.324 139.118 307.519 145.362 307.519 145.362C307.931 145.678 308.201 146.144 308.271 146.659C308.34 147.173 308.203 147.694 307.889 148.108Z" fill="white"/>
<path d="M280.4 121.609C280.407 121.48 280.429 121.353 280.466 121.229C280.503 121.114 280.548 121.001 280.601 120.892C280.711 120.678 280.847 120.478 281.004 120.296C281.322 119.946 281.692 119.648 282.101 119.411C282.897 118.965 283.753 118.637 284.644 118.437C285.509 118.242 286.387 118.112 287.271 118.049C287.479 118.03 287.708 118.019 287.926 118.011C288.144 118.003 288.364 117.992 288.58 117.99H289.07H289.205C289.386 117.99 289.563 117.974 289.733 117.959C290.324 117.927 290.893 117.723 291.37 117.371C291.492 117.269 291.607 117.158 291.715 117.041C291.796 116.958 291.885 116.9 292.008 116.777C292.371 116.359 292.642 115.869 292.803 115.34C293.063 114.658 293.279 113.848 293.597 112.913V112.893C293.607 112.862 293.624 112.833 293.645 112.808C293.667 112.783 293.694 112.763 293.723 112.749C293.753 112.734 293.785 112.726 293.818 112.724C293.85 112.722 293.883 112.726 293.914 112.737C293.941 112.741 293.967 112.75 293.991 112.764C294.403 113.061 294.762 113.424 295.053 113.84C295.345 114.248 295.58 114.695 295.751 115.167C295.839 115.413 295.908 115.665 295.958 115.921C296.016 116.195 296.049 116.473 296.056 116.752C296.079 117.369 295.983 117.985 295.772 118.566C295.531 119.217 295.134 119.798 294.614 120.259C294.107 120.702 293.503 121.021 292.851 121.189C292.291 121.331 291.714 121.395 291.137 121.378C290.633 121.368 290.129 121.328 289.629 121.26C289.39 121.227 289.153 121.191 288.925 121.146L288.752 121.113L288.59 121.073L288.302 121.013C288.108 120.969 287.917 120.932 287.724 120.894C287.531 120.857 287.34 120.82 287.147 120.786C286.388 120.646 285.621 120.549 284.851 120.496C284.099 120.432 283.342 120.47 282.6 120.608C282.242 120.675 281.896 120.796 281.573 120.965C281.414 121.053 281.266 121.159 281.131 121.281C281.066 121.341 281.005 121.405 280.95 121.474C280.899 121.539 280.853 121.609 280.813 121.682L280.776 121.74C280.747 121.785 280.702 121.817 280.65 121.83C280.598 121.843 280.544 121.835 280.497 121.808C280.464 121.788 280.437 121.758 280.42 121.723C280.402 121.688 280.395 121.648 280.4 121.609Z" fill="white"/>
<path d="M280.608 178C283.571 178 285.973 175.598 285.973 172.634C285.973 169.671 283.571 167.269 280.608 167.269C277.644 167.269 275.242 169.671 275.242 172.634C275.242 175.598 277.644 178 280.608 178Z" fill="url(#paint2_linear_2143_30425)"/>
<path d="M280.121 147.662V150.171C279.987 149.645 279.739 149.155 279.394 148.736L279.078 148.343L280.121 147.662Z" fill="url(#paint3_linear_2143_30425)"/>
<path d="M277.524 151.015C277.524 151.235 277.459 151.45 277.337 151.634C277.215 151.817 277.042 151.96 276.838 152.045C276.635 152.129 276.411 152.152 276.195 152.109C275.979 152.067 275.78 151.961 275.624 151.806C275.468 151.65 275.362 151.452 275.319 151.236C275.275 151.02 275.297 150.796 275.381 150.593C275.465 150.389 275.607 150.215 275.79 150.092C275.973 149.969 276.188 149.904 276.408 149.903C276.703 149.904 276.986 150.021 277.195 150.229C277.404 150.437 277.522 150.72 277.524 151.015Z" fill="url(#paint4_linear_2143_30425)"/>
<path d="M279.435 150.45C279.332 149.993 279.124 149.566 278.826 149.204L278.247 148.493C278.214 148.453 278.19 148.406 278.176 148.356C278.163 148.306 278.16 148.254 278.168 148.202C278.176 148.151 278.195 148.102 278.224 148.059C278.252 148.015 278.289 147.978 278.332 147.949L279.427 147.232C274.258 146.794 273.479 150.014 273.448 150.155C273.449 150.164 273.449 150.173 273.448 150.182C273.448 150.182 273.448 150.209 273.448 150.211C273.33 150.658 273.32 151.127 273.419 151.578C273.523 152.035 273.731 152.461 274.028 152.824L274.607 153.537C274.64 153.577 274.664 153.625 274.678 153.675C274.692 153.725 274.694 153.778 274.686 153.83C274.667 153.933 274.608 154.024 274.522 154.083L273.843 154.528C273.941 154.636 274.051 154.736 274.148 154.846C278.664 154.935 279.371 152.01 279.4 151.871C279.399 151.861 279.399 151.852 279.4 151.842C279.4 151.842 279.4 151.815 279.4 151.813C279.52 151.368 279.532 150.901 279.435 150.45ZM276.417 152.872C276.05 152.872 275.692 152.763 275.387 152.559C275.082 152.355 274.845 152.065 274.705 151.726C274.564 151.387 274.528 151.014 274.599 150.655C274.671 150.295 274.848 149.965 275.107 149.706C275.366 149.446 275.697 149.27 276.056 149.198C276.416 149.126 276.789 149.163 277.128 149.303C277.467 149.443 277.756 149.681 277.96 149.985C278.164 150.29 278.273 150.648 278.274 151.015C278.27 151.507 278.074 151.977 277.726 152.325C277.379 152.672 276.908 152.869 276.417 152.872Z" fill="url(#paint5_linear_2143_30425)"/>
<path d="M280.119 145.896V146.557C273.74 145.726 272.757 149.82 272.709 150.024C272.558 150.585 272.545 151.174 272.672 151.741C272.8 152.312 273.06 152.845 273.43 153.297L273.746 153.686L273.33 153.958C271.668 151.932 270.694 149.43 270.547 146.814V145.896H280.119Z" fill="url(#paint6_linear_2143_30425)"/>
<path d="M280.131 151.976V158.33C278.231 157.77 276.465 156.831 274.938 155.57C279.339 155.314 280.093 152.184 280.131 152.007V151.976Z" fill="url(#paint7_linear_2143_30425)"/>
<path d="M281.234 145.896V150.242C281.534 150.07 281.867 149.968 282.211 149.94C282.107 149.155 282.312 148.36 282.782 147.722C283.252 147.085 283.95 146.653 284.731 146.519C285.512 146.385 286.314 146.558 286.97 147.002C287.626 147.446 288.084 148.127 288.249 148.902C288.511 149.021 288.755 149.175 288.976 149.359C289.067 149.438 289.123 149.549 289.132 149.669C289.141 149.788 289.102 149.907 289.025 149.998C288.948 150.09 288.837 150.147 288.718 150.158C288.598 150.169 288.479 150.133 288.386 150.057C288.185 149.885 287.952 149.752 287.701 149.666C287.695 149.664 287.688 149.664 287.682 149.666C287.458 149.591 287.223 149.552 286.986 149.552C286.742 149.552 286.499 149.594 286.268 149.675C286.153 149.714 286.027 149.707 285.918 149.654C285.809 149.601 285.726 149.507 285.686 149.392C285.646 149.277 285.654 149.152 285.707 149.043C285.76 148.934 285.854 148.85 285.969 148.81C286.296 148.697 286.64 148.639 286.986 148.64C287.061 148.634 287.136 148.634 287.211 148.64C286.994 148.146 286.6 147.751 286.106 147.534C285.612 147.317 285.054 147.294 284.544 147.47C284.033 147.645 283.608 148.007 283.352 148.482C283.096 148.957 283.028 149.511 283.162 150.034C283.374 150.101 283.576 150.198 283.76 150.323C283.81 150.356 283.853 150.398 283.887 150.447C283.92 150.497 283.944 150.552 283.956 150.611C283.968 150.67 283.968 150.73 283.957 150.789C283.946 150.847 283.923 150.903 283.89 150.953C283.857 151.003 283.815 151.046 283.765 151.08C283.716 151.113 283.66 151.137 283.602 151.149C283.543 151.161 283.483 151.161 283.424 151.15C283.366 151.139 283.31 151.116 283.26 151.083C283.097 150.974 282.914 150.899 282.722 150.861H282.709C282.615 150.843 282.519 150.834 282.423 150.834C282.194 150.834 281.968 150.886 281.763 150.986C281.557 151.086 281.377 151.231 281.236 151.411V153.214C281.304 153.299 281.381 153.377 281.465 153.445C281.513 153.483 281.553 153.531 281.582 153.585C281.611 153.639 281.629 153.699 281.635 153.76C281.641 153.821 281.634 153.883 281.616 153.942C281.597 154 281.567 154.054 281.527 154.101C281.455 154.191 281.351 154.25 281.236 154.265V158.337C283.112 157.782 284.859 156.861 286.376 155.626C286.287 155.622 286.202 155.592 286.13 155.54C286.059 155.488 286.004 155.416 285.972 155.334C285.941 155.251 285.934 155.161 285.953 155.075C285.972 154.988 286.015 154.909 286.079 154.847L286.991 153.935C287.077 153.85 287.193 153.803 287.314 153.803C287.434 153.803 287.55 153.85 287.637 153.935C287.723 154.023 287.772 154.142 287.772 154.265C287.859 154.166 287.944 154.058 288.025 153.964C287.99 153.869 287.989 153.765 288.02 153.669C288.052 153.573 288.115 153.49 288.199 153.434C288.488 153.241 288.724 152.98 288.888 152.674C289.052 152.368 289.138 152.026 289.138 151.679C289.139 151.558 289.187 151.443 289.273 151.357C289.359 151.272 289.475 151.224 289.595 151.224C289.636 151.223 289.676 151.229 289.714 151.243C290.36 149.855 290.73 148.354 290.804 146.825V145.896H281.234ZM282.292 156.139C282.222 156.139 282.154 156.117 282.097 156.077C282.039 156.037 281.996 155.981 281.972 155.915C281.947 155.849 281.944 155.778 281.961 155.711C281.979 155.643 282.017 155.582 282.069 155.537L283.316 154.454H282.277C282.207 154.455 282.139 154.434 282.082 154.394C282.024 154.354 281.98 154.298 281.956 154.232C281.932 154.166 281.928 154.095 281.946 154.027C281.964 153.96 282.002 153.899 282.055 153.854L284.01 152.167C284.043 152.136 284.083 152.112 284.127 152.096C284.17 152.08 284.216 152.073 284.262 152.076C284.308 152.078 284.353 152.09 284.395 152.111C284.436 152.131 284.473 152.16 284.503 152.195C284.533 152.23 284.556 152.27 284.57 152.314C284.584 152.358 284.589 152.405 284.585 152.451C284.58 152.497 284.567 152.541 284.544 152.582C284.522 152.622 284.492 152.658 284.456 152.687L283.197 153.771H284.236C284.306 153.77 284.375 153.791 284.433 153.831C284.49 153.87 284.534 153.927 284.559 153.992C284.584 154.058 284.587 154.13 284.57 154.197C284.552 154.265 284.514 154.326 284.46 154.371L282.506 156.056C282.446 156.107 282.37 156.137 282.292 156.139ZM285.809 155.032L284.897 155.944C284.855 155.987 284.805 156.021 284.749 156.044C284.694 156.067 284.635 156.079 284.575 156.079C284.515 156.079 284.455 156.068 284.4 156.045C284.344 156.021 284.294 155.987 284.253 155.944C284.21 155.902 284.176 155.851 284.152 155.796C284.129 155.74 284.117 155.681 284.117 155.621C284.117 155.561 284.129 155.501 284.152 155.446C284.176 155.39 284.21 155.34 284.253 155.298L285.165 154.386C285.252 154.309 285.365 154.269 285.481 154.273C285.597 154.276 285.708 154.324 285.79 154.407C285.872 154.489 285.919 154.599 285.923 154.716C285.926 154.832 285.885 154.945 285.809 155.032ZM286.723 152.977L285.809 153.891C285.723 153.976 285.607 154.024 285.487 154.024C285.396 154.024 285.308 153.997 285.233 153.947C285.157 153.897 285.099 153.825 285.064 153.742C285.03 153.658 285.021 153.566 285.039 153.477C285.057 153.389 285.1 153.307 285.165 153.243L286.077 152.331C286.163 152.25 286.278 152.205 286.397 152.207C286.516 152.208 286.629 152.256 286.713 152.341C286.798 152.425 286.846 152.538 286.847 152.657C286.849 152.776 286.804 152.891 286.723 152.977Z" fill="url(#paint8_linear_2143_30425)"/>
<path d="M273.367 144.786H270.555V140.372C270.609 140.388 270.666 140.394 270.723 140.391H272.005L273.317 144.655C273.328 144.701 273.344 144.745 273.367 144.786Z" fill="url(#paint9_linear_2143_30425)"/>
<path d="M275.378 135.057C275.363 135.089 275.353 135.124 275.347 135.159L273.714 142.492L272.867 139.731C272.838 139.624 272.772 139.531 272.682 139.467C272.594 139.403 272.487 139.369 272.379 139.37H270.717C270.662 139.369 270.607 139.377 270.555 139.395V135.514C272.174 135.529 273.79 135.376 275.378 135.057Z" fill="url(#paint10_linear_2143_30425)"/>
<path d="M280.122 133.021V139.394C280.07 139.377 280.016 139.369 279.962 139.369H279.808L279.166 137.649C279.126 137.551 279.059 137.466 278.973 137.404C278.887 137.344 278.783 137.314 278.678 137.317C278.57 137.315 278.464 137.349 278.377 137.412C278.286 137.475 278.22 137.568 278.19 137.674L277.471 139.976L276.354 135.146C276.333 135.037 276.274 134.938 276.188 134.868C278.317 134.309 279.53 133.517 280.122 133.021Z" fill="url(#paint11_linear_2143_30425)"/>
<path d="M280.114 140.373V144.787H274.227C274.257 144.736 274.279 144.681 274.291 144.623L275.843 137.585L276.881 142.055C276.904 142.164 276.962 142.261 277.048 142.332C277.134 142.405 277.243 142.448 277.357 142.452C277.47 142.464 277.584 142.432 277.675 142.363C277.768 142.298 277.836 142.203 277.868 142.095L278.699 139.409L278.942 140.065C278.982 140.163 279.049 140.248 279.135 140.308C279.225 140.368 279.331 140.397 279.438 140.391H279.952C280.006 140.394 280.061 140.388 280.114 140.373Z" fill="url(#paint12_linear_2143_30425)"/>
<path d="M289.627 144.787H282.336C283.189 143.961 283.915 143.014 284.492 141.976L285.205 141.509C285.68 142.246 285.77 142.246 285.94 142.246C286.11 142.246 286.193 142.246 286.698 141.513L287.629 142.178C287.64 142.187 287.653 142.194 287.666 142.198C288.214 143.137 288.872 144.006 289.627 144.787Z" fill="url(#paint13_linear_2143_30425)"/>
<path d="M286.097 138.14V139.158H285.852V138.237L286.097 138.14Z" fill="url(#paint14_linear_2143_30425)"/>
<path d="M286.922 140.776L286.822 140.701C286.782 140.673 286.736 140.653 286.688 140.642C286.64 140.631 286.59 140.63 286.542 140.639C286.492 140.648 286.444 140.668 286.402 140.697C286.36 140.726 286.325 140.764 286.299 140.807C286.184 140.975 286.056 141.164 285.945 141.318C285.844 141.167 285.723 140.982 285.621 140.818C285.568 140.733 285.484 140.673 285.387 140.651C285.339 140.641 285.29 140.64 285.242 140.65C285.194 140.659 285.149 140.678 285.108 140.705H285.094C285.2 140.442 285.301 140.172 285.385 139.891H286.55C286.623 140.091 286.745 140.392 286.922 140.776Z" fill="url(#paint15_linear_2143_30425)"/>
<path d="M285.132 138.372V139.158C285.053 139.157 284.976 139.183 284.913 139.23C284.849 139.278 284.803 139.345 284.781 139.421C284.15 141.515 282.923 143.379 281.25 144.787V133.025C282 133.62 282.842 134.088 283.743 134.413C283.235 134.446 282.76 134.675 282.418 135.052C282.076 135.429 281.894 135.925 281.91 136.433C281.927 136.942 282.14 137.424 282.506 137.778C282.872 138.132 283.361 138.331 283.869 138.331C284.081 138.331 284.292 138.296 284.493 138.227C284.696 138.312 284.912 138.361 285.132 138.372Z" fill="url(#paint16_linear_2143_30425)"/>
<path d="M288.53 136.002C288.518 135.883 288.488 135.766 288.443 135.655C288.406 135.566 288.359 135.482 288.304 135.404C287.083 135.301 285.875 135.078 284.698 134.739H284.666L284.571 134.971C284.571 134.996 284.552 135.019 284.544 135.044C284.518 135.128 284.498 135.214 284.486 135.302L284.471 135.433L284.376 135.52C284.253 135.637 284.155 135.779 284.089 135.935L283.412 135.657C283.487 135.472 283.593 135.301 283.723 135.15C283.42 135.181 283.139 135.323 282.935 135.549C282.73 135.775 282.617 136.069 282.617 136.374C282.617 136.678 282.73 136.972 282.935 137.198C283.139 137.424 283.42 137.566 283.723 137.597L284.261 137.171C284.37 137.312 284.508 137.427 284.666 137.508C284.841 137.599 285.035 137.646 285.231 137.647C285.293 137.648 285.355 137.644 285.416 137.632L285.913 137.425C286.003 137.368 286.083 137.298 286.152 137.217L286.359 136.98L286.625 137.157C286.828 137.291 287.066 137.363 287.309 137.364C287.41 137.365 287.51 137.352 287.608 137.325C287.639 137.319 287.67 137.309 287.699 137.296C287.731 137.286 287.761 137.273 287.791 137.259C287.936 137.197 288.068 137.107 288.177 136.993C288.189 136.98 288.202 136.97 288.212 136.957C288.265 136.9 288.311 136.837 288.351 136.77C288.38 136.723 288.405 136.674 288.426 136.623C288.494 136.468 288.53 136.301 288.53 136.133C288.532 136.089 288.532 136.045 288.53 136.002ZM283.354 137.024C283.333 136.957 283.316 136.889 283.302 136.816C283.294 136.787 283.289 136.758 283.285 136.729L284.006 136.61C284.006 136.629 284.006 136.648 284.016 136.669C284.026 136.716 284.038 136.762 284.054 136.808L283.354 137.024Z" fill="url(#paint17_linear_2143_30425)"/>
<path d="M289.883 136.272C289.883 136.59 289.76 136.895 289.54 137.124C289.32 137.353 289.02 137.489 288.703 137.502C288.743 137.46 288.778 137.419 288.815 137.375C288.85 137.336 288.881 137.293 288.909 137.249C288.925 137.228 288.94 137.207 288.952 137.184C288.981 137.143 289.006 137.099 289.027 137.053C289.088 136.942 289.137 136.825 289.175 136.704C289.191 136.642 289.208 136.58 289.22 136.515C289.233 136.451 289.239 136.389 289.247 136.326C289.256 136.264 289.258 136.198 289.258 136.131C289.258 136.065 289.258 136.038 289.258 135.992C289.256 135.945 289.251 135.899 289.243 135.853C289.243 135.807 289.229 135.763 289.218 135.716C289.208 135.668 289.198 135.628 289.185 135.585C289.173 135.541 289.162 135.512 289.152 135.475L289.601 135.497C289.783 135.715 289.883 135.989 289.883 136.272Z" fill="url(#paint18_linear_2143_30425)"/>
<path d="M290.804 135.514V144.787H290.692C288.199 142.535 287.179 139.448 287.16 139.411C287.137 139.34 287.093 139.278 287.034 139.233C286.974 139.188 286.903 139.162 286.828 139.159V138.034C286.984 138.073 287.143 138.092 287.304 138.092C287.466 138.093 287.628 138.072 287.786 138.031C288.144 138.209 288.548 138.272 288.944 138.213C289.34 138.154 289.708 137.975 289.999 137.701C290.29 137.427 290.49 137.07 290.573 136.679C290.656 136.287 290.617 135.88 290.461 135.512L290.804 135.514Z" fill="url(#paint19_linear_2143_30425)"/>
</g>
<path d="M86.8557 207.64H176.723C178.054 207.64 179.331 208.169 180.272 209.11C181.214 210.052 181.743 211.329 181.743 212.66V311.031C181.743 312.362 181.214 313.639 180.272 314.581C179.331 315.523 178.054 316.052 176.723 316.052H86.8558C85.5244 316.052 84.2476 315.523 83.3062 314.581C82.3648 313.639 81.8359 312.362 81.8359 311.031V212.66C81.8359 211.329 82.3648 210.052 83.3062 209.11C84.2476 208.169 85.5244 207.64 86.8557 207.64Z" fill="#FFDEB3"/>
<path d="M96.0028 222.334H167.586C168.571 222.334 169.516 222.725 170.212 223.422C170.909 224.118 171.3 225.063 171.3 226.048V297.643C171.3 298.628 170.909 299.573 170.212 300.269C169.516 300.966 168.571 301.357 167.586 301.357H96.003C95.018 301.357 94.0733 300.966 93.3768 300.269C92.6803 299.573 92.2891 298.628 92.2891 297.643V226.048C92.2891 225.063 92.6803 224.118 93.3768 223.422C94.0733 222.725 95.0179 222.334 96.0028 222.334Z" fill="url(#paint20_linear_2143_30425)"/>
<path d="M186.587 316.052H76.9942C72.9071 316.052 69.5938 319.366 69.5938 323.453V350.774C69.5938 354.862 72.9071 358.176 76.9942 358.176H186.587C190.674 358.176 193.987 354.862 193.987 350.774V323.453C193.987 319.366 190.674 316.052 186.587 316.052Z" fill="#FFD6A0"/>
<path d="M193.987 323.453H69.5938V331.97H193.987V323.453Z" fill="#FFDEB3"/>
<path d="M188.055 334.828H147.57V339.4H188.055V334.828Z" fill="#BFA178"/>
<path d="M144.796 334.828H135.164V339.4H144.796V334.828Z" fill="#BFA178"/>
<path d="M131.796 334.828H122.164V339.4H131.796V334.828Z" fill="#BFA178"/>
<path d="M117.207 339.4C118.47 339.4 119.493 338.376 119.493 337.114C119.493 335.852 118.47 334.828 117.207 334.828C115.945 334.828 114.922 335.852 114.922 337.114C114.922 338.376 115.945 339.4 117.207 339.4Z" fill="#BFA178"/>
<path d="M169.012 310.826C170.274 310.826 171.297 309.803 171.297 308.541C171.297 307.278 170.274 306.255 169.012 306.255C167.75 306.255 166.727 307.278 166.727 308.541C166.727 309.803 167.75 310.826 169.012 310.826Z" fill="#BFA178"/>
<path d="M96.8875 325.48H73.625V329.766H96.8875V325.48Z" fill="#BFA178"/>
<path opacity="0.1" d="M124.626 226.218H103.008H95.1719V234.055V255.676H103.008V234.055H124.626V226.218Z" fill="white"/>
<path opacity="0.1" d="M167.812 267.594H159.977V297.051H167.812V267.594Z" fill="white"/>
<mask id="mask0_2143_30425" style="mask-type:luminance" maskUnits="userSpaceOnUse" x="92" y="222" width="80" height="80">
<path d="M96.0028 222.334H167.586C168.571 222.334 169.516 222.725 170.212 223.422C170.909 224.118 171.3 225.063 171.3 226.048V297.643C171.3 298.628 170.909 299.573 170.212 300.269C169.516 300.966 168.571 301.357 167.586 301.357H96.003C95.018 301.357 94.0733 300.966 93.3768 300.269C92.6803 299.573 92.2891 298.628 92.2891 297.643V226.048C92.2891 225.063 92.6803 224.118 93.3768 223.422C94.0733 222.725 95.0179 222.334 96.0028 222.334Z" fill="white"/>
</mask>
<g mask="url(#mask0_2143_30425)">
<g opacity="0.5">
<path opacity="0.1" d="M171.3 223.843H92.2891V225.316H171.3V223.843Z" fill="white"/>
<path opacity="0.1" d="M171.3 226.789H92.2891V228.261H171.3V226.789Z" fill="white"/>
<path opacity="0.1" d="M171.3 229.734H92.2891V231.207H171.3V229.734Z" fill="white"/>
<path opacity="0.1" d="M171.3 232.68H92.2891V234.153H171.3V232.68Z" fill="white"/>
<path opacity="0.1" d="M171.3 235.626H92.2891V237.099H171.3V235.626Z" fill="white"/>
<path opacity="0.1" d="M171.3 238.571H92.2891V240.044H171.3V238.571Z" fill="white"/>
<path opacity="0.1" d="M171.3 241.518H92.2891V242.991H171.3V241.518Z" fill="white"/>
<path opacity="0.1" d="M171.3 244.463H92.2891V245.936H171.3V244.463Z" fill="white"/>
<path opacity="0.1" d="M171.3 247.409H92.2891V248.882H171.3V247.409Z" fill="white"/>
<path opacity="0.1" d="M171.3 250.354H92.2891V251.827H171.3V250.354Z" fill="white"/>
<path opacity="0.1" d="M171.3 253.301H92.2891V254.774H171.3V253.301Z" fill="white"/>
<path opacity="0.1" d="M171.3 256.246H92.2891V257.719H171.3V256.246Z" fill="white"/>
<path opacity="0.1" d="M171.3 259.191H92.2891V260.664H171.3V259.191Z" fill="white"/>
<path opacity="0.1" d="M171.3 262.138H92.2891V263.611H171.3V262.138Z" fill="white"/>
<path opacity="0.1" d="M171.3 265.084H92.2891V266.557H171.3V265.084Z" fill="white"/>
<path opacity="0.1" d="M171.3 268.029H92.2891V269.502H171.3V268.029Z" fill="white"/>
<path opacity="0.1" d="M171.3 270.976H92.2891V272.449H171.3V270.976Z" fill="white"/>
<path opacity="0.1" d="M171.3 273.921H92.2891V275.394H171.3V273.921Z" fill="white"/>
<path opacity="0.1" d="M171.3 276.867H92.2891V278.34H171.3V276.867Z" fill="white"/>
<path opacity="0.1" d="M171.3 279.812H92.2891V281.285H171.3V279.812Z" fill="white"/>
<path opacity="0.1" d="M171.3 282.759H92.2891V284.232H171.3V282.759Z" fill="white"/>
<path opacity="0.1" d="M171.3 285.704H92.2891V287.177H171.3V285.704Z" fill="white"/>
<path opacity="0.1" d="M171.3 288.649H92.2891V290.122H171.3V288.649Z" fill="white"/>
<path opacity="0.1" d="M171.3 291.596H92.2891V293.069H171.3V291.596Z" fill="white"/>
<path opacity="0.1" d="M171.3 294.541H92.2891V296.014H171.3V294.541Z" fill="white"/>
<path opacity="0.1" d="M171.3 297.487H92.2891V298.96H171.3V297.487Z" fill="white"/>
<path opacity="0.1" d="M171.3 300.433H92.2891V301.906H171.3V300.433Z" fill="white"/>
</g>
<path opacity="0.1" d="M112.482 285.23C112.42 285.156 112.344 285.095 112.258 285.05C112.172 285.006 112.078 284.979 111.982 284.971C111.886 284.963 111.789 284.974 111.697 285.003C111.605 285.033 111.52 285.08 111.447 285.143L107.97 288.078L105.668 283.878C105.586 283.729 105.456 283.613 105.298 283.549L100.564 281.641C100.383 281.568 100.181 281.57 100.002 281.647C99.8224 281.723 99.6808 281.867 99.6079 282.048C99.5351 282.229 99.5371 282.431 99.6134 282.61C99.6897 282.79 99.8341 282.931 100.015 283.004L104.506 284.814L106.824 289.045L104.468 291.034C104.367 291.12 104.291 291.231 104.247 291.356C104.204 291.482 104.196 291.616 104.223 291.746C104.25 291.876 104.312 291.996 104.402 292.093C104.491 292.191 104.606 292.262 104.733 292.3L108.686 293.474L101.903 302.634C101.787 302.791 101.738 302.987 101.767 303.18C101.795 303.372 101.899 303.546 102.056 303.662C102.212 303.778 102.409 303.827 102.601 303.798C102.794 303.77 102.968 303.666 103.084 303.509L110.491 293.506C110.561 293.411 110.608 293.301 110.626 293.184C110.645 293.067 110.635 292.948 110.598 292.836C110.56 292.724 110.496 292.622 110.412 292.54C110.327 292.458 110.223 292.398 110.11 292.364L106.456 291.279L112.395 286.265C112.468 286.203 112.529 286.127 112.573 286.041C112.618 285.955 112.645 285.861 112.653 285.765C112.661 285.669 112.65 285.572 112.621 285.48C112.591 285.389 112.544 285.303 112.482 285.23Z" fill="white"/>
</g>
<path d="M44.4062 175.872L59.7805 181.491L69.0844 184.891L65.4588 194.813L78.996 205.463L63.6207 199.843L54.3178 196.444L57.9434 186.522L44.4062 175.872Z" fill="#FFE033"/>
<path d="M83.6444 167.11L87.1445 178.558L89.2611 185.484L81.8767 187.742L81.6324 200.333L78.1333 188.887L76.0156 181.96L83.4 179.702L83.6444 167.11Z" fill="#FFE033"/>
<path d="M388.535 207.64H478.402C479.734 207.64 481.011 208.169 481.952 209.11C482.893 210.052 483.422 211.329 483.422 212.66V311.031C483.422 312.362 482.893 313.639 481.952 314.581C481.011 315.523 479.734 316.052 478.402 316.052H388.535C387.204 316.052 385.927 315.523 384.986 314.581C384.045 313.639 383.516 312.362 383.516 311.031V212.66C383.516 212.001 383.645 211.348 383.898 210.739C384.15 210.13 384.52 209.576 384.986 209.11C385.452 208.644 386.005 208.274 386.614 208.022C387.223 207.77 387.876 207.64 388.535 207.64Z" fill="#FFDEB3"/>
<path d="M397.683 222.334H469.266C470.251 222.334 471.196 222.725 471.892 223.422C472.589 224.118 472.98 225.063 472.98 226.048V297.643C472.98 298.628 472.589 299.573 471.892 300.269C471.196 300.966 470.251 301.357 469.266 301.357H397.683C396.698 301.357 395.753 300.966 395.057 300.269C394.36 299.573 393.969 298.628 393.969 297.643V226.048C393.969 225.063 394.36 224.119 395.057 223.422C395.753 222.725 396.698 222.334 397.683 222.334Z" fill="url(#paint21_linear_2143_30425)"/>
<path d="M378.674 316.052H488.266C490.229 316.052 492.112 316.832 493.499 318.22C494.887 319.608 495.667 321.49 495.667 323.453V350.774C495.667 352.737 494.887 354.62 493.499 356.008C492.112 357.396 490.229 358.176 488.266 358.176H378.674C377.702 358.176 376.74 357.984 375.842 357.612C374.944 357.24 374.128 356.695 373.441 356.008C372.754 355.32 372.209 354.505 371.837 353.607C371.465 352.709 371.273 351.746 371.273 350.774V323.453C371.273 322.481 371.465 321.519 371.837 320.621C372.209 319.723 372.754 318.907 373.441 318.22C374.128 317.532 374.944 316.987 375.842 316.615C376.74 316.243 377.702 316.052 378.674 316.052Z" fill="#FFD6A0"/>
<path d="M495.667 323.453H371.273V331.97H495.667V323.453Z" fill="#FFDEB3"/>
<path d="M489.735 334.828H449.25V339.4H489.735V334.828Z" fill="#BFA178"/>
<path d="M446.475 334.828H436.844V339.4H446.475V334.828Z" fill="#BFA178"/>
<path d="M433.475 334.828H423.844V339.4H433.475V334.828Z" fill="#BFA178"/>
<path d="M418.887 339.4C420.149 339.4 421.172 338.376 421.172 337.114C421.172 335.852 420.149 334.828 418.887 334.828C417.625 334.828 416.602 335.852 416.602 337.114C416.602 338.376 417.625 339.4 418.887 339.4Z" fill="#BFA178"/>
<path d="M470.692 310.826C471.954 310.826 472.977 309.803 472.977 308.541C472.977 307.278 471.954 306.255 470.692 306.255C469.429 306.255 468.406 307.278 468.406 308.541C468.406 309.803 469.429 310.826 470.692 310.826Z" fill="#BFA178"/>
<path d="M398.559 325.48H375.297V329.766H398.559V325.48Z" fill="#BFA178"/>
<mask id="mask1_2143_30425" style="mask-type:luminance" maskUnits="userSpaceOnUse" x="393" y="222" width="80" height="80">
<path d="M397.683 222.334H469.266C470.251 222.334 471.196 222.725 471.892 223.422C472.589 224.118 472.98 225.063 472.98 226.048V297.643C472.98 298.628 472.589 299.573 471.892 300.269C471.196 300.966 470.251 301.357 469.266 301.357H397.683C396.698 301.357 395.753 300.966 395.057 300.269C394.36 299.573 393.969 298.628 393.969 297.643V226.048C393.969 225.063 394.36 224.119 395.057 223.422C395.753 222.725 396.698 222.334 397.683 222.334Z" fill="white"/>
</mask>
<g mask="url(#mask1_2143_30425)">
<g opacity="0.5">
<path opacity="0.1" d="M472.98 223.843H393.969V225.316H472.98V223.843Z" fill="white"/>
<path opacity="0.1" d="M472.98 226.789H393.969V228.261H472.98V226.789Z" fill="white"/>
<path opacity="0.1" d="M472.98 229.734H393.969V231.207H472.98V229.734Z" fill="white"/>
<path opacity="0.1" d="M472.98 232.68H393.969V234.153H472.98V232.68Z" fill="white"/>
<path opacity="0.1" d="M472.98 235.626H393.969V237.099H472.98V235.626Z" fill="white"/>
<path opacity="0.1" d="M472.98 238.571H393.969V240.044H472.98V238.571Z" fill="white"/>
<path opacity="0.1" d="M472.98 241.518H393.969V242.991H472.98V241.518Z" fill="white"/>
<path opacity="0.1" d="M472.98 244.463H393.969V245.936H472.98V244.463Z" fill="white"/>
<path opacity="0.1" d="M472.98 247.409H393.969V248.882H472.98V247.409Z" fill="white"/>
<path opacity="0.1" d="M472.98 250.354H393.969V251.827H472.98V250.354Z" fill="white"/>
<path opacity="0.1" d="M472.98 253.301H393.969V254.774H472.98V253.301Z" fill="white"/>
<path opacity="0.1" d="M472.98 256.246H393.969V257.719H472.98V256.246Z" fill="white"/>
<path opacity="0.1" d="M472.98 259.191H393.969V260.664H472.98V259.191Z" fill="white"/>
<path opacity="0.1" d="M472.98 262.138H393.969V263.611H472.98V262.138Z" fill="white"/>
<path opacity="0.1" d="M472.98 265.084H393.969V266.557H472.98V265.084Z" fill="white"/>
<path opacity="0.1" d="M472.98 268.029H393.969V269.502H472.98V268.029Z" fill="white"/>
<path opacity="0.1" d="M472.98 270.976H393.969V272.449H472.98V270.976Z" fill="white"/>
<path opacity="0.1" d="M472.98 273.921H393.969V275.394H472.98V273.921Z" fill="white"/>
<path opacity="0.1" d="M472.98 276.867H393.969V278.34H472.98V276.867Z" fill="white"/>
<path opacity="0.1" d="M472.98 279.812H393.969V281.285H472.98V279.812Z" fill="white"/>
<path opacity="0.1" d="M472.98 282.759H393.969V284.232H472.98V282.759Z" fill="white"/>
<path opacity="0.1" d="M472.98 285.704H393.969V287.177H472.98V285.704Z" fill="white"/>
<path opacity="0.1" d="M472.98 288.649H393.969V290.122H472.98V288.649Z" fill="white"/>
<path opacity="0.1" d="M472.98 291.596H393.969V293.069H472.98V291.596Z" fill="white"/>
<path opacity="0.1" d="M472.98 294.541H393.969V296.014H472.98V294.541Z" fill="white"/>
<path opacity="0.1" d="M472.98 297.487H393.969V298.96H472.98V297.487Z" fill="white"/>
<path opacity="0.1" d="M472.98 300.433H393.969V301.906H472.98V300.433Z" fill="white"/>
</g>
</g>
<path opacity="0.1" d="M426.304 226.218H404.687H396.852V234.055V255.676H404.687V234.055H426.304V226.218Z" fill="white"/>
<path opacity="0.1" d="M469.492 267.594H461.656V297.051H469.492V267.594Z" fill="white"/>
<path d="M518.425 239.518L508.553 239.931L502.579 240.182L502.312 233.812L492.305 230.996L502.177 230.582L508.15 230.331L508.417 236.702L518.425 239.518Z" fill="#FFE033"/>
<path d="M498.567 253.46L493.975 247.883L491.195 244.508L494.793 241.544L492.024 234.465L496.617 240.042L499.396 243.417L495.798 246.38L498.567 253.46Z" fill="#FFE033"/>
<path opacity="0.2" d="M538.981 173.149H530.309C528.978 173.149 527.701 173.678 526.759 174.619C525.818 175.561 525.289 176.838 525.289 178.169C525.289 179.501 525.818 180.778 526.759 181.72C527.701 182.661 528.978 183.19 530.309 183.19H538.981C540.312 183.19 541.589 182.661 542.53 181.72C543.472 180.778 544.001 179.501 544.001 178.169C544.001 176.838 543.472 175.561 542.53 174.619C541.589 173.678 540.312 173.149 538.981 173.149Z" fill="black"/>
<path opacity="0.2" d="M510.779 165.077H515.499C516.83 165.077 518.107 164.548 519.049 163.606C519.99 162.665 520.519 161.388 520.519 160.056C520.519 158.725 519.99 157.448 519.049 156.506C518.107 155.565 516.83 155.036 515.499 155.036H486.074C484.743 155.036 483.466 155.565 482.524 156.506C481.583 157.448 481.054 158.725 481.054 160.056C481.054 160.716 481.184 161.369 481.436 161.978C481.689 162.587 482.058 163.14 482.525 163.606C482.991 164.073 483.544 164.442 484.153 164.695C484.762 164.947 485.415 165.077 486.074 165.077H489.775C490.845 165.077 491.872 165.502 492.629 166.259C493.385 167.016 493.81 168.042 493.81 169.113C493.81 170.183 493.385 171.21 492.629 171.966C491.872 172.723 490.845 173.149 489.775 173.149H462.322C460.99 173.149 459.714 173.678 458.772 174.619C457.831 175.561 457.302 176.838 457.302 178.169C457.302 179.501 457.831 180.778 458.772 181.719C459.714 182.661 460.99 183.19 462.322 183.19H463.396C464.467 183.19 465.493 183.615 466.25 184.372C467.007 185.129 467.432 186.155 467.432 187.226C467.432 188.296 467.007 189.322 466.25 190.079C465.493 190.836 464.467 191.261 463.396 191.261H461.791C460.038 191.261 458.356 191.958 457.116 193.198C455.876 194.438 455.18 196.12 455.18 197.874C455.18 199.628 455.876 201.31 457.116 202.55C458.356 203.79 460.038 204.486 461.791 204.486H476.552C477.793 204.486 478.983 204.979 479.86 205.857C480.737 206.734 481.23 207.924 481.23 209.165C481.23 210.406 480.737 211.596 479.86 212.473C478.983 213.351 477.793 213.844 476.552 213.844H472.184C470.431 213.844 468.749 214.54 467.509 215.781C466.27 217.021 465.573 218.703 465.573 220.456C465.573 222.21 466.27 223.892 467.509 225.132C468.749 226.372 470.431 227.069 472.184 227.069H501.786C502.655 227.069 503.514 226.898 504.316 226.565C505.119 226.233 505.847 225.746 506.461 225.132C507.075 224.518 507.562 223.789 507.895 222.987C508.227 222.185 508.398 221.325 508.398 220.456C508.398 219.588 508.227 218.728 507.895 217.926C507.562 217.124 507.075 216.395 506.461 215.781C505.847 215.167 505.119 214.679 504.316 214.347C503.514 214.015 502.655 213.844 501.786 213.844H500.901C500.287 213.844 499.679 213.723 499.111 213.488C498.544 213.253 498.028 212.908 497.593 212.473C497.159 212.039 496.815 211.523 496.579 210.956C496.344 210.388 496.223 209.78 496.223 209.165C496.223 208.551 496.344 207.942 496.579 207.375C496.815 206.807 497.159 206.291 497.593 205.857C498.028 205.422 498.544 205.078 499.111 204.843C499.679 204.607 500.287 204.486 500.901 204.486H509.704C511.457 204.486 513.139 203.79 514.379 202.55C515.619 201.31 516.315 199.628 516.315 197.874C516.315 196.12 515.619 194.438 514.379 193.198C513.139 191.958 511.457 191.261 509.704 191.261H507.228C506.158 191.261 505.131 190.836 504.375 190.079C503.618 189.323 503.193 188.296 503.193 187.226C503.193 186.155 503.618 185.129 504.375 184.372C505.131 183.615 506.158 183.19 507.228 183.19H515.499C516.83 183.19 518.107 182.661 519.049 181.719C519.99 180.778 520.519 179.501 520.519 178.169C520.519 176.838 519.99 175.561 519.049 174.619C518.107 173.678 516.83 173.149 515.499 173.149H510.779C509.708 173.149 508.682 172.723 507.925 171.966C507.168 171.21 506.743 170.183 506.743 169.113C506.743 168.042 507.168 167.016 507.925 166.259C508.682 165.502 509.708 165.077 510.779 165.077ZM480.365 187.226C480.365 186.155 480.79 185.129 481.547 184.372C482.303 183.615 483.33 183.19 484.4 183.19H486.225C487.295 183.19 488.321 183.615 489.078 184.372C489.835 185.129 490.26 186.155 490.26 187.226C490.26 187.756 490.155 188.28 489.953 188.77C489.75 189.26 489.453 189.705 489.078 190.079C488.703 190.454 488.258 190.751 487.769 190.954C487.279 191.157 486.754 191.261 486.225 191.261H484.4C483.33 191.261 482.303 190.836 481.547 190.079C480.79 189.322 480.365 188.296 480.365 187.226Z" fill="black"/>
<path opacity="0.2" d="M470.793 141H482.311C483.642 141 484.919 141.529 485.86 142.47C486.802 143.412 487.331 144.689 487.331 146.02C487.331 147.352 486.802 148.629 485.86 149.571C484.919 150.512 483.642 151.041 482.311 151.041H470.793C469.462 151.041 468.185 150.512 467.244 149.571C466.302 148.629 465.773 147.352 465.773 146.021C465.773 145.361 465.903 144.708 466.156 144.099C466.408 143.49 466.778 142.937 467.244 142.47C467.71 142.004 468.263 141.634 468.872 141.382C469.481 141.13 470.134 141 470.793 141Z" fill="black"/>
<path d="M443.655 199.735L435.895 195.883C435.399 195.637 435.02 195.204 434.844 194.678C434.667 194.153 434.706 193.579 434.952 193.083C435.074 192.837 435.243 192.617 435.45 192.437C435.657 192.257 435.897 192.119 436.157 192.031C436.417 191.944 436.692 191.908 436.965 191.927C437.239 191.945 437.507 192.018 437.752 192.14L445.512 195.991C446.008 196.237 446.387 196.671 446.563 197.196C446.74 197.721 446.701 198.295 446.455 198.792C446.209 199.288 445.775 199.666 445.25 199.843C444.725 200.02 444.151 199.981 443.655 199.735Z" fill="#FFE033"/>
<path d="M449.432 193.325L446.255 185.265C446.052 184.75 446.062 184.174 446.282 183.666C446.503 183.158 446.917 182.758 447.432 182.555C447.688 182.454 447.96 182.405 448.235 182.409C448.509 182.414 448.78 182.473 449.031 182.582C449.283 182.692 449.511 182.849 449.701 183.047C449.892 183.244 450.042 183.477 450.142 183.732L453.32 191.793C453.42 192.048 453.47 192.32 453.465 192.595C453.46 192.869 453.402 193.14 453.292 193.392C453.183 193.643 453.025 193.871 452.828 194.062C452.63 194.252 452.397 194.402 452.142 194.503C451.627 194.706 451.052 194.696 450.543 194.475C450.035 194.255 449.635 193.841 449.432 193.325Z" fill="#FFE033"/>
<path d="M237.699 207.64H327.566C328.898 207.64 330.175 208.169 331.116 209.11C332.057 210.052 332.586 211.329 332.586 212.66V311.031C332.586 312.362 332.057 313.639 331.116 314.581C330.175 315.523 328.898 316.052 327.566 316.052H237.7C236.368 316.052 235.091 315.523 234.15 314.581C233.209 313.639 232.68 312.362 232.68 311.031V212.66C232.68 211.329 233.209 210.052 234.15 209.11C235.091 208.169 236.368 207.64 237.699 207.64Z" fill="#FFDEB3"/>
<path d="M246.847 222.334H318.43C319.415 222.334 320.36 222.725 321.056 223.422C321.753 224.118 322.144 225.063 322.144 226.048V297.643C322.144 298.628 321.753 299.573 321.056 300.269C320.36 300.966 319.415 301.357 318.43 301.357H246.847C245.862 301.357 244.917 300.966 244.221 300.269C243.524 299.573 243.133 298.628 243.133 297.643V226.048C243.133 225.561 243.229 225.078 243.416 224.627C243.602 224.176 243.876 223.767 244.221 223.422C244.565 223.077 244.975 222.803 245.425 222.617C245.876 222.43 246.359 222.334 246.847 222.334Z" fill="url(#paint22_linear_2143_30425)"/>
<path d="M337.43 316.052H227.838C223.751 316.052 220.438 319.366 220.438 323.453V350.774C220.438 354.862 223.751 358.176 227.838 358.176H337.43C341.518 358.176 344.831 354.862 344.831 350.774V323.453C344.831 319.366 341.518 316.052 337.43 316.052Z" fill="#FFD6A0"/>
<path d="M344.831 323.453H220.438V331.97H344.831V323.453Z" fill="#FFDEB3"/>
<path d="M338.899 334.828H298.414V339.4H338.899V334.828Z" fill="#BFA178"/>
<path d="M295.639 334.828H286.008V339.4H295.639V334.828Z" fill="#BFA178"/>
<path d="M282.632 334.828H273V339.4H282.632V334.828Z" fill="#BFA178"/>
<path d="M268.051 339.4C269.313 339.4 270.337 338.376 270.337 337.114C270.337 335.852 269.313 334.828 268.051 334.828C266.789 334.828 265.766 335.852 265.766 337.114C265.766 338.376 266.789 339.4 268.051 339.4Z" fill="#BFA178"/>
<path d="M319.856 310.826C321.118 310.826 322.141 309.803 322.141 308.541C322.141 307.278 321.118 306.255 319.856 306.255C318.594 306.255 317.57 307.278 317.57 308.541C317.57 309.803 318.594 310.826 319.856 310.826Z" fill="#BFA178"/>
<path d="M247.724 325.48H224.461V329.766H247.724V325.48Z" fill="#BFA178"/>
<mask id="mask2_2143_30425" style="mask-type:luminance" maskUnits="userSpaceOnUse" x="243" y="222" width="80" height="80">
<path d="M246.847 222.334H318.43C319.415 222.334 320.359 222.725 321.056 223.422C321.752 224.119 322.144 225.063 322.144 226.048V297.643C322.144 298.628 321.752 299.573 321.056 300.269C320.359 300.966 319.415 301.357 318.43 301.357H246.846C245.862 301.357 244.917 300.966 244.221 300.269C243.524 299.573 243.133 298.628 243.133 297.643V226.048C243.133 225.063 243.524 224.118 244.221 223.422C244.917 222.725 245.862 222.334 246.847 222.334Z" fill="white"/>
</mask>
<g mask="url(#mask2_2143_30425)">
<g opacity="0.5">
<path opacity="0.1" d="M322.144 223.843H243.133V225.316H322.144V223.843Z" fill="white"/>
<path opacity="0.1" d="M322.144 226.789H243.133V228.261H322.144V226.789Z" fill="white"/>
<path opacity="0.1" d="M322.144 229.734H243.133V231.207H322.144V229.734Z" fill="white"/>
<path opacity="0.1" d="M322.144 232.68H243.133V234.153H322.144V232.68Z" fill="white"/>
<path opacity="0.1" d="M322.144 235.626H243.133V237.099H322.144V235.626Z" fill="white"/>
<path opacity="0.1" d="M322.144 238.571H243.133V240.044H322.144V238.571Z" fill="white"/>
<path opacity="0.1" d="M322.144 241.518H243.133V242.991H322.144V241.518Z" fill="white"/>
<path opacity="0.1" d="M322.144 244.463H243.133V245.936H322.144V244.463Z" fill="white"/>
<path opacity="0.1" d="M322.144 247.409H243.133V248.882H322.144V247.409Z" fill="white"/>
<path opacity="0.1" d="M322.144 250.354H243.133V251.827H322.144V250.354Z" fill="white"/>
<path opacity="0.1" d="M322.144 253.301H243.133V254.774H322.144V253.301Z" fill="white"/>
<path opacity="0.1" d="M322.144 256.246H243.133V257.719H322.144V256.246Z" fill="white"/>
<path opacity="0.1" d="M322.144 259.191H243.133V260.664H322.144V259.191Z" fill="white"/>
<path opacity="0.1" d="M322.144 262.138H243.133V263.611H322.144V262.138Z" fill="white"/>
<path opacity="0.1" d="M322.144 265.084H243.133V266.557H322.144V265.084Z" fill="white"/>
<path opacity="0.1" d="M322.144 268.029H243.133V269.502H322.144V268.029Z" fill="white"/>
<path opacity="0.1" d="M322.144 270.976H243.133V272.449H322.144V270.976Z" fill="white"/>
<path opacity="0.1" d="M322.144 273.921H243.133V275.394H322.144V273.921Z" fill="white"/>
<path opacity="0.1" d="M322.144 276.867H243.133V278.34H322.144V276.867Z" fill="white"/>
<path opacity="0.1" d="M322.144 279.812H243.133V281.285H322.144V279.812Z" fill="white"/>
<path opacity="0.1" d="M322.144 282.759H243.133V284.232H322.144V282.759Z" fill="white"/>
<path opacity="0.1" d="M322.144 285.704H243.133V287.177H322.144V285.704Z" fill="white"/>
<path opacity="0.1" d="M322.144 288.649H243.133V290.122H322.144V288.649Z" fill="white"/>
<path opacity="0.1" d="M322.144 291.596H243.133V293.069H322.144V291.596Z" fill="white"/>
<path opacity="0.1" d="M322.144 294.541H243.133V296.014H322.144V294.541Z" fill="white"/>
<path opacity="0.1" d="M322.144 297.487H243.133V298.96H322.144V297.487Z" fill="white"/>
<path opacity="0.1" d="M322.144 300.433H243.133V301.906H322.144V300.433Z" fill="white"/>
</g>
</g>
<path opacity="0.1" d="M275.461 226.218H253.844H246.008V234.055V255.676H253.844V234.055H275.461V226.218Z" fill="white"/>
<path opacity="0.1" d="M318.656 267.594H310.82V297.051H318.656V267.594Z" fill="white"/>
<path d="M350.141 360.674L356.812 366.201C357.023 366.376 357.198 366.591 357.326 366.833C357.455 367.076 357.534 367.341 357.559 367.614C357.585 367.888 357.557 368.163 357.476 368.425C357.395 368.688 357.263 368.931 357.088 369.143C356.735 369.57 356.226 369.838 355.675 369.89C355.123 369.942 354.573 369.773 354.146 369.419L347.475 363.892C347.049 363.539 346.78 363.03 346.728 362.478C346.676 361.927 346.846 361.377 347.199 360.95C347.374 360.739 347.589 360.564 347.832 360.436C348.074 360.307 348.34 360.228 348.613 360.203C348.886 360.177 349.161 360.205 349.424 360.286C349.686 360.367 349.93 360.499 350.141 360.674Z" fill="#FFE033"/>
<path d="M343.055 365.59L344.302 374.163C344.341 374.435 344.327 374.712 344.259 374.978C344.192 375.244 344.073 375.494 343.909 375.714C343.745 375.934 343.539 376.119 343.303 376.26C343.067 376.4 342.806 376.493 342.535 376.532C341.986 376.612 341.429 376.47 340.985 376.139C340.541 375.808 340.246 375.313 340.167 374.765L338.92 366.191C338.84 365.643 338.982 365.085 339.313 364.641C339.645 364.197 340.139 363.902 340.687 363.823C340.959 363.783 341.235 363.797 341.501 363.865C341.767 363.932 342.017 364.051 342.237 364.216C342.457 364.38 342.643 364.585 342.783 364.821C342.923 365.057 343.016 365.318 343.055 365.59Z" fill="#FFE033"/>
<path d="M311.12 212.578L314.289 208.061C314.372 207.937 314.414 207.789 314.409 207.64H312.791L309.602 212.184L306.143 214.809C306.066 214.868 306.001 214.941 305.952 215.024C305.903 215.107 305.872 215.199 305.858 215.295C305.845 215.391 305.851 215.488 305.876 215.581C305.9 215.675 305.943 215.762 306.001 215.839C306.059 215.916 306.132 215.981 306.215 216.029C306.299 216.078 306.391 216.11 306.486 216.123C306.582 216.136 306.679 216.13 306.773 216.106C306.866 216.081 306.954 216.039 307.03 215.98L310.108 213.645L312.857 216.016L311.878 219.61C311.852 219.703 311.845 219.801 311.857 219.896C311.869 219.992 311.9 220.085 311.948 220.169C311.995 220.253 312.059 220.327 312.136 220.386C312.212 220.445 312.299 220.489 312.392 220.514C312.486 220.54 312.583 220.547 312.679 220.534C312.775 220.522 312.867 220.491 312.951 220.443C313.035 220.395 313.108 220.331 313.167 220.254C313.226 220.178 313.27 220.09 313.295 219.997L314.397 215.956C314.433 215.822 314.431 215.681 314.391 215.548C314.35 215.415 314.273 215.297 314.168 215.206L311.12 212.578Z" fill="#BFA178"/>
<path opacity="0.2" d="M83.801 302.684H75.1292C73.7978 302.684 72.521 303.213 71.5796 304.154C70.6382 305.096 70.1094 306.373 70.1094 307.704C70.1094 309.036 70.6382 310.313 71.5796 311.254C72.521 312.196 73.7978 312.725 75.1292 312.725H83.801C85.1324 312.725 86.4092 312.196 87.3506 311.254C88.2919 310.313 88.8208 309.036 88.8208 307.704C88.8208 306.373 88.2919 305.096 87.3506 304.154C86.4092 303.213 85.1324 302.684 83.801 302.684Z" fill="black"/>
<path opacity="0.2" d="M55.5989 294.612H60.3194C61.6507 294.612 62.9275 294.083 63.8689 293.141C64.8103 292.2 65.3392 290.923 65.3392 289.591C65.3392 288.259 64.8103 286.982 63.8689 286.041C62.9275 285.099 61.6507 284.57 60.3194 284.57H30.8943C29.563 284.57 28.2862 285.099 27.3448 286.041C26.4034 286.982 25.8746 288.259 25.8746 289.591C25.8746 290.922 26.4034 292.2 27.3448 293.141C28.2862 294.083 29.563 294.612 30.8943 294.612H34.5955C35.6658 294.612 36.6921 295.037 37.4489 295.794C38.2056 296.55 38.6308 297.577 38.6308 298.647C38.6308 299.718 38.2056 300.744 37.4489 301.501C36.6921 302.258 35.6658 302.683 34.5955 302.683H7.1421C5.81077 302.683 4.53397 303.212 3.59258 304.154C2.65119 305.095 2.12232 306.372 2.12232 307.704C2.12232 309.035 2.65119 310.312 3.59258 311.254C4.53397 312.195 5.81077 312.724 7.1421 312.724H8.2168C9.28701 312.724 10.3134 313.15 11.0701 313.906C11.8268 314.663 12.252 315.69 12.252 316.76C12.252 317.831 11.8269 318.857 11.0701 319.614C10.3134 320.371 9.28701 320.796 8.2168 320.796H6.61147C4.858 320.796 3.17635 321.493 1.93645 322.733C0.696564 323.973 0 325.655 0 327.409C0 329.162 0.696564 330.844 1.93645 332.084C3.17635 333.324 4.858 334.021 6.61147 334.021H21.3726C22.6133 334.021 23.8031 334.514 24.6804 335.391C25.5577 336.269 26.0505 337.459 26.0506 338.7C26.0506 339.941 25.5577 341.131 24.6804 342.008C23.8031 342.886 22.6133 343.378 21.3726 343.378H17.0048C15.2513 343.378 13.5697 344.075 12.3298 345.315C11.0899 346.555 10.3933 348.237 10.3933 349.991C10.3933 351.745 11.0899 353.427 12.3298 354.667C13.5697 355.907 15.2513 356.603 17.0048 356.603H46.6067C48.3602 356.603 50.0419 355.907 51.2818 354.667C52.5216 353.427 53.2182 351.745 53.2182 349.991C53.2182 348.237 52.5216 346.555 51.2818 345.315C50.0419 344.075 48.3602 343.378 46.6067 343.378H45.7217C44.481 343.378 43.2912 342.886 42.4139 342.008C41.5366 341.131 41.0437 339.941 41.0437 338.7C41.0437 337.459 41.5366 336.269 42.4139 335.391C43.2912 334.514 44.481 334.021 45.7217 334.021H54.5242C56.2777 334.021 57.9593 333.324 59.1992 332.084C60.4391 330.844 61.1357 329.162 61.1357 327.409C61.1357 325.655 60.4391 323.973 59.1992 322.733C57.9593 321.493 56.2777 320.796 54.5242 320.796H52.0484C50.9781 320.796 49.9517 320.371 49.195 319.614C48.4382 318.857 48.0131 317.831 48.0131 316.76C48.0131 315.69 48.4382 314.663 49.195 313.906C49.9517 313.15 50.9781 312.724 52.0484 312.724H60.3194C61.6507 312.724 62.9275 312.195 63.8689 311.254C64.8103 310.312 65.3392 309.035 65.3392 307.704C65.3392 306.372 64.8103 305.095 63.8689 304.154C62.9275 303.212 61.6507 302.683 60.3194 302.683H55.5989C54.5287 302.683 53.5023 302.258 52.7456 301.501C51.9888 300.744 51.5637 299.718 51.5637 298.647C51.5637 297.577 51.9888 296.55 52.7456 295.794C53.5023 295.037 54.5287 294.612 55.5989 294.612ZM25.185 316.76C25.185 315.69 25.6101 314.663 26.3669 313.906C27.1236 313.15 28.15 312.724 29.2202 312.724H31.0449C32.1151 312.724 33.1415 313.15 33.8982 313.906C34.6549 314.663 35.0801 315.69 35.0801 316.76C35.0801 317.29 34.9757 317.815 34.7729 318.305C34.5701 318.794 34.2729 319.239 33.8982 319.614C33.5235 319.989 33.0787 320.286 32.5891 320.489C32.0995 320.692 31.5748 320.796 31.0449 320.796H29.2202C28.15 320.796 27.1236 320.371 26.3669 319.614C25.6101 318.857 25.185 317.831 25.185 316.76Z" fill="black"/>
<path opacity="0.2" d="M15.6136 270.535H27.131C27.7902 270.535 28.443 270.665 29.052 270.917C29.6611 271.17 30.2144 271.539 30.6806 272.006C31.1467 272.472 31.5165 273.025 31.7687 273.634C32.021 274.244 32.1509 274.896 32.1509 275.556C32.1509 276.887 31.622 278.164 30.6806 279.106C29.7392 280.047 28.4624 280.576 27.131 280.576H15.6136C14.2822 280.576 13.0054 280.047 12.064 279.106C11.1226 278.164 10.5938 276.887 10.5938 275.556C10.5937 274.896 10.7236 274.244 10.9759 273.634C11.2281 273.025 11.5979 272.472 12.064 272.006C12.5302 271.539 13.0835 271.17 13.6926 270.917C14.3016 270.665 14.9544 270.535 15.6136 270.535Z" fill="black"/>
<path d="M217.969 290.174L226.672 294.853L231.937 297.685L228.919 303.3L236.091 310.827L227.388 306.148L222.123 303.317L225.141 297.7L217.969 290.174Z" fill="#FFE033"/>
<path d="M337.376 191.922L334.976 199.841L333.523 204.634L328.413 203.084L323.422 210.219L325.822 202.3L327.275 197.508L332.385 199.056L337.376 191.922Z" fill="#FFE033"/>
<path d="M125.48 265.216H117.288L118.504 240.064H145.064V246.72H126.376L125.992 254.848C127.912 253.397 130.109 252.672 132.584 252.672C135.954 252.672 139.026 253.803 141.8 256.064C144.573 258.283 145.96 261.333 145.96 265.216V276.096C145.96 280.064 144.509 283.157 141.608 285.376C138.706 287.552 135.272 288.64 131.304 288.64C127.336 288.64 123.901 287.552 121 285.376C118.098 283.157 116.648 280.064 116.648 276.096H124.84C124.84 277.931 125.48 279.381 126.76 280.448C128.04 281.472 129.554 281.984 131.304 281.984C133.053 281.984 134.568 281.472 135.848 280.448C137.128 279.381 137.768 277.931 137.768 276.096V265.216C137.768 263.381 137.128 261.952 135.848 260.928C134.568 259.861 133.096 259.328 131.432 259.328C129.896 259.328 128.573 259.776 127.464 260.672C126.354 261.568 125.714 262.848 125.544 264.512L125.48 265.216Z" fill="white"/>
<path d="M274.202 275.392V276.096C274.202 277.931 274.842 279.381 276.122 280.448C277.402 281.472 278.916 281.984 280.666 281.984C282.415 281.984 283.93 281.472 285.21 280.448C286.49 279.381 287.13 277.931 287.13 276.096V261.504L274.202 275.392ZM266.01 251.968C266.01 248 267.46 244.928 270.362 242.752C273.263 240.533 276.698 239.424 280.666 239.424C284.634 239.424 288.068 240.533 290.97 242.752C293.871 244.928 295.322 248 295.322 251.968V252.608H295.45L295.322 252.736V276.096C295.322 280.064 293.871 283.157 290.97 285.376C288.068 287.552 284.634 288.64 280.666 288.64C276.698 288.64 273.263 287.552 270.362 285.376C267.46 283.157 266.01 280.064 266.01 276.096V275.584H265.882L266.01 275.456V251.968ZM287.13 251.968C287.13 250.133 286.49 248.704 285.21 247.68C283.93 246.613 282.415 246.08 280.666 246.08C278.916 246.08 277.402 246.613 276.122 247.68C274.842 248.704 274.202 250.133 274.202 251.968V266.624L287.13 252.736V251.968Z" fill="white"/>
<path d="M426.202 275.392V276.096C426.202 277.931 426.842 279.381 428.122 280.448C429.402 281.472 430.916 281.984 432.666 281.984C434.415 281.984 435.93 281.472 437.21 280.448C438.49 279.381 439.13 277.931 439.13 276.096V261.504L426.202 275.392ZM418.01 251.968C418.01 248 419.46 244.928 422.362 242.752C425.263 240.533 428.698 239.424 432.666 239.424C436.634 239.424 440.068 240.533 442.97 242.752C445.871 244.928 447.322 248 447.322 251.968V252.608H447.45L447.322 252.736V276.096C447.322 280.064 445.871 283.157 442.97 285.376C440.068 287.552 436.634 288.64 432.666 288.64C428.698 288.64 425.263 287.552 422.362 285.376C419.46 283.157 418.01 280.064 418.01 276.096V275.584H417.882L418.01 275.456V251.968ZM439.13 251.968C439.13 250.133 438.49 248.704 437.21 247.68C435.93 246.613 434.415 246.08 432.666 246.08C430.916 246.08 429.402 246.613 428.122 247.68C426.842 248.704 426.202 250.133 426.202 251.968V266.624L439.13 252.736V251.968Z" fill="white"/>
<defs>
<filter id="filter0_d_2143_30425" x="243" y="93" width="75.3672" height="95" filterUnits="userSpaceOnUse" color-interpolation-filters="sRGB">
<feFlood flood-opacity="0" result="BackgroundImageFix"/>
<feColorMatrix in="SourceAlpha" type="matrix" values="0 0 0 0 0 0 0 0 0 0 0 0 0 0 0 0 0 0 127 0" result="hardAlpha"/>
<feOffset/>
<feGaussianBlur stdDeviation="5"/>
<feComposite in2="hardAlpha" operator="out"/>
<feColorMatrix type="matrix" values="0 0 0 0 0 0 0 0 0 0 0 0 0 0 0 0 0 0 0.1 0"/>
<feBlend mode="normal" in2="BackgroundImageFix" result="effect1_dropShadow_2143_30425"/>
<feBlend mode="normal" in="SourceGraphic" in2="effect1_dropShadow_2143_30425" result="shape"/>
</filter>
<linearGradient id="paint0_linear_2143_30425" x1="280.382" y1="29.53" x2="280.382" y2="363.022" gradientUnits="userSpaceOnUse">
<stop offset="0.0437592" stop-color="#957DAD"/>
<stop offset="0.413462" stop-color="#957DAD" stop-opacity="0.708578"/>
<stop offset="0.625" stop-color="white" stop-opacity="0"/>
</linearGradient>
<linearGradient id="paint1_linear_2143_30425" x1="280.644" y1="164.056" x2="280.644" y2="104.192" gradientUnits="userSpaceOnUse">
<stop stop-color="#008851"/>
<stop offset="0.34" stop-color="#038B53"/>
<stop offset="0.6" stop-color="#0C955B"/>
<stop offset="0.83" stop-color="#1CA567"/>
<stop offset="1" stop-color="#2BB673"/>
</linearGradient>
<linearGradient id="paint2_linear_2143_30425" x1="280.608" y1="178" x2="280.608" y2="167.269" gradientUnits="userSpaceOnUse">
<stop stop-color="#008851"/>
<stop offset="0.34" stop-color="#038B53"/>
<stop offset="0.6" stop-color="#0C955B"/>
<stop offset="0.83" stop-color="#1CA567"/>
<stop offset="1" stop-color="#2BB673"/>
</linearGradient>
<linearGradient id="paint3_linear_2143_30425" x1="279.6" y1="150.165" x2="279.6" y2="147.656" gradientUnits="userSpaceOnUse">
<stop stop-color="#F9ED32"/>
<stop offset="0.3" stop-color="#F9EA33"/>
<stop offset="0.53" stop-color="#F9E035"/>
<stop offset="0.75" stop-color="#FACF39"/>
<stop offset="0.94" stop-color="#FBB83E"/>
<stop offset="1" stop-color="#FBB040"/>
</linearGradient>
<linearGradient id="paint4_linear_2143_30425" x1="276.41" y1="152.13" x2="276.41" y2="149.903" gradientUnits="userSpaceOnUse">
<stop stop-color="#F9ED32"/>
<stop offset="0.3" stop-color="#F9EA33"/>
<stop offset="0.53" stop-color="#F9E035"/>
<stop offset="0.75" stop-color="#FACF39"/>
<stop offset="0.94" stop-color="#FBB83E"/>
<stop offset="1" stop-color="#FBB040"/>
</linearGradient>
<linearGradient id="paint5_linear_2143_30425" x1="276.419" y1="154.848" x2="276.419" y2="147.187" gradientUnits="userSpaceOnUse">
<stop stop-color="#F9ED32"/>
<stop offset="0.3" stop-color="#F9EA33"/>
<stop offset="0.53" stop-color="#F9E035"/>
<stop offset="0.75" stop-color="#FACF39"/>
<stop offset="0.94" stop-color="#FBB83E"/>
<stop offset="1" stop-color="#FBB040"/>
</linearGradient>
<linearGradient id="paint6_linear_2143_30425" x1="275.335" y1="153.962" x2="275.335" y2="145.896" gradientUnits="userSpaceOnUse">
<stop stop-color="#F9ED32"/>
<stop offset="0.3" stop-color="#F9EA33"/>
<stop offset="0.53" stop-color="#F9E035"/>
<stop offset="0.75" stop-color="#FACF39"/>
<stop offset="0.94" stop-color="#FBB83E"/>
<stop offset="1" stop-color="#FBB040"/>
</linearGradient>
<linearGradient id="paint7_linear_2143_30425" x1="277.532" y1="158.33" x2="277.532" y2="151.976" gradientUnits="userSpaceOnUse">
<stop stop-color="#F9ED32"/>
<stop offset="0.3" stop-color="#F9EA33"/>
<stop offset="0.53" stop-color="#F9E035"/>
<stop offset="0.75" stop-color="#FACF39"/>
<stop offset="0.94" stop-color="#FBB83E"/>
<stop offset="1" stop-color="#FBB040"/>
</linearGradient>
<linearGradient id="paint8_linear_2143_30425" x1="286.018" y1="158.331" x2="286.018" y2="145.896" gradientUnits="userSpaceOnUse">
<stop stop-color="#6D6E71"/>
<stop offset="0.23" stop-color="#6B7074"/>
<stop offset="0.42" stop-color="#65757E"/>
<stop offset="0.58" stop-color="#5B7E8F"/>
<stop offset="0.74" stop-color="#4C8AA6"/>
<stop offset="0.88" stop-color="#399AC4"/>
<stop offset="1" stop-color="#27AAE1"/>
</linearGradient>
<linearGradient id="paint9_linear_2143_30425" x1="271.961" y1="144.786" x2="271.961" y2="140.372" gradientUnits="userSpaceOnUse">
<stop stop-color="#8B5E3C"/>
<stop offset="0.4" stop-color="#8E613E"/>
<stop offset="0.71" stop-color="#986B45"/>
<stop offset="0.99" stop-color="#A87B50"/>
<stop offset="1" stop-color="#A97C50"/>
</linearGradient>
<linearGradient id="paint10_linear_2143_30425" x1="272.964" y1="142.492" x2="272.964" y2="135.057" gradientUnits="userSpaceOnUse">
<stop stop-color="#8B5E3C"/>
<stop offset="0.4" stop-color="#8E613E"/>
<stop offset="0.71" stop-color="#986B45"/>
<stop offset="0.99" stop-color="#A87B50"/>
<stop offset="1" stop-color="#A97C50"/>
</linearGradient>
<linearGradient id="paint11_linear_2143_30425" x1="278.155" y1="139.976" x2="278.155" y2="133.021" gradientUnits="userSpaceOnUse">
<stop stop-color="#8B5E3C"/>
<stop offset="0.4" stop-color="#8E613E"/>
<stop offset="0.71" stop-color="#986B45"/>
<stop offset="0.99" stop-color="#A87B50"/>
<stop offset="1" stop-color="#A97C50"/>
</linearGradient>
<linearGradient id="paint12_linear_2143_30425" x1="277.17" y1="144.787" x2="277.17" y2="137.585" gradientUnits="userSpaceOnUse">
<stop stop-color="#8B5E3C"/>
<stop offset="0.4" stop-color="#8E613E"/>
<stop offset="0.71" stop-color="#986B45"/>
<stop offset="0.99" stop-color="#A87B50"/>
<stop offset="1" stop-color="#A97C50"/>
</linearGradient>
<linearGradient id="paint13_linear_2143_30425" x1="285.984" y1="144.787" x2="285.984" y2="141.509" gradientUnits="userSpaceOnUse">
<stop stop-color="#BE1E2D"/>
<stop offset="0.69" stop-color="#E0462A"/>
<stop offset="1" stop-color="#F15A29"/>
</linearGradient>
<linearGradient id="paint14_linear_2143_30425" x1="285.974" y1="139.158" x2="285.974" y2="138.14" gradientUnits="userSpaceOnUse">
<stop stop-color="#BE1E2D"/>
<stop offset="0.69" stop-color="#E0462A"/>
<stop offset="1" stop-color="#F15A29"/>
</linearGradient>
<linearGradient id="paint15_linear_2143_30425" x1="286.006" y1="141.308" x2="286.006" y2="139.891" gradientUnits="userSpaceOnUse">
<stop stop-color="#BE1E2D"/>
<stop offset="0.69" stop-color="#E0462A"/>
<stop offset="1" stop-color="#F15A29"/>
</linearGradient>
<linearGradient id="paint16_linear_2143_30425" x1="283.186" y1="144.787" x2="283.186" y2="133.025" gradientUnits="userSpaceOnUse">
<stop stop-color="#BE1E2D"/>
<stop offset="0.69" stop-color="#E0462A"/>
<stop offset="1" stop-color="#F15A29"/>
</linearGradient>
<linearGradient id="paint17_linear_2143_30425" x1="285.576" y1="137.643" x2="285.576" y2="134.728" gradientUnits="userSpaceOnUse">
<stop stop-color="#BE1E2D"/>
<stop offset="0.69" stop-color="#E0462A"/>
<stop offset="1" stop-color="#F15A29"/>
</linearGradient>
<linearGradient id="paint18_linear_2143_30425" x1="289.293" y1="137.502" x2="289.293" y2="135.468" gradientUnits="userSpaceOnUse">
<stop stop-color="#BE1E2D"/>
<stop offset="0.69" stop-color="#E0462A"/>
<stop offset="1" stop-color="#F15A29"/>
</linearGradient>
<linearGradient id="paint19_linear_2143_30425" x1="288.82" y1="144.787" x2="288.82" y2="135.512" gradientUnits="userSpaceOnUse">
<stop stop-color="#BE1E2D"/>
<stop offset="0.69" stop-color="#E0462A"/>
<stop offset="1" stop-color="#F15A29"/>
</linearGradient>
<linearGradient id="paint20_linear_2143_30425" x1="97" y1="227" x2="169.5" y2="301" gradientUnits="userSpaceOnUse">
<stop stop-color="#957DAD"/>
<stop offset="1" stop-color="#722DB7"/>
</linearGradient>
<linearGradient id="paint21_linear_2143_30425" x1="398.68" y1="227" x2="471.18" y2="301" gradientUnits="userSpaceOnUse">
<stop stop-color="#957DAD"/>
<stop offset="1" stop-color="#722DB7"/>
</linearGradient>
<linearGradient id="paint22_linear_2143_30425" x1="247.844" y1="227" x2="320.344" y2="301" gradientUnits="userSpaceOnUse">
<stop stop-color="#957DAD"/>
<stop offset="1" stop-color="#722DB7"/>
</linearGradient>
</defs>
</svg>
