<svg width="21" height="20" viewBox="0 0 21 20" fill="none" xmlns="http://www.w3.org/2000/svg">
<path d="M12.1162 9.59961C12.5435 9.59961 12.9537 9.76826 13.2578 10.0684L13.2637 10.0742C13.4119 10.2169 13.5298 10.3879 13.6104 10.5771C13.691 10.7666 13.7324 10.9708 13.7324 11.1768C13.7324 11.3825 13.6909 11.5861 13.6104 11.7754C13.5297 11.9648 13.4121 12.1365 13.2637 12.2793L13.2588 12.2832L10.3301 15.1592L7.40137 12.2832L7.39746 12.2793L7.29199 12.167C7.19236 12.0497 7.11128 11.9175 7.05078 11.7754C6.9702 11.586 6.92777 11.3826 6.92773 11.1768C6.92773 10.9708 6.97015 10.7666 7.05078 10.5771C7.13138 10.3879 7.24922 10.2169 7.39746 10.0742L7.40332 10.0684C7.70724 9.76842 8.11694 9.59961 8.54395 9.59961C8.97095 9.59962 9.38066 9.76841 9.68457 10.0684L9.68555 10.0693L9.91016 10.2891L10.3311 10.7031L10.752 10.2891L10.9746 10.0684C11.2787 9.76824 11.689 9.59966 12.1162 9.59961Z" fill="#FACF39" stroke="#FACF39" stroke-width="1.2"/>
<path d="M10.332 0.5C10.4645 0.500056 10.5918 0.552798 10.6855 0.646484L19.6855 9.64648C19.7553 9.71638 19.803 9.80546 19.8223 9.90234C19.8415 9.99932 19.8318 10.1001 19.7939 10.1914C19.7561 10.2828 19.6916 10.3611 19.6094 10.416C19.5273 10.4708 19.4307 10.4999 19.332 10.5H17.832V18C17.832 18.8268 17.1588 19.4999 16.332 19.5H4.33203C3.50519 19.5 2.83204 18.8269 2.83203 18V10.5H1.33203C1.23316 10.5 1.13592 10.471 1.05371 10.416C0.971626 10.3611 0.90794 10.2826 0.870117 10.1914C0.832281 10.1001 0.822513 9.99932 0.841797 9.90234C0.861088 9.80539 0.908629 9.7164 0.978516 9.64648L9.97852 0.646484C10.0723 0.55278 10.1995 0.5 10.332 0.5ZM16.832 8.20801L10.332 1.70801L3.83203 8.20801V18.5H16.833V18L16.832 13V8.20801Z" fill="#FACF39" stroke="#FACF39"/>
</svg>
