<svg width="18" height="18" viewBox="0 0 18 18" fill="none" xmlns="http://www.w3.org/2000/svg">
<path d="M9.09021 4.85352L13.919 13.2179M13.6661 12.7785L1.75994 15.5441L1 14.222L9.34686 5.29296" stroke="black" stroke-width="1.5" stroke-linecap="round" stroke-linejoin="round"/>
<path d="M4.3501 14.9421L5.00613 16.0777C5.24404 16.4853 5.63411 16.7816 6.09054 16.9016C6.31654 16.961 6.55203 16.9753 6.78357 16.9437C7.0151 16.9121 7.23814 16.8352 7.43995 16.7174C7.64177 16.5996 7.8184 16.4432 7.95977 16.2572C8.10114 16.0711 8.20448 15.859 8.26389 15.633C8.3233 15.407 8.33761 15.1715 8.30601 14.94C8.2744 14.7085 8.19751 14.4854 8.07971 14.2836L7.97454 14.1021M9.41806 2.46254V0.892578M15.4313 8.47574H17M1.8374 8.47574H3.40612M4.05589 3.11357L5.16513 4.22406M13.6697 4.22406L14.779 3.11357" stroke="black" stroke-width="1.5" stroke-linecap="round" stroke-linejoin="round"/>
</svg>
