<svg width="20" height="21" viewBox="0 0 20 21" fill="none" xmlns="http://www.w3.org/2000/svg">
<g clip-path="url(#clip0_918_17398)">
<path d="M10.2588 6.28027L15.7688 15.8246M15.4802 15.3231L1.89449 18.4788L1.02734 16.9703L10.5516 6.7817" stroke="black" stroke-width="1.5" stroke-linecap="round" stroke-linejoin="round"/>
<path d="M4.85152 17.7917L5.60009 19.0874C5.87156 19.5525 6.31666 19.8907 6.83747 20.0276C7.09535 20.0953 7.36406 20.1117 7.62825 20.0756C7.89245 20.0396 8.14695 19.9518 8.37723 19.8174C8.60751 19.683 8.80907 19.5045 8.97038 19.2922C9.13169 19.0799 9.24961 18.8379 9.3174 18.58C9.38518 18.3221 9.40151 18.0534 9.36545 17.7892C9.32939 17.525 9.24165 17.2705 9.10723 17.0403L8.98723 16.8331M10.6344 3.55168V1.76025M17.4958 10.4131H19.2858M1.98438 10.4131H3.77437M4.5158 4.29454L5.78152 5.56168M15.4858 5.56168L16.7515 4.29454" stroke="black" stroke-width="1.5" stroke-linecap="round" stroke-linejoin="round"/>
</g>
<defs>
<clipPath id="clip0_918_17398">
<rect width="20" height="20" fill="white" transform="translate(0 0.927246)"/>
</clipPath>
</defs>
</svg>
