<svg width="15" height="16" viewBox="0 0 15 16" fill="none" xmlns="http://www.w3.org/2000/svg">
<path d="M14.125 15.5C12.3889 15.5 10.6736 15.1217 8.97917 14.365C7.28472 13.6083 5.74306 12.5353 4.35417 11.1458C2.96528 9.75639 1.8925 8.21472 1.13583 6.52083C0.379167 4.82694 0.000555556 3.11167 0 1.375C0 1.125 0.0833333 0.916667 0.25 0.75C0.416667 0.583333 0.625 0.5 0.875 0.5H4.25C4.44444 0.5 4.61806 0.566111 4.77083 0.698333C4.92361 0.830555 5.01389 0.986667 5.04167 1.16667L5.58333 4.08333C5.61111 4.30556 5.60417 4.49306 5.5625 4.64583C5.52083 4.79861 5.44444 4.93056 5.33333 5.04167L3.3125 7.08333C3.59028 7.59722 3.92 8.09361 4.30167 8.5725C4.68333 9.05139 5.10361 9.51333 5.5625 9.95833C5.99306 10.3889 6.44444 10.7883 6.91667 11.1567C7.38889 11.525 7.88889 11.8617 8.41667 12.1667L10.375 10.2083C10.5 10.0833 10.6633 9.98972 10.865 9.9275C11.0667 9.86528 11.2644 9.84778 11.4583 9.875L14.3333 10.4583C14.5278 10.5139 14.6875 10.6147 14.8125 10.7608C14.9375 10.9069 15 11.07 15 11.25V14.625C15 14.875 14.9167 15.0833 14.75 15.25C14.5833 15.4167 14.375 15.5 14.125 15.5ZM2.52083 5.5L3.89583 4.125L3.54167 2.16667H1.6875C1.75694 2.73611 1.85417 3.29861 1.97917 3.85417C2.10417 4.40972 2.28472 4.95833 2.52083 5.5ZM9.97917 12.9583C10.5208 13.1944 11.0731 13.3819 11.6358 13.5208C12.1986 13.6597 12.7644 13.75 13.3333 13.7917V11.9583L11.375 11.5625L9.97917 12.9583Z" fill="#6D6E71"/>
</svg>
