<svg width="20" height="17" viewBox="0 0 20 17" fill="none" xmlns="http://www.w3.org/2000/svg">
<path d="M7.81818 0.927246H3.45455C3.06878 0.927246 2.69881 1.08049 2.42603 1.35327C2.15325 1.62605 2 1.99602 2 2.38179V6.74543C2 7.1312 2.15325 7.50117 2.42603 7.77395C2.69881 8.04673 3.06878 8.19997 3.45455 8.19997H7.81818C8.20395 8.19997 8.57392 8.04673 8.8467 7.77395C9.11948 7.50117 9.27273 7.1312 9.27273 6.74543V2.38179C9.27273 1.99602 9.11948 1.62605 8.8467 1.35327C8.57392 1.08049 8.20395 0.927246 7.81818 0.927246ZM7.81818 6.74543H3.45455V2.38179H7.81818V6.74543ZM16.5455 0.927246H12.1818C11.796 0.927246 11.4261 1.08049 11.1533 1.35327C10.8805 1.62605 10.7273 1.99602 10.7273 2.38179V6.74543C10.7273 7.1312 10.8805 7.50117 11.1533 7.77395C11.4261 8.04673 11.796 8.19997 12.1818 8.19997H16.5455C16.9312 8.19997 17.3012 8.04673 17.574 7.77395C17.8468 7.50117 18 7.1312 18 6.74543V2.38179C18 1.99602 17.8468 1.62605 17.574 1.35327C17.3012 1.08049 16.9312 0.927246 16.5455 0.927246ZM16.5455 6.74543H12.1818V2.38179H16.5455V6.74543ZM7.81818 9.65452H3.45455C3.06878 9.65452 2.69881 9.80777 2.42603 10.0805C2.15325 10.3533 2 10.7233 2 11.1091V15.4727C2 15.8585 2.15325 16.2284 2.42603 16.5012C2.69881 16.774 3.06878 16.9272 3.45455 16.9272H7.81818C8.20395 16.9272 8.57392 16.774 8.8467 16.5012C9.11948 16.2284 9.27273 15.8585 9.27273 15.4727V11.1091C9.27273 10.7233 9.11948 10.3533 8.8467 10.0805C8.57392 9.80777 8.20395 9.65452 7.81818 9.65452ZM7.81818 15.4727H3.45455V11.1091H7.81818V15.4727ZM16.5455 9.65452H12.1818C11.796 9.65452 11.4261 9.80777 11.1533 10.0805C10.8805 10.3533 10.7273 10.7233 10.7273 11.1091V15.4727C10.7273 15.8585 10.8805 16.2284 11.1533 16.5012C11.4261 16.774 11.796 16.9272 12.1818 16.9272H16.5455C16.9312 16.9272 17.3012 16.774 17.574 16.5012C17.8468 16.2284 18 15.8585 18 15.4727V11.1091C18 10.7233 17.8468 10.3533 17.574 10.0805C17.3012 9.80777 16.9312 9.65452 16.5455 9.65452ZM16.5455 15.4727H12.1818V11.1091H16.5455V15.4727Z" fill="black"/>
</svg>
