<svg width="14" height="15" viewBox="0 0 14 15" fill="none" xmlns="http://www.w3.org/2000/svg">
<path d="M5.09091 0.926758H1.27273C0.935179 0.926758 0.611456 1.06085 0.372773 1.29953C0.13409 1.53821 0 1.86194 0 2.19949V6.01767C0 6.35522 0.13409 6.67894 0.372773 6.91762C0.611456 7.1563 0.935179 7.29039 1.27273 7.29039H5.09091C5.42846 7.29039 5.75218 7.1563 5.99086 6.91762C6.22955 6.67894 6.36364 6.35522 6.36364 6.01767V2.19949C6.36364 1.86194 6.22955 1.53821 5.99086 1.29953C5.75218 1.06085 5.42846 0.926758 5.09091 0.926758ZM5.09091 6.01767H1.27273V2.19949H5.09091V6.01767ZM12.7273 0.926758H8.90909C8.57154 0.926758 8.24782 1.06085 8.00914 1.29953C7.77046 1.53821 7.63636 1.86194 7.63636 2.19949V6.01767C7.63636 6.35522 7.77046 6.67894 8.00914 6.91762C8.24782 7.1563 8.57154 7.29039 8.90909 7.29039H12.7273C13.0648 7.29039 13.3885 7.1563 13.6272 6.91762C13.8659 6.67894 14 6.35522 14 6.01767V2.19949C14 1.86194 13.8659 1.53821 13.6272 1.29953C13.3885 1.06085 13.0648 0.926758 12.7273 0.926758ZM12.7273 6.01767H8.90909V2.19949H12.7273V6.01767ZM5.09091 8.56312H1.27273C0.935179 8.56312 0.611456 8.69721 0.372773 8.9359C0.13409 9.17458 0 9.4983 0 9.83585V13.654C0 13.9916 0.13409 14.3153 0.372773 14.554C0.611456 14.7927 0.935179 14.9268 1.27273 14.9268H5.09091C5.42846 14.9268 5.75218 14.7927 5.99086 14.554C6.22955 14.3153 6.36364 13.9916 6.36364 13.654V9.83585C6.36364 9.4983 6.22955 9.17458 5.99086 8.9359C5.75218 8.69721 5.42846 8.56312 5.09091 8.56312ZM5.09091 13.654H1.27273V9.83585H5.09091V13.654ZM12.7273 8.56312H8.90909C8.57154 8.56312 8.24782 8.69721 8.00914 8.9359C7.77046 9.17458 7.63636 9.4983 7.63636 9.83585V13.654C7.63636 13.9916 7.77046 14.3153 8.00914 14.554C8.24782 14.7927 8.57154 14.9268 8.90909 14.9268H12.7273C13.0648 14.9268 13.3885 14.7927 13.6272 14.554C13.8659 14.3153 14 13.9916 14 13.654V9.83585C14 9.4983 13.8659 9.17458 13.6272 8.9359C13.3885 8.69721 13.0648 8.56312 12.7273 8.56312ZM12.7273 13.654H8.90909V9.83585H12.7273V13.654Z" fill="white"/>
</svg>
