<svg width="16" height="16" viewBox="0 0 16 16" fill="none" xmlns="http://www.w3.org/2000/svg">
<path d="M11.2002 1.56689C11.2183 1.56714 11.2333 1.58193 11.2334 1.6001V2.6333H13.333C13.9405 2.6333 14.4326 3.12638 14.4326 3.73389V13.3335C14.4326 13.941 13.9405 14.4331 13.333 14.4331H2.66602C2.05869 14.4329 1.56641 13.9409 1.56641 13.3335V3.73389C1.56641 3.1265 2.05868 2.63351 2.66602 2.6333H4.7666V1.6001C4.76667 1.58175 4.78144 1.56689 4.7998 1.56689C4.81814 1.56693 4.83294 1.58177 4.83301 1.6001V2.6333H11.166V1.6001C11.1661 1.58178 11.1818 1.56689 11.2002 1.56689ZM1.63281 13.3335C1.63281 13.904 2.09548 14.3665 2.66602 14.3667H13.333C13.9037 14.3667 14.3662 13.9041 14.3662 13.3335V5.8999H1.63281V13.3335ZM3.7334 12.2339C3.75163 12.2341 3.7666 12.2488 3.7666 12.2671C3.7665 12.2853 3.75157 12.3001 3.7334 12.3003C3.71508 12.3003 3.7003 12.2854 3.7002 12.2671C3.7002 12.2487 3.71502 12.2339 3.7334 12.2339ZM5.86621 12.2339C5.88459 12.2339 5.89941 12.2487 5.89941 12.2671C5.89931 12.2854 5.88453 12.3003 5.86621 12.3003C5.84798 12.3002 5.83311 12.2853 5.83301 12.2671C5.83301 12.2488 5.84792 12.234 5.86621 12.2339ZM8 12.2339C8.01826 12.234 8.0332 12.2488 8.0332 12.2671C8.0331 12.2853 8.0182 12.3002 8 12.3003C7.98168 12.3003 7.9669 12.2854 7.9668 12.2671C7.9668 12.2487 7.98162 12.2339 8 12.2339ZM10.1328 12.2339C10.1512 12.2339 10.166 12.2487 10.166 12.2671C10.1659 12.2854 10.1511 12.3003 10.1328 12.3003C10.1146 12.3002 10.0997 12.2853 10.0996 12.2671C10.0996 12.2488 10.1146 12.234 10.1328 12.2339ZM3.7334 10.1001C3.75157 10.1003 3.76646 10.1151 3.7666 10.1333C3.7666 10.1516 3.75165 10.1663 3.7334 10.1665C3.71499 10.1665 3.7002 10.1517 3.7002 10.1333C3.70034 10.115 3.71508 10.1001 3.7334 10.1001ZM5.86621 10.1001C5.88453 10.1001 5.89927 10.115 5.89941 10.1333C5.89941 10.1517 5.88462 10.1665 5.86621 10.1665C5.84789 10.1664 5.83301 10.1516 5.83301 10.1333C5.83315 10.1151 5.84798 10.1002 5.86621 10.1001ZM8 10.1001C8.0182 10.1002 8.03306 10.1151 8.0332 10.1333C8.0332 10.1516 8.01829 10.1664 8 10.1665C7.98159 10.1665 7.9668 10.1517 7.9668 10.1333C7.96694 10.115 7.98168 10.1001 8 10.1001ZM10.1328 10.1001C10.1511 10.1001 10.1659 10.115 10.166 10.1333C10.166 10.1517 10.1512 10.1665 10.1328 10.1665C10.1145 10.1664 10.0996 10.1516 10.0996 10.1333C10.0997 10.1151 10.1146 10.1002 10.1328 10.1001ZM12.2666 10.1001C12.2848 10.1002 12.2997 10.1151 12.2998 10.1333C12.2998 10.1516 12.2849 10.1664 12.2666 10.1665C12.2482 10.1665 12.2334 10.1517 12.2334 10.1333C12.2335 10.115 12.2483 10.1001 12.2666 10.1001ZM8 7.96729C8.01829 7.96743 8.0332 7.98217 8.0332 8.00049C8.03306 8.01869 8.0182 8.03355 8 8.03369C7.98168 8.03369 7.96694 8.01877 7.9668 8.00049C7.9668 7.98208 7.98159 7.96729 8 7.96729ZM10.1328 7.96729C10.1512 7.96729 10.166 7.98208 10.166 8.00049C10.1659 8.01877 10.1511 8.03369 10.1328 8.03369C10.1146 8.03355 10.0997 8.01869 10.0996 8.00049C10.0996 7.98217 10.1145 7.96743 10.1328 7.96729ZM12.2666 7.96729C12.2849 7.96739 12.2998 7.98217 12.2998 8.00049C12.2997 8.01869 12.2848 8.03359 12.2666 8.03369C12.2483 8.03369 12.2335 8.01875 12.2334 8.00049C12.2334 7.98211 12.2482 7.96729 12.2666 7.96729ZM2.66602 2.70068C2.0955 2.70089 1.63281 3.16333 1.63281 3.73389V5.8335H14.3662V3.73389C14.3662 3.16317 13.9036 2.70068 13.333 2.70068H11.2334V3.73389C11.2332 3.75197 11.2183 3.76685 11.2002 3.76709C11.1819 3.76709 11.1662 3.75212 11.166 3.73389V2.70068H4.83301V3.73389C4.83283 3.75212 4.81807 3.76706 4.7998 3.76709C4.78151 3.76709 4.76678 3.75214 4.7666 3.73389V2.70068H2.66602Z" fill="#18181B" stroke="#18181B"/>
</svg>
