<svg width="14" height="14" viewBox="0 0 14 14" fill="none" xmlns="http://www.w3.org/2000/svg">
<path d="M3.50003 7C3.50003 7.1685 3.51203 7.3375 3.53553 7.503L2.54553 7.6445C2.51494 7.43103 2.49974 7.21565 2.50003 7C2.50003 4.5185 4.51903 2.5 7.00003 2.5C8.02153 2.5 9.02203 2.852 9.81753 3.4905L9.19103 4.2705C8.57129 3.7689 7.79733 3.49672 7.00003 3.5C5.07003 3.5 3.50003 5.07 3.50003 7ZM3.00003 9C3.00003 9.13261 3.05271 9.25979 3.14648 9.35355C3.24025 9.44732 3.36742 9.5 3.50003 9.5C3.63264 9.5 3.75982 9.44732 3.85359 9.35355C3.94735 9.25979 4.00003 9.13261 4.00003 9C4.00003 8.86739 3.94735 8.74021 3.85359 8.64645C3.75982 8.55268 3.63264 8.5 3.50003 8.5C3.36742 8.5 3.24025 8.55268 3.14648 8.64645C3.05271 8.74021 3.00003 8.86739 3.00003 9ZM7.00003 1C10.3085 1 13 3.6915 13 7H14C14 3.14 10.86 0 7.00003 0C6.17853 0 5.37353 0.141 4.60753 0.4195L4.94953 1.3595C5.60686 1.1211 6.30081 0.999438 7.00003 1ZM10 5C10 5.13261 10.0527 5.25979 10.1465 5.35355C10.2402 5.44732 10.3674 5.5 10.5 5.5C10.6326 5.5 10.7598 5.44732 10.8536 5.35355C10.9474 5.25979 11 5.13261 11 5C11 4.86739 10.9474 4.74021 10.8536 4.64645C10.7598 4.55268 10.6326 4.5 10.5 4.5C10.3674 4.5 10.2402 4.55268 10.1465 4.64645C10.0527 4.74021 10 4.86739 10 5ZM3.50003 2C3.63264 2 3.75982 1.94732 3.85359 1.85355C3.94735 1.75979 4.00003 1.63261 4.00003 1.5C4.00003 1.36739 3.94735 1.24021 3.85359 1.14645C3.75982 1.05268 3.63264 1 3.50003 1C3.36742 1 3.24025 1.05268 3.14648 1.14645C3.05271 1.24021 3.00003 1.36739 3.00003 1.5C3.00003 1.63261 3.05271 1.75979 3.14648 1.85355C3.24025 1.94732 3.36742 2 3.50003 2ZM1.00003 7C1.00003 5.3975 1.62403 3.8905 2.75753 2.7575L2.05003 2.05C1.39781 2.69841 0.88077 3.46982 0.528873 4.31952C0.176977 5.16922 -0.00277634 6.08032 3.24148e-05 7C3.24148e-05 10.86 3.14003 14 7.00003 14V13C3.69153 13 1.00003 10.3085 1.00003 7ZM13.25 11.75C13.25 12.577 12.577 13.25 11.75 13.25C10.923 13.25 10.25 12.577 10.25 11.75C10.25 11.519 10.307 11.303 10.4 11.1075L7.64253 8.3495C7.44753 8.443 7.23103 8.5 7.00003 8.5C6.17303 8.5 5.50003 7.827 5.50003 7C5.50003 6.173 6.17303 5.5 7.00003 5.5C7.82703 5.5 8.50003 6.173 8.50003 7C8.50003 7.231 8.44353 7.447 8.35003 7.6425L11.1075 10.4005C11.3025 10.307 11.519 10.25 11.75 10.25C12.577 10.25 13.25 10.923 13.25 11.75ZM7.00003 7.5C7.27553 7.5 7.50003 7.2755 7.50003 7C7.50003 6.7245 7.27553 6.5 7.00003 6.5C6.72453 6.5 6.50003 6.7245 6.50003 7C6.50003 7.2755 6.72453 7.5 7.00003 7.5ZM12.25 11.75C12.25 11.6173 12.1972 11.4901 12.1033 11.3963C12.0095 11.3026 11.8822 11.2499 11.7495 11.25C11.6169 11.2501 11.4896 11.3028 11.3959 11.3967C11.3021 11.4906 11.2495 11.6178 11.2495 11.7505C11.2496 11.8832 11.3024 12.0104 11.3962 12.1042C11.4901 12.1979 11.6174 12.2506 11.75 12.2505C11.8827 12.2504 12.0099 12.1977 12.1037 12.1038C12.1975 12.0099 12.2501 11.8827 12.25 11.75Z" fill="black"/>
</svg>
