<svg width="45" height="50" viewBox="0 0 45 50" fill="none" xmlns="http://www.w3.org/2000/svg">
<path d="M37.871 30.0005C39.2146 27.5425 39.9147 24.7991 39.9091 22.014C39.9091 12.6173 32.0946 5 22.4545 5C12.8145 5 5.00003 12.6173 5.00003 22.014C4.99278 26.0276 6.44828 29.9132 9.10697 32.978L9.12751 33.003L9.14599 33.023H9.10697L19.4647 43.7418C19.8486 44.1391 20.3119 44.4557 20.826 44.672C21.34 44.8884 21.8941 45 22.454 45C23.014 45 23.568 44.8884 24.0821 44.672C24.5962 44.4557 25.0594 44.1391 25.4434 43.7418L35.8021 33.023H35.7631L35.7795 33.004C35.8535 32.9179 35.9291 32.8292 36.0023 32.7418C36.7147 31.8887 37.3405 30.9713 37.871 30.0005Z" fill="url(#paint0_linear_2800_42619)"/>
<path d="M29.9958 21.985C29.9958 22.4771 29.579 22.8625 29.1067 22.8625H28.2176L28.237 27.2421C28.2426 28.2127 27.4451 29 26.4588 29H17.5565C16.5757 29 15.7782 28.2154 15.7782 27.2503V22.8653H14.8891C14.389 22.8653 14 22.4825 14 21.9877C14 21.7417 14.0834 21.5229 14.2778 21.3316L21.3991 15.2187C21.5936 15.0273 21.8159 15 22.0104 15C22.2049 15 22.4272 15.0547 22.5939 15.1914L29.6902 21.3288C29.9124 21.5202 30.0236 21.7389 29.9958 21.985ZM23.7775 21.1238C23.7775 20.6598 23.5902 20.2147 23.2567 19.8866C22.9232 19.5585 22.4709 19.3741 21.9993 19.3741C21.5277 19.3741 21.0754 19.5585 20.7419 19.8866C20.4084 20.2147 20.2211 20.6598 20.2211 21.1238C20.2211 21.5878 20.4084 22.0329 20.7419 22.361C21.0754 22.6891 21.5277 22.8735 21.9993 22.8735C22.4709 22.8735 22.9232 22.6891 23.2567 22.361C23.5902 22.0329 23.7775 21.5878 23.7775 21.1238ZM21.1102 23.7483C19.8821 23.7483 18.8874 24.727 18.8874 25.9354C18.8874 26.1759 19.0874 26.3728 19.3319 26.3728H24.6666C24.9112 26.3728 25.1112 26.1759 25.1112 25.9354C25.1112 24.727 24.1165 23.7483 22.8884 23.7483H21.1102Z" fill="white"/>
<defs>
<linearGradient id="paint0_linear_2800_42619" x1="22.4545" y1="5" x2="22.4545" y2="45" gradientUnits="userSpaceOnUse">
<stop stop-color="#058D55"/>
<stop offset="1" stop-color="#2BB673"/>
</linearGradient>
</defs>
</svg>
