<svg width="35" height="40" viewBox="0 0 35 40" fill="none" xmlns="http://www.w3.org/2000/svg">
<path d="M32.871 25.0005C34.2146 22.5425 34.9147 19.7991 34.9091 17.014C34.9091 7.61725 27.0946 0 17.4545 0C7.81452 0 2.69125e-05 7.61725 2.69125e-05 17.014C-0.00721742 21.0276 1.44828 24.9132 4.10697 27.978L4.12751 28.003L4.14599 28.023H4.10697L14.4647 38.7418C14.8486 39.1391 15.3119 39.4557 15.826 39.672C16.34 39.8884 16.8941 40 17.454 40C18.014 40 18.568 39.8884 19.0821 39.672C19.5962 39.4557 20.0594 39.1391 20.4434 38.7418L30.8021 28.023H30.7631L30.7795 28.004C30.8535 27.9179 30.9291 27.8292 31.0023 27.7418C31.7147 26.8887 32.3405 25.9713 32.871 25.0005Z" fill="url(#paint0_linear_2797_12143)"/>
<path d="M25.2648 16.5327C25.2648 16.9929 24.867 17.3534 24.4163 17.3534H23.5678L23.5864 21.4494C23.5917 22.3571 22.8307 23.0935 21.8894 23.0935H13.3939C12.458 23.0935 11.697 22.3597 11.697 21.4571V17.356H10.8485C10.3712 17.356 10 16.998 10 16.5352C10 16.3051 10.0795 16.1006 10.2652 15.9216L17.061 10.2045C17.2466 10.0256 17.4587 10 17.6443 10C17.8299 10 18.042 10.0511 18.2011 10.179L24.9731 15.919C25.1852 16.098 25.2913 16.3026 25.2648 16.5327ZM19.3307 15.7273C19.3307 15.2933 19.1519 14.8771 18.8337 14.5702C18.5154 14.2633 18.0838 14.0909 17.6337 14.0909C17.1836 14.0909 16.752 14.2633 16.4338 14.5702C16.1155 14.8771 15.9367 15.2933 15.9367 15.7273C15.9367 16.1613 16.1155 16.5775 16.4338 16.8844C16.752 17.1912 17.1836 17.3636 17.6337 17.3636C18.0838 17.3636 18.5154 17.1912 18.8337 16.8844C19.1519 16.5775 19.3307 16.1613 19.3307 15.7273ZM16.7852 18.1818C15.6133 18.1818 14.664 19.0972 14.664 20.2273C14.664 20.4523 14.8549 20.6364 15.0883 20.6364H20.1792C20.4125 20.6364 20.6034 20.4523 20.6034 20.2273C20.6034 19.0972 19.6542 18.1818 18.4822 18.1818H16.7852Z" fill="white"/>
<defs>
<linearGradient id="paint0_linear_2797_12143" x1="17.4545" y1="0" x2="17.4545" y2="40" gradientUnits="userSpaceOnUse">
<stop stop-color="#058D55"/>
<stop offset="1" stop-color="#2BB673"/>
</linearGradient>
</defs>
</svg>
