<svg width="16" height="18" viewBox="0 0 16 18" fill="none" xmlns="http://www.w3.org/2000/svg">
<path d="M1 3.19341L8.0035 1.14941L15 3.19341V7.38486C15 11.7902 12.1806 15.3124 8.00117 16.705C3.82061 15.3127 1 11.7894 1 7.38291V3.19341Z" stroke="black" stroke-width="1.5" stroke-linejoin="round"/>
<path d="M8.00011 8.5383C9.074 8.5383 9.94455 7.66775 9.94455 6.59386C9.94455 5.51997 9.074 4.64941 8.00011 4.64941C6.92622 4.64941 6.05566 5.51997 6.05566 6.59386C6.05566 7.66775 6.92622 8.5383 8.00011 8.5383Z" stroke="black" stroke-width="1.5" stroke-linecap="round" stroke-linejoin="round"/>
<path d="M11.1109 11.6492C11.1109 10.8241 10.7831 10.0328 10.1997 9.44931C9.61622 8.86586 8.8249 8.53809 7.99978 8.53809C7.17467 8.53809 6.38334 8.86586 5.7999 9.44931C5.21645 10.0328 4.88867 10.8241 4.88867 11.6492" stroke="black" stroke-width="1.5" stroke-linecap="round" stroke-linejoin="round"/>
</svg>
