<svg width="20" height="21" viewBox="0 0 20 21" fill="none" xmlns="http://www.w3.org/2000/svg">
<path d="M11.4292 10.7266C11.7394 10.7266 12.0375 10.8495 12.2583 11.0674L12.2632 11.0723C12.3702 11.1752 12.456 11.2989 12.5142 11.4355C12.5723 11.5723 12.6021 11.7196 12.6021 11.8682C12.602 12.0167 12.5723 12.1641 12.5142 12.3008C12.456 12.4374 12.3702 12.5611 12.2632 12.6641L12.2593 12.668L9.99951 14.8857L7.7417 12.668L7.73682 12.6641L7.66064 12.583C7.58885 12.4985 7.53045 12.4032 7.48682 12.3008C7.42864 12.1641 7.39795 12.0167 7.39795 11.8682C7.39795 11.7196 7.42863 11.5723 7.48682 11.4355C7.545 11.299 7.62982 11.1752 7.73682 11.0723L7.74268 11.0674C7.96333 10.8495 8.26074 10.7266 8.5708 10.7266C8.88093 10.7266 9.17921 10.8495 9.3999 11.0674L9.40088 11.0684L9.57959 11.2441L10.0015 11.6582L10.4214 11.2432L10.6001 11.0674C10.8209 10.8494 11.1189 10.7266 11.4292 10.7266Z" stroke="black" stroke-width="1.2"/>
<path d="M10 3.42725C10.0795 3.42727 10.1557 3.45893 10.2119 3.51514L17.4121 10.7153C17.4539 10.7573 17.4826 10.8106 17.4941 10.8687C17.5057 10.9267 17.4992 10.9868 17.4766 11.0415C17.4539 11.0963 17.4155 11.1433 17.3662 11.1763C17.317 11.2091 17.2594 11.227 17.2002 11.2271H15.9004V17.3276C15.9002 17.9337 15.4059 18.4272 14.7998 18.4272H5.2002C4.59406 18.4272 4.09983 17.9337 4.09961 17.3276V11.2271H2.7998C2.7406 11.227 2.68303 11.2091 2.63379 11.1763C2.58446 11.1433 2.54516 11.0963 2.52246 11.0415C2.49994 10.9868 2.49433 10.9267 2.50586 10.8687C2.51742 10.8105 2.54601 10.7573 2.58789 10.7153L9.78809 3.51514C9.84434 3.45896 9.9205 3.42725 10 3.42725ZM15.2998 9.45166L10 4.15186L4.7002 9.45166V17.8276H15.3008V17.3267L15.2998 13.3267V9.45166Z" fill="black" stroke="black"/>
</svg>
