<svg width="19" height="15" viewBox="0 0 19 15" fill="none" xmlns="http://www.w3.org/2000/svg">
<path fill-rule="evenodd" clip-rule="evenodd" d="M6.53125 5.4C7.00367 5.4 7.45674 5.21036 7.79078 4.87279C8.12483 4.53523 8.3125 4.07739 8.3125 3.6C8.3125 3.12261 8.12483 2.66477 7.79078 2.32721C7.45674 1.98964 7.00367 1.8 6.53125 1.8C6.05883 1.8 5.60576 1.98964 5.27172 2.32721C4.93767 2.66477 4.75 3.12261 4.75 3.6C4.75 4.07739 4.93767 4.53523 5.27172 4.87279C5.60576 5.21036 6.05883 5.4 6.53125 5.4ZM6.53125 7.2C7.47608 7.2 8.38222 6.82071 9.05032 6.14558C9.71842 5.47045 10.0938 4.55478 10.0938 3.6C10.0938 2.64522 9.71842 1.72955 9.05032 1.05442C8.38222 0.379285 7.47608 0 6.53125 0C5.58642 0 4.68028 0.379285 4.01218 1.05442C3.34408 1.72955 2.96875 2.64522 2.96875 3.6C2.96875 4.55478 3.34408 5.47045 4.01218 6.14558C4.68028 6.82071 5.58642 7.2 6.53125 7.2ZM2.93431 10.6632C2.01162 11.3112 1.78125 11.9388 1.78125 12.2304C1.78125 12.7656 2.21113 13.2 2.74075 13.2H10.3218C10.576 13.1994 10.8197 13.097 10.9995 12.9153C11.1793 12.7336 11.2806 12.4874 11.2812 12.2304C11.2812 11.9376 11.0509 11.31 10.1282 10.6632C9.253 10.05 7.97881 9.6 6.53125 9.6C5.08369 9.6 3.8095 10.05 2.93431 10.6632ZM0 12.2304C0 10.0152 2.93906 7.8 6.53125 7.8C7.9325 7.8 9.23638 8.1372 10.3039 8.6808C11.3262 8.0968 12.4819 7.79315 13.6562 7.8C16.5953 7.8 19 9.6456 19 11.4924C19 12.1044 18.7594 12.6914 18.3312 13.1241C17.9029 13.5569 17.3221 13.8 16.7164 13.8H12.5804C12.0864 14.5248 11.2587 15 10.3218 15H2.74075C2.01405 14.9994 1.3173 14.7074 0.803442 14.1881C0.289588 13.6688 0.000628905 12.9647 0 12.2304ZM13.0518 12H16.7164C16.9943 12 17.2188 11.772 17.2188 11.4924C17.2188 11.3688 17.1047 10.926 16.4018 10.4244C15.7439 9.9528 14.7689 9.6 13.6562 9.6C13.0423 9.6 12.4699 9.708 11.97 9.8832C12.5946 10.524 12.9841 11.2584 13.0518 12ZM14.8438 4.2C14.8438 4.51826 14.7186 4.82348 14.4959 5.04853C14.2732 5.27357 13.9712 5.4 13.6562 5.4C13.3413 5.4 13.0393 5.27357 12.8166 5.04853C12.5939 4.82348 12.4688 4.51826 12.4688 4.2C12.4688 3.88174 12.5939 3.57652 12.8166 3.35147C13.0393 3.12643 13.3413 3 13.6562 3C13.9712 3 14.2732 3.12643 14.4959 3.35147C14.7186 3.57652 14.8438 3.88174 14.8438 4.2ZM16.625 4.2C16.625 4.99565 16.3122 5.75871 15.7555 6.32132C15.1987 6.88393 14.4436 7.2 13.6562 7.2C12.8689 7.2 12.1138 6.88393 11.557 6.32132C11.0003 5.75871 10.6875 4.99565 10.6875 4.2C10.6875 3.40435 11.0003 2.64129 11.557 2.07868C12.1138 1.51607 12.8689 1.2 13.6562 1.2C14.4436 1.2 15.1987 1.51607 15.7555 2.07868C16.3122 2.64129 16.625 3.40435 16.625 4.2Z" fill="#6D6E71"/>
</svg>
