<svg width="16" height="17" viewBox="0 0 16 17" fill="none" xmlns="http://www.w3.org/2000/svg">
<path d="M9.4292 8.72559C9.73943 8.72563 10.0375 8.84848 10.2583 9.06641L10.2632 9.07129C10.3702 9.17427 10.456 9.2979 10.5142 9.43457C10.5723 9.57128 10.6021 9.71861 10.6021 9.86719C10.602 10.0158 10.5723 10.1631 10.5142 10.2998C10.456 10.4364 10.3702 10.5601 10.2632 10.6631L10.2593 10.667L7.99951 12.8848L5.7417 10.667L5.73682 10.6631L5.66064 10.582C5.58885 10.4975 5.53045 10.4022 5.48682 10.2998C5.42864 10.1631 5.39795 10.0158 5.39795 9.86719C5.39795 9.71861 5.42863 9.57128 5.48682 9.43457C5.545 9.29798 5.62982 9.17422 5.73682 9.07129L5.74268 9.06641C5.96333 8.84856 6.26074 8.72564 6.5708 8.72559C6.88093 8.72559 7.17921 8.84852 7.3999 9.06641L7.40088 9.06738L7.57959 9.24316L8.00146 9.65723L8.42139 9.24219L8.6001 9.06641C8.82093 8.84844 9.11891 8.72559 9.4292 8.72559Z" stroke="black" stroke-width="1.2"/>
<path d="M8 1.42676C8.07951 1.42678 8.15568 1.45844 8.21191 1.51465L15.4121 8.71484C15.4539 8.75677 15.4826 8.81007 15.4941 8.86816C15.5057 8.92626 15.4992 8.98627 15.4766 9.04102C15.4539 9.09583 15.4155 9.14281 15.3662 9.17578C15.317 9.20866 15.2594 9.22649 15.2002 9.22656H13.9004V15.3271C13.9002 15.9332 13.4059 16.4268 12.7998 16.4268H3.2002C2.59406 16.4268 2.09983 15.9332 2.09961 15.3271V9.22656H0.799805C0.740603 9.22652 0.683034 9.20864 0.633789 9.17578C0.584465 9.14281 0.545163 9.09583 0.522461 9.04102C0.499937 8.98634 0.494325 8.92617 0.505859 8.86816C0.517422 8.81004 0.546012 8.75678 0.587891 8.71484L7.78809 1.51465C7.84434 1.45848 7.9205 1.42676 8 1.42676ZM13.2998 7.45117L8 2.15137L2.7002 7.45117V15.8271H13.3008V15.3262L13.2998 11.3262V7.45117Z" fill="black" stroke="black"/>
</svg>
