<svg width="20" height="21" viewBox="0 0 20 21" fill="none" xmlns="http://www.w3.org/2000/svg">
<path d="M2.7998 5.02965L10.0034 2.92725L17.1998 5.02965V9.34085C17.1998 13.872 14.2998 17.4948 10.001 18.9272C5.701 17.4952 2.7998 13.8712 2.7998 9.33885V5.02965Z" stroke="black" stroke-width="1.5" stroke-linejoin="round"/>
<path d="M10 10.5273C11.1046 10.5273 12 9.63191 12 8.52734C12 7.42277 11.1046 6.52734 10 6.52734C8.89543 6.52734 8 7.42277 8 8.52734C8 9.63191 8.89543 10.5273 10 10.5273Z" stroke="black" stroke-width="1.5" stroke-linecap="round" stroke-linejoin="round"/>
<path d="M13.1998 13.7273C13.1998 12.8787 12.8627 12.0647 12.2625 11.4646C11.6624 10.8645 10.8485 10.5273 9.9998 10.5273C9.15111 10.5273 8.33718 10.8645 7.73706 11.4646C7.13695 12.0647 6.7998 12.8787 6.7998 13.7273" stroke="black" stroke-width="1.5" stroke-linecap="round" stroke-linejoin="round"/>
</svg>
