<svg width="43" height="48" viewBox="0 0 43 48" fill="none" xmlns="http://www.w3.org/2000/svg">
<g filter="url(#filter0_d_2445_30118)">
<path d="M36.871 25.0005C38.2146 22.5425 38.9146 19.7991 38.9091 17.014C38.9091 7.61725 31.0946 0 21.4545 0C11.8145 0 4.00003 7.61725 4.00003 17.014C3.99278 21.0276 5.44828 24.9132 8.10697 27.978L8.12751 28.003L8.14599 28.023H8.10697L18.4647 38.7418C18.8486 39.1391 19.3119 39.4557 19.826 39.672C20.34 39.8884 20.8941 40 21.454 40C22.014 40 22.568 39.8884 23.0821 39.672C23.5962 39.4557 24.0594 39.1391 24.4434 38.7418L34.8021 28.023H34.7631L34.7795 28.004L34.7816 28.002C34.8555 27.9159 34.9291 27.8292 35.0023 27.7418C35.7147 26.8887 36.3405 25.9713 36.871 25.0005ZM21.4597 23.5183C19.8258 23.5183 18.2589 22.8856 17.1036 21.7595C15.9483 20.6334 15.2993 19.106 15.2993 17.5134C15.2993 15.9208 15.9483 14.3934 17.1036 13.2673C18.2589 12.1411 19.8258 11.5084 21.4597 11.5084C23.0935 11.5084 24.6604 12.1411 25.8158 13.2673C26.9711 14.3934 27.6201 15.9208 27.6201 17.5134C27.6201 19.106 26.9711 20.6334 25.8158 21.7595C24.6604 22.8856 23.0935 23.5183 21.4597 23.5183Z" fill="url(#paint0_linear_2445_30118)"/>
<path d="M21.4597 23.5183C19.8258 23.5183 18.2589 22.8856 17.1036 21.7595C15.9483 20.6334 15.2993 19.106 15.2993 17.5134C15.2993 15.9208 15.9483 14.3934 17.1036 13.2673C18.2589 12.1411 19.8258 11.5084 21.4597 11.5084C23.0935 11.5084 24.6604 12.1411 25.8158 13.2673C26.9711 14.3934 27.6201 15.9208 27.6201 17.5134C27.6201 19.106 26.9711 20.6334 25.8158 21.7595C24.6604 22.8856 23.0935 23.5183 21.4597 23.5183Z" fill="url(#paint1_linear_2445_30118)"/>
<path d="M29.0851 17.3558C29.0851 17.816 28.6874 18.1765 28.2366 18.1765H27.3881L27.4067 22.2726C27.412 23.1802 26.651 23.9166 25.7097 23.9166H17.2143C16.2783 23.9166 15.5173 23.1828 15.5173 22.2802V18.1791H14.6688C14.1915 18.1791 13.8203 17.8211 13.8203 17.3583C13.8203 17.1282 13.8999 16.9237 14.0855 16.7447L20.8813 11.0277C21.0669 10.8487 21.279 10.8231 21.4646 10.8231C21.6502 10.8231 21.8624 10.8743 22.0215 11.0021L28.7934 16.7422C29.0055 16.9211 29.1116 17.1257 29.0851 17.3558ZM23.151 16.5504C23.151 16.1164 22.9722 15.7002 22.654 15.3933C22.3357 15.0864 21.9041 14.914 21.454 14.914C21.004 14.914 20.5723 15.0864 20.2541 15.3933C19.9358 15.7002 19.7571 16.1164 19.7571 16.5504C19.7571 16.9844 19.9358 17.4006 20.2541 17.7075C20.5723 18.0144 21.004 18.1868 21.454 18.1868C21.9041 18.1868 22.3357 18.0144 22.654 17.7075C22.9722 17.4006 23.151 16.9844 23.151 16.5504ZM20.6055 19.0049C19.4336 19.0049 18.4843 19.9203 18.4843 21.0504C18.4843 21.2754 18.6752 21.4595 18.9086 21.4595H23.9995C24.2328 21.4595 24.4237 21.2754 24.4237 21.0504C24.4237 19.9203 23.4745 19.0049 22.3025 19.0049H20.6055Z" fill="white"/>
</g>
<defs>
<filter id="filter0_d_2445_30118" x="0" y="0" width="42.9062" height="48" filterUnits="userSpaceOnUse" color-interpolation-filters="sRGB">
<feFlood flood-opacity="0" result="BackgroundImageFix"/>
<feColorMatrix in="SourceAlpha" type="matrix" values="0 0 0 0 0 0 0 0 0 0 0 0 0 0 0 0 0 0 127 0" result="hardAlpha"/>
<feOffset dy="4"/>
<feGaussianBlur stdDeviation="2"/>
<feComposite in2="hardAlpha" operator="out"/>
<feColorMatrix type="matrix" values="0 0 0 0 0.984314 0 0 0 0 0.690196 0 0 0 0 0.25098 0 0 0 0.4 0"/>
<feBlend mode="normal" in2="BackgroundImageFix" result="effect1_dropShadow_2445_30118"/>
<feBlend mode="normal" in="SourceGraphic" in2="effect1_dropShadow_2445_30118" result="shape"/>
</filter>
<linearGradient id="paint0_linear_2445_30118" x1="21.4545" y1="0" x2="21.4545" y2="40" gradientUnits="userSpaceOnUse">
<stop stop-color="#C76E00"/>
<stop offset="1" stop-color="#FFB343"/>
</linearGradient>
<linearGradient id="paint1_linear_2445_30118" x1="21.4545" y1="0" x2="21.4545" y2="40" gradientUnits="userSpaceOnUse">
<stop stop-color="#C76E00"/>
<stop offset="1" stop-color="#FFB343"/>
</linearGradient>
</defs>
</svg>
