<svg width="45" height="50" viewBox="0 0 45 50" fill="none" xmlns="http://www.w3.org/2000/svg">
<path d="M37.871 30.0005C39.2146 27.5425 39.9147 24.7991 39.9091 22.014C39.9091 12.6173 32.0946 5 22.4545 5C12.8145 5 5.00003 12.6173 5.00003 22.014C4.99278 26.0276 6.44828 29.9132 9.10697 32.978L9.12751 33.003L9.14599 33.023H9.10697L19.4647 43.7418C19.8486 44.1391 20.3119 44.4557 20.826 44.672C21.34 44.8884 21.8941 45 22.454 45C23.014 45 23.568 44.8884 24.0821 44.672C24.5962 44.4557 25.0594 44.1391 25.4434 43.7418L35.8021 33.023H35.7631L35.7795 33.004C35.8535 32.9179 35.9291 32.8292 36.0023 32.7418C36.7147 31.8887 37.3405 30.9713 37.871 30.0005Z" fill="url(#paint0_linear_2800_42623)"/>
<path d="M30.0866 21.985C30.0866 22.4771 29.6699 22.8625 29.1975 22.8625H28.3084L28.3278 27.2421C28.3334 28.2127 27.536 29 26.5496 29H17.6473C16.6665 29 15.8691 28.2154 15.8691 27.2503V22.8653H14.9799C14.4798 22.8653 14.0908 22.4825 14.0908 21.9877C14.0908 21.7417 14.1742 21.5229 14.3687 21.3316L21.49 15.2187C21.6845 15.0273 21.9067 15 22.1012 15C22.2957 15 22.518 15.0547 22.6847 15.1914L29.781 21.3288C30.0033 21.5202 30.1144 21.7389 30.0866 21.985ZM23.8684 21.1238C23.8684 20.6598 23.681 20.2147 23.3475 19.8866C23.014 19.5585 22.5617 19.3741 22.0901 19.3741C21.6185 19.3741 21.1662 19.5585 20.8327 19.8866C20.4992 20.2147 20.3119 20.6598 20.3119 21.1238C20.3119 21.5878 20.4992 22.0329 20.8327 22.361C21.1662 22.6891 21.6185 22.8735 22.0901 22.8735C22.5617 22.8735 23.014 22.6891 23.3475 22.361C23.681 22.0329 23.8684 21.5878 23.8684 21.1238ZM21.201 23.7483C19.9729 23.7483 18.9782 24.727 18.9782 25.9354C18.9782 26.1759 19.1782 26.3728 19.4228 26.3728H24.7575C25.002 26.3728 25.202 26.1759 25.202 25.9354C25.202 24.727 24.2073 23.7483 22.9792 23.7483H21.201Z" fill="white"/>
<defs>
<linearGradient id="paint0_linear_2800_42623" x1="22.4545" y1="5" x2="22.4545" y2="45" gradientUnits="userSpaceOnUse">
<stop stop-color="#C76E00"/>
<stop offset="1" stop-color="#FFB343"/>
</linearGradient>
</defs>
</svg>
