<svg width="16" height="14" viewBox="0 0 16 14" fill="none" xmlns="http://www.w3.org/2000/svg">
<path d="M12.9752 0.734263C13.4976 1.13245 13.8576 1.77563 14.0048 2.44913L14.0568 2.46935L15.6928 3.20508C15.7842 3.24597 15.8616 3.3114 15.9161 3.39366C15.9705 3.47591 15.9996 3.57157 16 3.66938V13.2874C15.9994 13.3673 15.9798 13.446 15.9427 13.5173C15.9056 13.5886 15.852 13.6505 15.7861 13.6983C15.7202 13.7461 15.6438 13.7784 15.563 13.7926C15.4821 13.8069 15.3989 13.8027 15.32 13.7805L10.7848 12.5362L5.3928 13.9812C5.29554 14.0073 5.19266 14.0062 5.096 13.978L0.3792 12.6131C0.270177 12.582 0.174392 12.5175 0.106076 12.4293C0.0377608 12.341 0.000559728 12.2336 0 12.1232L0 2.33248C0 1.99028 0.3424 1.74452 0.684 1.84096L5.2456 3.13275L7.564 2.44291C7.596 2.43358 7.62853 2.4271 7.6616 2.42347C7.7512 1.91328 8.0016 1.42332 8.4216 0.945802C8.92 0.378067 9.7944 0.0452033 10.6464 0.00553962C11.5304 -0.0356795 12.2056 0.147862 12.9744 0.733485M1.0664 3.0192V11.7413L4.9624 12.8682V4.12123L1.0664 3.0192ZM7.6336 3.49672L6.0288 3.97346V12.7454L10.0808 11.6612V9.09863C10.0808 8.81554 10.32 8.58612 10.6144 8.58612C10.9088 8.58612 11.1472 8.81554 11.1472 9.09941V11.5702L14.9336 12.6085V3.99524L14.0376 3.59083C14.0227 3.67637 14.0032 3.76011 13.9792 3.84203C13.8059 4.4386 13.514 4.99637 13.12 5.48379L11.1384 7.88928C11.0862 7.95253 11.0196 8.00307 10.9438 8.03688C10.868 8.07069 10.7851 8.08684 10.7018 8.08405C10.6184 8.08125 10.5369 8.05959 10.4637 8.02078C10.3905 7.98198 10.3276 7.92709 10.28 7.8605L8.428 5.25281C8.12187 4.83855 7.90827 4.46628 7.7872 4.13601C7.71108 3.92931 7.65955 3.71482 7.6336 3.49672ZM10.6976 1.03057C10.1168 1.05779 9.52 1.28489 9.236 1.60764C8.8944 1.9965 8.7264 2.36047 8.6928 2.72911C8.6528 3.17319 8.68 3.48661 8.7936 3.79692C8.8776 4.02635 9.0448 4.31722 9.3032 4.66797L10.752 6.70715L12.28 4.85229C12.5885 4.46943 12.817 4.03167 12.9528 3.56361C13.1448 2.91032 12.8552 1.95062 12.3128 1.53842C11.7568 1.11457 11.3368 1.00024 10.6984 1.03057M10.8088 1.57264C11.692 1.57264 12.4088 2.26093 12.4088 3.1102C12.406 3.52026 12.236 3.91249 11.936 4.20078C11.636 4.48906 11.2306 4.64982 10.8088 4.64775C9.9256 4.64775 9.2088 3.95946 9.2088 3.1102C9.2088 2.26093 9.9256 1.57264 10.8088 1.57264ZM10.8088 2.59768C10.7391 2.59727 10.6701 2.6102 10.6056 2.63573C10.5411 2.66127 10.4824 2.69891 10.4328 2.7465C10.3833 2.79409 10.3438 2.85071 10.3168 2.91311C10.2898 2.97551 10.2756 3.04248 10.2752 3.1102C10.2752 3.39328 10.5144 3.62271 10.8088 3.62271C10.8785 3.62302 10.9475 3.60999 11.012 3.58436C11.0764 3.55873 11.1351 3.521 11.1846 3.47334C11.234 3.42568 11.2734 3.369 11.3003 3.30656C11.3273 3.24412 11.3413 3.17713 11.3416 3.10942C11.3405 2.97293 11.2839 2.84243 11.184 2.7465C11.0841 2.65057 10.9492 2.59706 10.8088 2.59768Z" fill="black"/>
</svg>
