<svg width="20" height="21" viewBox="0 0 20 21" fill="none" xmlns="http://www.w3.org/2000/svg">
<path d="M14.6821 3.78671C15.2262 4.21334 15.6012 4.90246 15.7545 5.62407L15.8086 5.64574L17.5127 6.43401C17.6079 6.47783 17.6885 6.54793 17.7452 6.63606C17.8019 6.72419 17.8322 6.82669 17.8326 6.93147V17.2365C17.832 17.3221 17.8116 17.4064 17.7729 17.4828C17.7343 17.5592 17.6785 17.6256 17.6098 17.6768C17.5412 17.7279 17.4617 17.7625 17.3774 17.7778C17.2932 17.7931 17.2066 17.7886 17.1244 17.7648L12.4006 16.4316L6.78431 17.9798C6.68301 18.0078 6.57585 18.0067 6.47517 17.9765L1.56221 16.5141C1.44865 16.4807 1.34888 16.4116 1.27772 16.3171C1.20657 16.2225 1.16782 16.1075 1.16724 15.9891V5.49908C1.16724 5.13244 1.52388 4.86913 1.87968 4.97245L6.63099 6.35652L9.04581 5.61741C9.07914 5.60741 9.11303 5.60046 9.14747 5.59657C9.2408 5.04995 9.50161 4.52499 9.93908 4.01336C10.4582 3.40507 11.369 3.04843 12.2564 3.00594C13.1772 2.96177 13.8804 3.15842 14.6812 3.78588M2.27799 6.23486V15.58L6.33601 16.7874V7.4156L2.27799 6.23486ZM9.1183 6.74649L7.44676 7.25728V16.6557L11.6673 15.4942V12.7485C11.6673 12.4452 11.9164 12.1994 12.2231 12.1994C12.5297 12.1994 12.778 12.4452 12.778 12.7494V15.3967L16.7219 16.5091V7.28061L15.7886 6.84731C15.7731 6.93897 15.7528 7.02869 15.7278 7.11646C15.5473 7.75564 15.2432 8.35325 14.8329 8.87549L12.7689 11.4528C12.7145 11.5206 12.6451 11.5747 12.5662 11.6109C12.4872 11.6472 12.4009 11.6645 12.3141 11.6615C12.2273 11.6585 12.1424 11.6353 12.0661 11.5937C11.9898 11.5521 11.9243 11.4933 11.8748 11.422L9.94574 8.62801C9.62688 8.18416 9.4044 7.7853 9.27829 7.43144C9.19901 7.20997 9.14533 6.98016 9.1183 6.74649ZM12.3097 4.10419C11.7048 4.13335 11.0832 4.37667 10.7873 4.72247C10.4315 5.13911 10.2566 5.52908 10.2216 5.92405C10.1799 6.39985 10.2082 6.73565 10.3265 7.06813C10.414 7.31394 10.5882 7.62559 10.8573 8.00139L12.3664 10.1862L13.9579 8.19888C14.2792 7.78868 14.5173 7.31964 14.6587 6.81815C14.8587 6.1182 14.5571 5.08995 13.9921 4.64831C13.413 4.19418 12.9755 4.07169 12.3106 4.10419M12.4256 4.68498C13.3455 4.68498 14.0921 5.42242 14.0921 6.33235C14.0892 6.7717 13.9121 7.19196 13.5997 7.50083C13.2872 7.80971 12.8649 7.98195 12.4256 7.97973C11.5056 7.97973 10.759 7.24228 10.759 6.33235C10.759 5.42242 11.5056 4.68498 12.4256 4.68498ZM12.4256 5.78323C12.353 5.78279 12.2811 5.79664 12.2139 5.824C12.1467 5.85136 12.0855 5.89169 12.0339 5.94268C11.9823 5.99367 11.9413 6.05433 11.9131 6.12119C11.8849 6.18805 11.8702 6.2598 11.8698 6.33235C11.8698 6.63566 12.1189 6.88148 12.4256 6.88148C12.4981 6.88181 12.57 6.86784 12.6372 6.84038C12.7043 6.81292 12.7654 6.7725 12.8169 6.72144C12.8685 6.67037 12.9094 6.60965 12.9375 6.54275C12.9656 6.47584 12.9802 6.40407 12.9805 6.33152C12.9794 6.18529 12.9204 6.04546 12.8164 5.94268C12.7123 5.8399 12.5718 5.78256 12.4256 5.78323Z" fill="black"/>
</svg>
