<svg width="20" height="21" viewBox="0 0 20 21" fill="none" xmlns="http://www.w3.org/2000/svg">
<path d="M17.5006 15.4652C16.8898 14.8498 15.4105 13.9518 14.6928 13.5899C13.7582 13.1192 13.6813 13.0807 12.9466 13.6264C12.4566 13.9907 12.1309 14.316 11.5574 14.1937C10.9839 14.0714 9.73772 13.3818 8.64654 12.2942C7.55535 11.2065 6.82572 9.92429 6.70303 9.35278C6.58033 8.78126 6.91111 8.45935 7.27189 7.96822C7.78036 7.27594 7.7419 7.16056 7.30727 6.22599C6.96842 5.4991 6.04417 4.03378 5.42646 3.42611C4.76567 2.77345 4.76567 2.88882 4.33989 3.06574C3.99324 3.21155 3.66069 3.38882 3.34641 3.59533C2.73101 4.00416 2.38946 4.34376 2.15061 4.85412C1.91176 5.36449 1.80445 6.56097 3.03794 8.80165C4.27143 11.0423 5.13683 12.188 6.92803 13.9741C8.71923 15.7602 10.0966 16.7205 12.1101 17.8497C14.6009 19.2447 15.5563 18.9727 16.0683 18.7343C16.5802 18.4958 16.9214 18.1574 17.331 17.542C17.538 17.2283 17.7157 16.8961 17.8618 16.5498C18.0391 16.1256 18.1545 16.1256 17.5006 15.4652Z" stroke="black" stroke-width="1.2" stroke-miterlimit="10"/>
<rect x="15.2095" y="2.92773" width="2" height="6" rx="1" stroke="black"/>
<rect x="15.4595" y="10.1895" width="1.5" height="1.5" rx="0.5" stroke="black"/>
</svg>
