<svg width="525" height="712" viewBox="0 0 525 712" fill="none" xmlns="http://www.w3.org/2000/svg">
<path d="M268.668 84.0169C296.066 116.431 330.152 149.202 367.906 181.258V151.364C367.903 150.274 368.126 149.195 368.562 148.188C368.998 147.181 369.64 146.266 370.448 145.495C371.256 144.725 372.216 144.114 373.272 143.699C374.329 143.283 375.461 143.07 376.604 143.073H407.672C408.815 143.07 409.947 143.283 411.004 143.699C412.06 144.114 413.02 144.725 413.829 145.495C414.637 146.266 415.277 147.181 415.714 148.188C416.15 149.195 416.373 150.274 416.371 151.364V220.591C439.859 238.885 517.541 295.306 517.699 295.421C521.61 298.282 524.176 302.501 524.834 307.159C525.492 311.816 524.189 316.532 521.211 320.277C518.212 324.02 513.776 326.475 508.879 327.103C503.982 327.73 499.024 326.479 495.094 323.623L467.157 303.304V691.446C467.157 702.491 458.203 711.446 447.157 711.446H78.1569C67.1113 711.446 58.157 702.491 58.1569 691.446V303.427C58.0872 303.353 58.0412 303.305 58.0221 303.281L30.5846 323.266C28.6539 324.802 26.4167 325.95 24.0085 326.64C21.6002 327.33 19.0702 327.549 16.571 327.283C14.0718 327.016 11.6545 326.271 9.46549 325.091C7.27658 323.911 5.36113 322.321 3.83366 320.417C2.30616 318.513 1.19769 316.335 0.576823 314.012C-0.0440254 311.689 -0.165092 309.27 0.220378 306.902C0.605852 304.533 1.49011 302.263 2.81999 300.229C4.14995 298.194 5.89866 296.437 7.95964 295.064C8.21412 294.872 201.599 148.764 256.3 84.0169H268.668ZM387.58 0.00421071C387.892 -0.0139585 388.204 0.0267804 388.5 0.124328C388.756 0.163862 389.003 0.246461 389.229 0.368469C393.137 3.05423 396.545 6.3465 399.309 10.1077C402.084 13.8051 404.313 17.8479 405.936 22.1224C406.774 24.3466 407.433 26.6284 407.909 28.9476C408.458 31.422 408.769 33.9396 408.837 36.4681C409.057 42.0542 408.139 47.628 406.133 52.8812C403.85 58.7727 400.076 64.0362 395.147 68.2044C390.332 72.2206 384.596 75.1062 378.4 76.6282C373.085 77.9145 367.608 78.4903 362.127 78.3392C357.336 78.2436 352.554 77.8852 347.806 77.2669C345.538 76.9661 343.289 76.6463 341.12 76.2327L339.482 75.9319L337.944 75.5745L335.202 75.0296C333.367 74.6348 331.553 74.2967 329.718 73.9583C327.884 73.6199 326.069 73.2816 324.235 72.9808C317.028 71.7109 309.75 70.8315 302.438 70.348C295.295 69.7752 288.104 70.1171 281.056 71.3636C277.658 71.9742 274.374 73.0638 271.312 74.597C269.801 75.3926 268.391 76.3521 267.11 77.4554C266.493 77.9963 265.919 78.5806 265.394 79.2034C264.905 79.7934 264.469 80.4224 264.092 81.0833L263.737 81.6107C263.464 82.0177 263.038 82.3096 262.546 82.4251C262.054 82.5405 261.534 82.4706 261.094 82.2308C260.777 82.0443 260.52 81.7758 260.356 81.4564C260.192 81.137 260.126 80.7796 260.167 80.4261C260.234 79.2595 260.447 78.1039 260.799 76.9847C261.147 75.941 261.576 74.9227 262.081 73.9388C263.127 72.0021 264.412 70.1909 265.907 68.5433C268.923 65.3762 272.437 62.674 276.322 60.5335C283.88 56.4973 292.013 53.5275 300.465 51.7161C308.68 49.9543 317.02 48.7783 325.418 48.1995C327.39 48.0303 329.56 47.9368 331.632 47.8616C333.703 47.7864 335.794 47.692 337.845 47.6732H343.782C345.498 47.6732 347.175 47.5235 348.793 47.3919C354.407 47.0995 359.809 45.2496 364.336 42.0706C365.493 41.1417 366.587 40.1432 367.61 39.0814C368.379 38.3294 369.228 37.8027 370.391 36.6937C373.839 32.91 376.413 28.4768 377.946 23.6829C380.412 17.5161 382.463 10.1835 385.481 1.72296V1.53448C385.581 1.2523 385.739 0.991734 385.945 0.767883C386.151 0.544083 386.402 0.361858 386.682 0.230773C386.963 0.0996865 387.268 0.0223835 387.58 0.00421071Z" fill="white"/>
</svg>
