<svg width="16" height="16" viewBox="0 0 16 16" fill="none" xmlns="http://www.w3.org/2000/svg">
<path d="M14.1765 8H6.35294M12.5294 10.625L15 8L12.5294 5.375M8.41176 3.625V2.75C8.41176 2.28587 8.23824 1.84075 7.92935 1.51256C7.62047 1.18437 7.20153 1 6.76471 1H2.64706C2.21023 1 1.7913 1.18437 1.48241 1.51256C1.17353 1.84075 1 2.28587 1 2.75V13.25C1 13.7141 1.17353 14.1592 1.48241 14.4874C1.7913 14.8156 2.21023 15 2.64706 15H6.76471C7.20153 15 7.62047 14.8156 7.92935 14.4874C8.23824 14.1592 8.41176 13.7141 8.41176 13.25V12.375" stroke="black" stroke-width="1.5" stroke-linecap="round" stroke-linejoin="round"/>
</svg>
