<svg width="20" height="16" viewBox="0 0 20 16" fill="none" xmlns="http://www.w3.org/2000/svg">
<path d="M16.1765 8H8.35294M14.5294 10.625L17 8L14.5294 5.375M10.4118 3.625V2.75C10.4118 2.28587 10.2382 1.84075 9.92935 1.51256C9.62047 1.18437 9.20153 1 8.76471 1H4.64706C4.21023 1 3.7913 1.18437 3.48241 1.51256C3.17353 1.84075 3 2.28587 3 2.75V13.25C3 13.7141 3.17353 14.1592 3.48241 14.4874C3.7913 14.8156 4.21023 15 4.64706 15H8.76471C9.20153 15 9.62047 14.8156 9.92935 14.4874C10.2382 14.1592 10.4118 13.7141 10.4118 13.25V12.375" stroke="black" stroke-width="1.5" stroke-linecap="round" stroke-linejoin="round"/>
</svg>
