<svg width="45" height="50" viewBox="0 0 45 50" fill="none" xmlns="http://www.w3.org/2000/svg">
<path d="M37.871 30.0005C39.2146 27.5425 39.9147 24.7991 39.9091 22.014C39.9091 12.6173 32.0946 5 22.4545 5C12.8145 5 5.00003 12.6173 5.00003 22.014C4.99278 26.0276 6.44828 29.9132 9.10697 32.978L9.12751 33.003L9.14599 33.023H9.10697L19.4647 43.7418C19.8486 44.1391 20.3119 44.4557 20.826 44.672C21.34 44.8884 21.8941 45 22.454 45C23.014 45 23.568 44.8884 24.0821 44.672C24.5962 44.4557 25.0594 44.1391 25.4434 43.7418L35.8021 33.023H35.7631L35.7795 33.004C35.8535 32.9179 35.9291 32.8292 36.0023 32.7418C36.7147 31.8887 37.3405 30.9713 37.871 30.0005Z" fill="url(#paint0_linear_2800_42627)"/>
<path d="M30.1774 21.985C30.1774 22.4771 29.7607 22.8625 29.2883 22.8625H28.3992L28.4187 27.2421C28.4242 28.2127 27.6268 29 26.6404 29H17.7381C16.7573 29 15.9599 28.2154 15.9599 27.2503V22.8653H15.0708C14.5706 22.8653 14.1816 22.4825 14.1816 21.9877C14.1816 21.7417 14.265 21.5229 14.4595 21.3316L21.5808 15.2187C21.7753 15.0273 21.9976 15 22.192 15C22.3865 15 22.6088 15.0547 22.7755 15.1914L29.8718 21.3288C30.0941 21.5202 30.2052 21.7389 30.1774 21.985ZM23.9592 21.1238C23.9592 20.6598 23.7718 20.2147 23.4383 19.8866C23.1049 19.5585 22.6525 19.3741 22.1809 19.3741C21.7093 19.3741 21.257 19.5585 20.9235 19.8866C20.59 20.2147 20.4027 20.6598 20.4027 21.1238C20.4027 21.5878 20.59 22.0329 20.9235 22.361C21.257 22.6891 21.7093 22.8735 22.1809 22.8735C22.6525 22.8735 23.1049 22.6891 23.4383 22.361C23.7718 22.0329 23.9592 21.5878 23.9592 21.1238ZM21.2918 23.7483C20.0637 23.7483 19.069 24.727 19.069 25.9354C19.069 26.1759 19.2691 26.3728 19.5136 26.3728H24.8483C25.0928 26.3728 25.2928 26.1759 25.2928 25.9354C25.2928 24.727 24.2981 23.7483 23.0701 23.7483H21.2918Z" fill="white"/>
<defs>
<linearGradient id="paint0_linear_2800_42627" x1="22.4545" y1="5" x2="22.4545" y2="45" gradientUnits="userSpaceOnUse">
<stop stop-color="#8B0001"/>
<stop offset="1" stop-color="#D65D42"/>
</linearGradient>
</defs>
</svg>
