<svg width="20" height="20" viewBox="0 0 20 20" fill="none" xmlns="http://www.w3.org/2000/svg">
<path d="M2.79688 4.1024L10.0005 2L17.1969 4.1024V8.4136C17.1969 12.9448 14.2969 16.5676 9.99807 18C5.69807 16.568 2.79688 12.944 2.79688 8.4116V4.1024Z" stroke="white" stroke-width="1.5" stroke-linejoin="round"/>
<path d="M10 9.59961C11.1046 9.59961 12 8.70418 12 7.59961C12 6.49504 11.1046 5.59961 10 5.59961C8.89543 5.59961 8 6.49504 8 7.59961C8 8.70418 8.89543 9.59961 10 9.59961Z" stroke="white" stroke-width="1.5" stroke-linecap="round" stroke-linejoin="round"/>
<path d="M13.1969 12.7996C13.1969 11.9509 12.8597 11.137 12.2596 10.5369C11.6595 9.93675 10.8456 9.59961 9.99688 9.59961C9.14818 9.59961 8.33425 9.93675 7.73413 10.5369C7.13402 11.137 6.79688 11.9509 6.79688 12.7996" stroke="white" stroke-width="1.5" stroke-linecap="round" stroke-linejoin="round"/>
</svg>
