<svg width="20" height="20" viewBox="0 0 20 20" fill="none" xmlns="http://www.w3.org/2000/svg">
<path d="M11.7842 9.59961C12.2114 9.59961 12.6217 9.76826 12.9258 10.0684L12.9316 10.0742C13.0798 10.2169 13.1977 10.3879 13.2783 10.5771C13.359 10.7666 13.4004 10.9708 13.4004 11.1768C13.4004 11.3825 13.3589 11.5861 13.2783 11.7754C13.1977 11.9648 13.08 12.1365 12.9316 12.2793L12.9268 12.2832L9.99805 15.1592L7.06934 12.2832L7.06543 12.2793L6.95996 12.167C6.86033 12.0497 6.77925 11.9175 6.71875 11.7754C6.63816 11.586 6.59574 11.3826 6.5957 11.1768C6.5957 10.9708 6.63812 10.7666 6.71875 10.5771C6.79935 10.3879 6.91719 10.2169 7.06543 10.0742L7.07129 10.0684C7.37521 9.76842 7.78491 9.59961 8.21191 9.59961C8.63892 9.59962 9.04863 9.76841 9.35254 10.0684L9.35352 10.0693L9.57812 10.2891L9.99902 10.7031L10.4199 10.2891L10.6426 10.0684C10.9466 9.76824 11.357 9.59966 11.7842 9.59961Z" fill="#0192D4" stroke="#0192D4" stroke-width="1.2"/>
<path d="M10 0.5C10.1325 0.500056 10.2598 0.552798 10.3535 0.646484L19.3535 9.64648C19.4233 9.71638 19.471 9.80547 19.4902 9.90234C19.5095 9.99931 19.4997 10.1001 19.4619 10.1914C19.4241 10.2828 19.3595 10.3611 19.2773 10.416C19.1953 10.4708 19.0987 10.4999 19 10.5H17.5V18C17.5 18.8268 16.8267 19.4999 16 19.5H4C3.17316 19.5 2.50001 18.8269 2.5 18V10.5H1C0.901127 10.5 0.803885 10.471 0.72168 10.416C0.639596 10.3611 0.575909 10.2826 0.538086 10.1914C0.50025 10.1001 0.490482 9.99932 0.509766 9.90234C0.529057 9.80539 0.576597 9.7164 0.646484 9.64648L9.64648 0.646484C9.74024 0.55278 9.86744 0.5 10 0.5ZM16.5 8.20801L10 1.70801L3.5 8.20801V18.5H16.501V18L16.5 13V8.20801Z" fill="#0192D4" stroke="#0192D4"/>
</svg>
