<svg width="21" height="20" viewBox="0 0 21 20" fill="none" xmlns="http://www.w3.org/2000/svg">
<g clip-path="url(#clip0_876_46983)">
<path fill-rule="evenodd" clip-rule="evenodd" d="M7.53906 7.5C8.03634 7.5 8.51326 7.30246 8.86489 6.95083C9.21652 6.59919 9.41406 6.12228 9.41406 5.625C9.41406 5.12772 9.21652 4.65081 8.86489 4.29917C8.51326 3.94754 8.03634 3.75 7.53906 3.75C7.04178 3.75 6.56487 3.94754 6.21324 4.29917C5.86161 4.65081 5.66406 5.12772 5.66406 5.625C5.66406 6.12228 5.86161 6.59919 6.21324 6.95083C6.56487 7.30246 7.04178 7.5 7.53906 7.5ZM7.53906 9.375C8.53362 9.375 9.48745 8.97991 10.1907 8.27665C10.894 7.57339 11.2891 6.61956 11.2891 5.625C11.2891 4.63044 10.894 3.67661 10.1907 2.97335C9.48745 2.27009 8.53362 1.875 7.53906 1.875C6.5445 1.875 5.59067 2.27009 4.88741 2.97335C4.18415 3.67661 3.78906 4.63044 3.78906 5.625C3.78906 6.61956 4.18415 7.57339 4.88741 8.27665C5.59067 8.97991 6.5445 9.375 7.53906 9.375ZM3.75281 12.9825C2.78156 13.6575 2.53906 14.3113 2.53906 14.615C2.53906 15.1725 2.99156 15.625 3.54906 15.625H11.5291C11.7967 15.6243 12.0532 15.5177 12.2425 15.3284C12.4318 15.1392 12.5384 14.8827 12.5391 14.615C12.5391 14.31 12.2966 13.6563 11.3253 12.9825C10.4041 12.3438 9.06281 11.875 7.53906 11.875C6.01531 11.875 4.67406 12.3438 3.75281 12.9825ZM0.664062 14.615C0.664062 12.3075 3.75781 10 7.53906 10C9.01406 10 10.3866 10.3513 11.5103 10.9175C12.5864 10.3092 13.8029 9.99287 15.0391 10C18.1328 10 20.6641 11.9225 20.6641 13.8462C20.6641 14.4838 20.4108 15.0952 19.96 15.546C19.5092 15.9967 18.8978 16.25 18.2603 16.25H13.9066C13.3866 17.005 12.5153 17.5 11.5291 17.5H3.54906C2.78412 17.4993 2.05069 17.1952 1.50979 16.6543C0.968892 16.1134 0.664725 15.3799 0.664062 14.615ZM14.4028 14.375H18.2603C18.5528 14.375 18.7891 14.1375 18.7891 13.8462C18.7891 13.7175 18.6691 13.2563 17.9291 12.7338C17.2366 12.2425 16.2103 11.875 15.0391 11.875C14.3928 11.875 13.7903 11.9875 13.2641 12.17C13.9216 12.8375 14.3316 13.6025 14.4028 14.375ZM16.2891 6.25C16.2891 6.58152 16.1574 6.89946 15.9229 7.13388C15.6885 7.3683 15.3706 7.5 15.0391 7.5C14.7075 7.5 14.3896 7.3683 14.1552 7.13388C13.9208 6.89946 13.7891 6.58152 13.7891 6.25C13.7891 5.91848 13.9208 5.60054 14.1552 5.36612C14.3896 5.1317 14.7075 5 15.0391 5C15.3706 5 15.6885 5.1317 15.9229 5.36612C16.1574 5.60054 16.2891 5.91848 16.2891 6.25ZM18.1641 6.25C18.1641 7.0788 17.8348 7.87366 17.2488 8.45971C16.6627 9.04576 15.8679 9.375 15.0391 9.375C14.2103 9.375 13.4154 9.04576 12.8294 8.45971C12.2433 7.87366 11.9141 7.0788 11.9141 6.25C11.9141 5.4212 12.2433 4.62634 12.8294 4.04029C13.4154 3.45424 14.2103 3.125 15.0391 3.125C15.8679 3.125 16.6627 3.45424 17.2488 4.04029C17.8348 4.62634 18.1641 5.4212 18.1641 6.25Z" fill="#038B53"/>
</g>
<defs>
<clipPath id="clip0_876_46983">
<rect width="20" height="20" fill="white" transform="translate(0.664062)"/>
</clipPath>
</defs>
</svg>
