<svg width="20" height="20" viewBox="0 0 20 20" fill="none" xmlns="http://www.w3.org/2000/svg">
<path d="M10 19H1.81818C1.60119 19 1.39308 18.9138 1.23964 18.7604C1.0862 18.6069 1 18.3988 1 18.1818V10C1 9.783 1.0862 9.5749 1.23964 9.42146C1.39308 9.26802 1.60119 9.18182 1.81818 9.18182H10M10 19V9.18182M10 19H18.1818C18.3988 19 18.6069 18.9138 18.7604 18.7604C18.9138 18.6069 19 18.3988 19 18.1818V10C19 9.783 18.9138 9.5749 18.7604 9.42146C18.6069 9.26802 18.3988 9.18182 18.1818 9.18182H10M14.0909 10V13.2727M10.8182 1.81818V5.09091M5.90909 10V13.2727M4.27273 1.81818V9.18182H15.7273V1.81818C15.7273 1.60119 15.6411 1.39308 15.4876 1.23964C15.3342 1.0862 15.1261 1 14.9091 1H5.09091C4.87391 1 4.66581 1.0862 4.51237 1.23964C4.35893 1.39308 4.27273 1.60119 4.27273 1.81818Z" stroke="#F15A29" stroke-width="1.5"/>
</svg>
