<svg width="16" height="20" viewBox="0 0 16 20" fill="none" xmlns="http://www.w3.org/2000/svg">
<path d="M1.5 3.12676V16.7268C1.5 17.1776 1.6712 17.61 1.97595 17.9288C2.2807 18.2477 2.69402 18.4268 3.125 18.4268H12.875C13.306 18.4268 13.7193 18.2477 14.024 17.9288C14.3288 17.61 14.5 17.1776 14.5 16.7268V6.81746C14.5 6.59098 14.4567 6.3668 14.3727 6.15807C14.2887 5.94933 14.1657 5.76026 14.0109 5.60196L10.4034 1.91126C10.0998 1.60072 9.69209 1.42681 9.2675 1.42676H3.125C2.69402 1.42676 2.2807 1.60586 1.97595 1.92468C1.6712 2.24349 1.5 2.67589 1.5 3.12676Z" stroke="black" stroke-width="1.5" stroke-linecap="round" stroke-linejoin="round"/>
<path d="M9.625 1.42676V4.82676C9.625 5.27763 9.79621 5.71003 10.101 6.02884C10.4057 6.34765 10.819 6.52676 11.25 6.52676H14.5" stroke="black" stroke-width="1.2" stroke-linejoin="round"/>
<path d="M4 4.92676H6.4" stroke="black" stroke-linecap="round"/>
<path d="M4 6.92676H6.4H8" stroke="black" stroke-linecap="round"/>
<path d="M4 8.92676H9.6" stroke="black" stroke-linecap="round"/>
<path d="M4 10.9268H10.4" stroke="black" stroke-linecap="round"/>
<path d="M4 12.9268H7.6" stroke="black" stroke-linecap="round"/>
<path d="M4.7998 14.9268H3.9998" stroke="black" stroke-linecap="round"/>
</svg>
