<svg width="16" height="20" viewBox="0 0 16 20" fill="none" xmlns="http://www.w3.org/2000/svg">
<path d="M6.91014 11.4529C8.74283 11.4529 8.28466 13.1493 6.91014 13.1493C5.53563 13.1493 4.21741 13.6855 3.24549 14.64C2.27356 15.5944 1.72754 16.8889 1.72754 18.2387C1.72754 19.5885 0 20.0385 0 18.2387C0 16.439 0.728031 14.713 2.02393 13.4404C3.31984 12.1678 5.07746 11.4529 6.91014 11.4529ZM6.91014 10.6046C4.04675 10.6046 1.72754 8.3271 1.72754 5.5152C1.72754 2.7033 4.04675 0.425781 6.91014 0.425781C9.77353 0.425781 12.0928 2.7033 12.0928 5.5152C12.0928 8.3271 9.77353 10.6046 6.91014 10.6046ZM6.91014 8.90814C8.81907 8.90814 10.3652 7.3898 10.3652 5.5152C10.3652 3.6406 8.81907 2.12225 6.91014 2.12225C5.00122 2.12225 3.45507 3.6406 3.45507 5.5152C3.45507 7.3898 5.00122 8.90814 6.91014 8.90814ZM9.15162 15.5337C9.04192 15.0814 9.04192 14.6102 9.15162 14.1579C9.26133 13.7056 8.48907 13.9999 8.29476 13.6718C8.10046 13.3438 8.7721 12.2013 9.15853 12.2027C9.54496 12.204 9.67139 13.0085 10.0154 12.6887C10.3594 12.3689 10.7751 12.133 11.229 12C11.6829 11.8669 11.0371 11.3579 11.229 11.0287C11.4209 10.6996 12.7646 10.6996 12.9565 11.0287C13.1484 11.3579 12.497 11.8659 12.9565 12C13.416 12.134 13.8307 12.3732 14.1701 12.6887C14.5096 13.0043 14.4433 12.3673 15.027 12.2027C15.6106 12.0381 16.2632 13.2286 15.8907 13.6718C15.5183 14.115 14.925 13.7056 15.0347 14.1579C15.1445 14.6102 15.1445 15.0814 15.0347 15.5337C14.925 15.986 15.6966 15.692 15.8907 16.0198C16.0849 16.3475 15.4134 17.4903 15.027 17.4889C14.6405 17.4875 14.5141 16.6831 14.1701 17.0029C13.8261 17.3226 13.4104 17.5586 12.9565 17.6916C12.5026 17.8247 13.1484 18.3337 12.9565 18.6629C12.7646 18.992 11.4209 18.992 11.229 18.6629C11.0371 18.3337 11.6829 17.8247 11.229 17.6916C10.7751 17.5586 10.3594 17.3226 10.0154 17.0029C9.67139 16.6831 9.54496 17.4875 9.15853 17.4889C8.7721 17.4903 8.10046 16.3478 8.29476 16.0198C8.48907 15.6917 9.26133 15.986 9.15162 15.5337ZM12.0928 16.1182C12.4364 16.1182 12.7659 15.9841 13.0089 15.7455C13.2519 15.5069 13.3884 15.1832 13.3884 14.8458C13.3884 14.5083 13.2519 14.1847 13.0089 13.9461C12.7659 13.7075 12.4364 13.5734 12.0928 13.5734C11.7491 13.5734 11.4196 13.7075 11.1766 13.9461C10.9336 14.1847 10.7971 14.5083 10.7971 14.8458C10.7971 15.1832 10.9336 15.5069 11.1766 15.7455C11.4196 15.9841 11.7491 16.1182 12.0928 16.1182Z" fill="black"/>
</svg>
