<svg width="16" height="19" viewBox="0 0 16 19" fill="none" xmlns="http://www.w3.org/2000/svg">
<path d="M6.97826 11.3725C8.6964 11.3725 8.26686 12.9797 6.97826 12.9797C5.68965 12.9797 4.45383 13.4876 3.54264 14.3919C2.63146 15.2961 2.11956 16.5225 2.11956 17.8012C2.11956 19.08 0.5 19.5062 0.5 17.8012C0.5 16.0962 1.18253 14.461 2.39744 13.2554C3.61235 12.0498 5.26012 11.3725 6.97826 11.3725ZM6.97826 10.5689C4.29383 10.5689 2.11956 8.41124 2.11956 5.74733C2.11956 3.08343 4.29383 0.925781 6.97826 0.925781C9.66269 0.925781 11.837 3.08343 11.837 5.74733C11.837 8.41124 9.66269 10.5689 6.97826 10.5689ZM6.97826 8.9617C8.76788 8.9617 10.2174 7.52327 10.2174 5.74733C10.2174 3.9714 8.76788 2.53297 6.97826 2.53297C5.18864 2.53297 3.73913 3.9714 3.73913 5.74733C3.73913 7.52327 5.18864 8.9617 6.97826 8.9617ZM9.07964 15.2386C8.9768 14.8101 8.9768 14.3636 9.07964 13.9351C9.18249 13.5067 8.4585 13.7854 8.27634 13.4747C8.09418 13.1639 8.72384 12.0816 9.08612 12.0829C9.4484 12.0841 9.56693 12.8463 9.88943 12.5433C10.2119 12.2404 10.6016 12.0168 11.0272 11.8908C11.4527 11.7647 10.8473 11.2825 11.0272 10.9707C11.2071 10.6588 12.4668 10.6588 12.6467 10.9707C12.8266 11.2825 12.2159 11.7638 12.6467 11.8908C13.0775 12.0178 13.4662 12.2444 13.7845 12.5433C14.1027 12.8423 14.0406 12.2388 14.5878 12.0829C15.1349 11.9269 15.7468 13.0548 15.3976 13.4747C15.0484 13.8945 14.4922 13.5067 14.5951 13.9351C14.6979 14.3636 14.6979 14.8101 14.5951 15.2386C14.4922 15.667 15.2155 15.3885 15.3976 15.699C15.5796 16.0095 14.9501 17.0921 14.5878 17.0908C14.2255 17.0896 14.107 16.3274 13.7845 16.6304C13.462 16.9333 13.0723 17.1569 12.6467 17.2829C12.2212 17.409 12.8266 17.8912 12.6467 18.203C12.4668 18.5149 11.2071 18.5149 11.0272 18.203C10.8473 17.8912 11.4527 17.409 11.0272 17.2829C10.6016 17.1569 10.2119 16.9333 9.88943 16.6304C9.56693 16.3274 9.4484 17.0896 9.08612 17.0908C8.72384 17.0921 8.09418 16.0098 8.27634 15.699C8.4585 15.3883 9.18249 15.667 9.07964 15.2386ZM11.837 15.7922C12.1591 15.7922 12.4681 15.6652 12.6959 15.4392C12.9237 15.2131 13.0516 14.9065 13.0516 14.5869C13.0516 14.2672 12.9237 13.9606 12.6959 13.7345C12.4681 13.5085 12.1591 13.3815 11.837 13.3815C11.5148 13.3815 11.2058 13.5085 10.9781 13.7345C10.7503 13.9606 10.6223 14.2672 10.6223 14.5869C10.6223 14.9065 10.7503 15.2131 10.9781 15.4392C11.2058 15.6652 11.5148 15.7922 11.837 15.7922Z" fill="black"/>
</svg>
