<svg width="18" height="18" viewBox="0 0 18 18" fill="none" xmlns="http://www.w3.org/2000/svg">
<path d="M8.99864 8.6H9.00584M9.64504 12.7472C9.4695 12.9105 9.23839 13.0009 8.99864 13C8.75704 13 8.52584 12.9096 8.35224 12.7464C6.76344 11.2504 4.63464 9.5784 5.67304 7.152C6.23464 5.84 7.58264 5 8.99864 5C10.4146 5 11.7634 5.84 12.3242 7.152C13.361 9.576 11.2378 11.2568 9.64504 12.7472Z" stroke="#6D6E71" stroke-width="1.5" stroke-linecap="round" stroke-linejoin="round"/>
<path d="M15.4 8.2L17 9C17 4.5816 13.4184 1 9 1C5.72 1 2.9 2.9744 1.6656 5.8M2.6 9.8L1 9C1 13.4184 4.5816 17 9 17C12.28 17 15.1 15.0256 16.3344 12.2" stroke="#6D6E71" stroke-width="1.5" stroke-linecap="round" stroke-linejoin="round"/>
</svg>
