<svg width="46" height="50" viewBox="0 0 46 50" fill="none" xmlns="http://www.w3.org/2000/svg">
<path d="M38.598 30.0005C39.9416 27.5425 40.6417 24.7991 40.6361 22.014C40.6361 12.6173 32.8216 5 23.1816 5C13.5416 5 5.72708 12.6173 5.72708 22.014C5.71983 26.0276 7.17533 29.9132 9.83402 32.978L9.85456 33.003L9.87304 33.023H9.83402L20.1917 43.7418C20.5757 44.1391 21.039 44.4557 21.553 44.672C22.0671 44.8884 22.6211 45 23.1811 45C23.741 45 24.2951 44.8884 24.8091 44.672C25.3232 44.4557 25.7865 44.1391 26.1704 43.7418L36.5292 33.023H36.4902L36.5066 33.004C36.5805 32.9179 36.6561 32.8292 36.7294 32.7418C37.4417 31.8887 38.0676 30.9713 38.598 30.0005Z" fill="url(#paint0_linear_2800_42631)"/>
<path d="M30.9958 21.985C30.9958 22.4771 30.579 22.8625 30.1067 22.8625H29.2176L29.237 27.2421C29.2426 28.2127 28.4451 29 27.4588 29H18.5565C17.5757 29 16.7782 28.2154 16.7782 27.2503V22.8653H15.8891C15.389 22.8653 15 22.4825 15 21.9877C15 21.7417 15.0834 21.5229 15.2778 21.3316L22.3991 15.2187C22.5936 15.0273 22.8159 15 23.0104 15C23.2049 15 23.4272 15.0547 23.5939 15.1914L30.6902 21.3288C30.9124 21.5202 31.0236 21.7389 30.9958 21.985ZM24.7775 21.1238C24.7775 20.6598 24.5902 20.2147 24.2567 19.8866C23.9232 19.5585 23.4709 19.3741 22.9993 19.3741C22.5277 19.3741 22.0754 19.5585 21.7419 19.8866C21.4084 20.2147 21.2211 20.6598 21.2211 21.1238C21.2211 21.5878 21.4084 22.0329 21.7419 22.361C22.0754 22.6891 22.5277 22.8735 22.9993 22.8735C23.4709 22.8735 23.9232 22.6891 24.2567 22.361C24.5902 22.0329 24.7775 21.5878 24.7775 21.1238ZM22.1102 23.7483C20.8821 23.7483 19.8874 24.727 19.8874 25.9354C19.8874 26.1759 20.0874 26.3728 20.3319 26.3728H25.6666C25.9112 26.3728 26.1112 26.1759 26.1112 25.9354C26.1112 24.727 25.1165 23.7483 23.8884 23.7483H22.1102Z" fill="white"/>
<defs>
<linearGradient id="paint0_linear_2800_42631" x1="23.1816" y1="5" x2="23.1816" y2="45" gradientUnits="userSpaceOnUse">
<stop stop-color="#686868"/>
<stop offset="1" stop-color="#A7A7A7"/>
</linearGradient>
</defs>
</svg>
