<svg width="43" height="48" viewBox="0 0 43 48" fill="none" xmlns="http://www.w3.org/2000/svg">
<g filter="url(#filter0_d_2445_30120)">
<path d="M36.871 25.0005C38.2146 22.5425 38.9147 19.7991 38.9091 17.014C38.9091 7.61725 31.0946 0 21.4545 0C11.8145 0 4.00003 7.61725 4.00003 17.014C3.99278 21.0276 5.44828 24.9132 8.10697 27.978L8.12751 28.003L8.14599 28.023H8.10697L18.4647 38.7418C18.8486 39.1391 19.3119 39.4557 19.826 39.672C20.34 39.8884 20.8941 40 21.454 40C22.014 40 22.568 39.8884 23.0821 39.672C23.5962 39.4557 24.0594 39.1391 24.4434 38.7418L34.8021 28.023H34.7631L34.7795 28.004L34.7816 28.002C34.8555 27.9159 34.9291 27.8292 35.0023 27.7418C35.7147 26.8887 36.3405 25.9713 36.871 25.0005ZM21.4597 23.5183C19.8258 23.5183 18.2589 22.8856 17.1036 21.7595C15.9483 20.6334 15.2993 19.106 15.2993 17.5134C15.2993 15.9208 15.9483 14.3934 17.1036 13.2673C18.2589 12.1411 19.8258 11.5084 21.4597 11.5084C23.0935 11.5084 24.6604 12.1411 25.8158 13.2673C26.9711 14.3934 27.6201 15.9208 27.6201 17.5134C27.6201 19.106 26.9711 20.6334 25.8158 21.7595C24.6604 22.8856 23.0935 23.5183 21.4597 23.5183Z" fill="url(#paint0_linear_2445_30120)"/>
<path d="M21.4597 23.5183C19.8258 23.5183 18.2589 22.8856 17.1036 21.7595C15.9483 20.6334 15.2993 19.106 15.2993 17.5134C15.2993 15.9208 15.9483 14.3934 17.1036 13.2673C18.2589 12.1411 19.8258 11.5084 21.4597 11.5084C23.0935 11.5084 24.6604 12.1411 25.8158 13.2673C26.9711 14.3934 27.6201 15.9208 27.6201 17.5134C27.6201 19.106 26.9711 20.6334 25.8158 21.7595C24.6604 22.8856 23.0935 23.5183 21.4597 23.5183Z" fill="url(#paint1_linear_2445_30120)"/>
<path d="M29.083 17.3557C29.083 17.816 28.6852 18.1765 28.2345 18.1765H27.386L27.4045 22.2725C27.4099 23.1802 26.6489 23.9165 25.7076 23.9165H17.2121C16.2761 23.9165 15.5152 23.1827 15.5152 22.2802V18.179H14.6667C14.1894 18.179 13.8182 17.8211 13.8182 17.3583C13.8182 17.1282 13.8977 16.9236 14.0833 16.7447L20.8792 11.0276C21.0648 10.8486 21.2769 10.8231 21.4625 10.8231C21.6481 10.8231 21.8602 10.8742 22.0193 11.002L28.7913 16.7421C29.0034 16.9211 29.1095 17.1256 29.083 17.3557ZM23.1489 16.5503C23.1489 16.1163 22.9701 15.7001 22.6518 15.3933C22.3336 15.0864 21.902 14.914 21.4519 14.914C21.0018 14.914 20.5702 15.0864 20.252 15.3933C19.9337 15.7001 19.7549 16.1163 19.7549 16.5503C19.7549 16.9843 19.9337 17.4005 20.252 17.7074C20.5702 18.0143 21.0018 18.1867 21.4519 18.1867C21.902 18.1867 22.3336 18.0143 22.6518 17.7074C22.9701 17.4005 23.1489 16.9843 23.1489 16.5503ZM20.6034 19.0049C19.4314 19.0049 18.4822 19.9202 18.4822 21.0503C18.4822 21.2753 18.6731 21.4594 18.9064 21.4594H23.9974C24.2307 21.4594 24.4216 21.2753 24.4216 21.0503C24.4216 19.9202 23.4724 19.0049 22.3004 19.0049H20.6034Z" fill="white"/>
</g>
<defs>
<filter id="filter0_d_2445_30120" x="0" y="0" width="42.9062" height="48" filterUnits="userSpaceOnUse" color-interpolation-filters="sRGB">
<feFlood flood-opacity="0" result="BackgroundImageFix"/>
<feColorMatrix in="SourceAlpha" type="matrix" values="0 0 0 0 0 0 0 0 0 0 0 0 0 0 0 0 0 0 127 0" result="hardAlpha"/>
<feOffset dy="4"/>
<feGaussianBlur stdDeviation="2"/>
<feComposite in2="hardAlpha" operator="out"/>
<feColorMatrix type="matrix" values="0 0 0 0 0 0 0 0 0 0 0 0 0 0 0 0 0 0 0.25 0"/>
<feBlend mode="normal" in2="BackgroundImageFix" result="effect1_dropShadow_2445_30120"/>
<feBlend mode="normal" in="SourceGraphic" in2="effect1_dropShadow_2445_30120" result="shape"/>
</filter>
<linearGradient id="paint0_linear_2445_30120" x1="21.4545" y1="0" x2="21.4545" y2="40" gradientUnits="userSpaceOnUse">
<stop stop-color="#686868"/>
<stop offset="1" stop-color="#A7A7A7"/>
</linearGradient>
<linearGradient id="paint1_linear_2445_30120" x1="21.4545" y1="0" x2="21.4545" y2="40" gradientUnits="userSpaceOnUse">
<stop stop-color="#686868"/>
<stop offset="1" stop-color="#A7A7A7"/>
</linearGradient>
</defs>
</svg>
