<svg width="280" height="283" viewBox="0 0 280 283" fill="none" xmlns="http://www.w3.org/2000/svg">
<path d="M142.988 44.7395C157.57 61.9904 175.711 79.4317 195.804 96.4924V80.5823C195.802 80.0024 195.921 79.4278 196.153 78.8918C196.385 78.3559 196.726 77.8683 197.156 77.4582C197.586 77.0484 198.097 76.7234 198.659 76.5022C199.221 76.2809 199.824 76.1679 200.432 76.1692H216.968C217.576 76.1679 218.178 76.2811 218.74 76.5022C219.302 76.7235 219.814 77.0483 220.244 77.4582C220.674 77.8683 221.015 78.3559 221.247 78.8918C221.479 79.4278 221.598 80.0024 221.597 80.5823V117.425C234.11 127.171 275.525 157.251 275.525 157.251C277.607 158.774 278.972 161.019 279.322 163.497C279.672 165.976 278.978 168.486 277.393 170.479C275.797 172.471 273.437 173.779 270.831 174.113C268.225 174.447 265.585 173.78 263.494 172.26L248.789 161.565V280.432H30.7889V161.499L16.2772 172.071C15.2497 172.888 14.0589 173.498 12.7772 173.865C11.4956 174.233 10.1493 174.35 8.81921 174.208C7.48912 174.067 6.20298 173.669 5.03796 173.041C3.87291 172.413 2.85289 171.567 2.03991 170.554C1.227 169.541 0.637907 168.381 0.307488 167.145C-0.0229397 165.909 -0.0881046 164.621 0.117058 163.361C0.322207 162.1 0.793172 160.892 1.50085 159.81C2.20867 158.727 3.13932 157.792 4.2362 157.061C4.34511 156.978 107.288 79.2034 136.405 44.7395H142.988ZM206.279 0.00218754C206.445 -0.00742807 206.611 0.0147637 206.768 0.0666407C206.905 0.0876956 207.037 0.131563 207.157 0.196523C209.237 1.62588 211.05 3.37844 212.521 5.38012C213.998 7.34781 215.185 9.49891 216.049 11.7737C216.494 12.9574 216.845 14.1722 217.099 15.4065C217.391 16.7233 217.556 18.0629 217.592 19.4084C217.709 22.3814 217.22 25.348 216.153 28.1438C214.938 31.2792 212.93 34.0807 210.307 36.2991C207.744 38.4365 204.691 39.9724 201.393 40.7825C198.565 41.467 195.65 41.7731 192.732 41.6926C190.183 41.6418 187.638 41.4514 185.111 41.1223C183.904 40.9622 182.706 40.7926 181.552 40.5725L180.681 40.4123L179.862 40.2219L178.402 39.9319C177.426 39.7218 176.46 39.5416 175.484 39.3616C174.508 39.1815 173.542 39.0011 172.566 38.8411C168.73 38.1652 164.857 37.697 160.966 37.4397C157.164 37.1349 153.337 37.3173 149.586 37.9807C147.777 38.3057 146.029 38.8854 144.399 39.7014C143.595 40.1248 142.845 40.6358 142.164 41.2229C141.835 41.5108 141.529 41.822 141.25 42.1536C140.99 42.4674 140.758 42.802 140.557 43.1536L140.368 43.4338C140.223 43.6505 139.996 43.806 139.734 43.8674C139.472 43.9288 139.196 43.8916 138.962 43.7639C138.793 43.6647 138.657 43.5218 138.569 43.3518C138.482 43.1819 138.447 42.992 138.469 42.8039C138.505 42.1831 138.617 41.5676 138.805 40.9719C138.99 40.4168 139.218 39.8752 139.486 39.3518C140.043 38.321 140.727 37.3567 141.523 36.4797C143.129 34.7942 144.999 33.3562 147.066 32.217C151.089 30.0689 155.417 28.4877 159.916 27.5237C164.287 26.586 168.727 25.9606 173.196 25.6526C174.246 25.5625 175.401 25.5129 176.503 25.4729C177.605 25.4329 178.718 25.3823 179.809 25.3723H182.97C183.883 25.3723 184.775 25.2919 185.636 25.2219C188.624 25.0663 191.499 24.0827 193.908 22.3909C194.524 21.8965 195.107 21.3652 195.651 20.8C196.061 20.3998 196.511 20.1189 197.131 19.5286C198.966 17.5149 200.336 15.1561 201.152 12.6047C202.464 9.32271 203.556 5.41996 205.162 0.917227V0.816641C205.215 0.666515 205.299 0.527536 205.409 0.408438C205.519 0.28946 205.652 0.192005 205.802 0.122305C205.951 0.0526893 206.113 0.0118458 206.279 0.00218754Z" fill="url(#paint0_linear_2902_55055)" fill-opacity="0.2"/>
<g filter="url(#filter0_d_2902_55055)">
<path d="M167.178 129.647C167.182 134.023 166.074 138.327 163.958 142.157C163.8 142.444 163.638 142.727 163.47 143.006C158.015 138.966 152.656 134.635 147.996 130.225C148.633 128.827 148.908 127.292 148.797 125.76C148.686 124.228 148.192 122.748 147.361 121.456C146.53 120.165 145.388 119.102 144.04 118.367C142.691 117.631 141.18 117.245 139.644 117.245C138.108 117.245 136.596 117.631 135.248 118.367C133.9 119.102 132.757 120.165 131.926 121.456C131.095 122.748 130.601 124.228 130.49 125.76C130.379 127.292 130.655 128.827 131.291 130.225C126.632 134.635 121.27 138.968 115.807 143.009C113.384 138.973 112.105 134.354 112.109 129.647C112.109 114.93 124.438 103 139.644 103C154.849 103 167.178 114.93 167.178 129.647Z" fill="url(#paint1_linear_2902_55055)"/>
<path d="M163.435 142.999C165.188 144.345 166.519 145.358 166.519 145.358C166.738 145.509 166.925 145.703 167.067 145.928C167.208 146.153 167.303 146.404 167.345 146.667C167.387 146.93 167.375 147.198 167.31 147.456C167.245 147.714 167.128 147.956 166.966 148.167C166.805 148.379 166.602 148.555 166.37 148.685C166.139 148.816 165.883 148.898 165.618 148.927C165.354 148.956 165.086 148.93 164.832 148.853C164.578 148.775 164.342 148.646 164.139 148.474L161.193 146.227C161.133 146.299 144.367 163.676 144.367 163.676C143.756 164.3 143.024 164.795 142.217 165.13C141.403 165.469 140.53 165.643 139.648 165.643C138.766 165.643 137.892 165.469 137.078 165.13C136.273 164.795 135.544 164.301 134.936 163.676C134.936 163.676 118.266 146.434 118.11 146.227L115.221 148.439C115.017 148.609 114.782 148.735 114.528 148.812C114.275 148.888 114.008 148.912 113.745 148.883C113.482 148.853 113.227 148.771 112.997 148.641C112.766 148.51 112.565 148.335 112.404 148.124C112.243 147.914 112.126 147.673 112.061 147.416C111.995 147.16 111.983 146.893 112.023 146.631C112.064 146.369 112.157 146.118 112.297 145.894C112.437 145.669 112.621 145.475 112.838 145.323C112.838 145.323 113.95 144.444 115.724 143.003" fill="white"/>
<path d="M148.823 126.413C148.823 127.729 148.54 129.029 147.992 130.225C145.244 127.66 142.671 124.913 140.29 122.003H138.987C136.783 124.739 133.941 127.234 131.058 129.959C130.528 128.8 130.462 127.772 130.462 126.413C130.444 125.196 130.668 123.988 131.121 122.858C131.574 121.729 132.247 120.7 133.101 119.833C133.955 118.966 134.973 118.278 136.096 117.808C137.218 117.338 138.423 117.096 139.64 117.096C140.858 117.096 142.062 117.338 143.185 117.808C144.308 118.278 145.326 118.966 146.18 119.833C147.034 120.7 147.707 121.729 148.16 122.858C148.613 123.988 148.837 125.196 148.819 126.413H148.823Z" fill="#6D6E71"/>
<path d="M148.002 130.225C147.271 131.826 146.095 133.184 144.614 134.136C143.134 135.088 141.41 135.594 139.65 135.594C137.889 135.594 136.166 135.088 134.685 134.136C133.204 133.184 132.028 131.826 131.297 130.225C134.044 127.66 136.617 124.914 138.997 122.005H140.3C142.681 124.914 145.254 127.66 148.002 130.225Z" fill="#6D6E71"/>
<path d="M166.889 148.108C166.573 148.522 166.106 148.793 165.59 148.862C165.075 148.932 164.553 148.793 164.139 148.478L161.193 146.23C161.133 146.303 144.367 163.679 144.367 163.679C143.756 164.304 143.024 164.798 142.217 165.134C141.403 165.472 140.53 165.647 139.648 165.647C138.766 165.647 137.892 165.472 137.078 165.134C136.273 164.799 135.544 164.304 134.936 163.679C134.936 163.679 118.266 146.438 118.11 146.23L115.221 148.438C115.017 148.608 114.782 148.735 114.528 148.811C114.275 148.887 114.008 148.912 113.745 148.882C113.482 148.853 113.227 148.77 112.997 148.64C112.766 148.51 112.565 148.334 112.404 148.124C112.243 147.913 112.126 147.673 112.061 147.416C111.995 147.159 111.983 146.892 112.023 146.63C112.064 146.369 112.157 146.118 112.297 145.893C112.437 145.668 112.621 145.474 112.838 145.322C112.838 145.322 133.227 129.163 138.991 122.005H140.294C143.179 125.586 146.768 129.207 150.744 132.749V129.446C150.744 129.325 150.768 129.206 150.814 129.095C150.86 128.984 150.927 128.882 151.012 128.797C151.097 128.712 151.198 128.645 151.31 128.599C151.421 128.553 151.54 128.529 151.66 128.53H154.932C155.053 128.529 155.172 128.553 155.283 128.599C155.394 128.645 155.495 128.712 155.581 128.797C155.666 128.882 155.733 128.984 155.779 129.095C155.825 129.206 155.849 129.325 155.848 129.446V137.094C158.324 139.118 166.519 145.362 166.519 145.362C166.931 145.678 167.201 146.144 167.271 146.659C167.34 147.173 167.203 147.694 166.889 148.108Z" fill="white"/>
<path d="M139.4 121.609C139.407 121.48 139.429 121.353 139.466 121.229C139.503 121.114 139.548 121.001 139.601 120.892C139.711 120.678 139.847 120.478 140.004 120.296C140.322 119.946 140.692 119.648 141.101 119.411C141.897 118.965 142.753 118.637 143.644 118.437C144.509 118.242 145.387 118.112 146.271 118.049C146.479 118.03 146.708 118.019 146.926 118.011C147.144 118.003 147.364 117.992 147.58 117.99H148.07H148.205C148.386 117.99 148.563 117.974 148.733 117.959C149.324 117.927 149.893 117.723 150.37 117.371C150.492 117.269 150.607 117.158 150.715 117.041C150.796 116.958 150.885 116.9 151.008 116.777C151.371 116.359 151.642 115.869 151.803 115.34C152.063 114.658 152.279 113.848 152.597 112.913V112.893C152.607 112.862 152.624 112.833 152.645 112.808C152.667 112.783 152.694 112.763 152.723 112.749C152.753 112.734 152.785 112.726 152.818 112.724C152.85 112.722 152.883 112.726 152.914 112.737C152.941 112.741 152.967 112.75 152.991 112.764C153.403 113.061 153.762 113.424 154.053 113.84C154.345 114.248 154.58 114.695 154.751 115.167C154.839 115.413 154.908 115.665 154.958 115.921C155.016 116.195 155.049 116.473 155.056 116.752C155.079 117.369 154.983 117.985 154.772 118.566C154.531 119.217 154.134 119.798 153.614 120.259C153.107 120.702 152.503 121.021 151.851 121.189C151.291 121.331 150.714 121.395 150.137 121.378C149.633 121.368 149.129 121.328 148.629 121.26C148.39 121.227 148.153 121.191 147.925 121.146L147.752 121.113L147.59 121.073L147.302 121.013C147.108 120.969 146.917 120.932 146.724 120.894C146.531 120.857 146.34 120.82 146.147 120.786C145.388 120.646 144.621 120.549 143.851 120.496C143.099 120.432 142.342 120.47 141.6 120.608C141.242 120.675 140.896 120.796 140.573 120.965C140.414 121.053 140.266 121.159 140.131 121.281C140.066 121.341 140.005 121.405 139.95 121.474C139.899 121.539 139.853 121.609 139.813 121.682L139.776 121.74C139.747 121.785 139.702 121.817 139.65 121.83C139.598 121.843 139.544 121.835 139.497 121.808C139.464 121.788 139.437 121.758 139.42 121.723C139.402 121.688 139.395 121.648 139.4 121.609Z" fill="white"/>
<path d="M139.608 178C142.571 178 144.973 175.598 144.973 172.634C144.973 169.671 142.571 167.269 139.608 167.269C136.644 167.269 134.242 169.671 134.242 172.634C134.242 175.598 136.644 178 139.608 178Z" fill="url(#paint2_linear_2902_55055)"/>
<path d="M139.121 147.662V150.171C138.987 149.645 138.739 149.155 138.394 148.736L138.078 148.343L139.121 147.662Z" fill="url(#paint3_linear_2902_55055)"/>
<path d="M136.524 151.015C136.524 151.235 136.459 151.45 136.337 151.634C136.215 151.817 136.042 151.96 135.838 152.045C135.635 152.129 135.411 152.152 135.195 152.109C134.979 152.067 134.78 151.961 134.624 151.806C134.468 151.65 134.362 151.452 134.319 151.236C134.275 151.02 134.297 150.796 134.381 150.593C134.465 150.389 134.607 150.215 134.79 150.092C134.973 149.969 135.188 149.904 135.408 149.903C135.703 149.904 135.986 150.021 136.195 150.229C136.404 150.437 136.522 150.72 136.524 151.015Z" fill="url(#paint4_linear_2902_55055)"/>
<path d="M138.435 150.45C138.332 149.993 138.124 149.566 137.826 149.204L137.247 148.493C137.214 148.453 137.19 148.406 137.176 148.356C137.163 148.306 137.16 148.254 137.168 148.202C137.176 148.151 137.195 148.102 137.224 148.059C137.252 148.015 137.289 147.978 137.332 147.949L138.427 147.232C133.258 146.794 132.479 150.014 132.448 150.155C132.449 150.164 132.449 150.173 132.448 150.182C132.448 150.182 132.448 150.209 132.448 150.211C132.33 150.658 132.32 151.127 132.419 151.578C132.523 152.035 132.731 152.461 133.028 152.824L133.607 153.537C133.64 153.577 133.664 153.625 133.678 153.675C133.692 153.725 133.694 153.778 133.686 153.83C133.667 153.933 133.608 154.024 133.522 154.083L132.843 154.528C132.941 154.636 133.051 154.736 133.148 154.846C137.664 154.935 138.371 152.01 138.4 151.871C138.399 151.861 138.399 151.852 138.4 151.842C138.4 151.842 138.4 151.815 138.4 151.813C138.52 151.368 138.532 150.901 138.435 150.45ZM135.417 152.872C135.05 152.872 134.692 152.763 134.387 152.559C134.082 152.355 133.845 152.065 133.705 151.726C133.564 151.387 133.528 151.014 133.599 150.655C133.671 150.295 133.848 149.965 134.107 149.706C134.366 149.446 134.697 149.27 135.056 149.198C135.416 149.126 135.789 149.163 136.128 149.303C136.467 149.443 136.756 149.681 136.96 149.985C137.164 150.29 137.273 150.648 137.274 151.015C137.27 151.507 137.074 151.977 136.726 152.325C136.379 152.672 135.908 152.869 135.417 152.872Z" fill="url(#paint5_linear_2902_55055)"/>
<path d="M139.119 145.896V146.557C132.74 145.726 131.757 149.82 131.709 150.024C131.558 150.585 131.545 151.174 131.672 151.741C131.8 152.312 132.06 152.845 132.43 153.297L132.746 153.686L132.33 153.958C130.668 151.932 129.694 149.43 129.547 146.814V145.896H139.119Z" fill="url(#paint6_linear_2902_55055)"/>
<path d="M139.131 151.976V158.33C137.231 157.77 135.465 156.831 133.938 155.57C138.339 155.314 139.093 152.184 139.131 152.007V151.976Z" fill="url(#paint7_linear_2902_55055)"/>
<path d="M140.234 145.896V150.242C140.534 150.07 140.867 149.968 141.211 149.94C141.107 149.155 141.312 148.36 141.782 147.722C142.252 147.085 142.95 146.653 143.731 146.519C144.512 146.385 145.314 146.558 145.97 147.002C146.626 147.446 147.084 148.127 147.249 148.902C147.511 149.021 147.755 149.175 147.976 149.359C148.067 149.438 148.123 149.549 148.132 149.669C148.141 149.788 148.102 149.907 148.025 149.998C147.948 150.09 147.837 150.147 147.718 150.158C147.598 150.169 147.479 150.133 147.386 150.057C147.185 149.885 146.952 149.752 146.701 149.666C146.695 149.664 146.688 149.664 146.682 149.666C146.458 149.591 146.223 149.552 145.986 149.552C145.742 149.552 145.499 149.594 145.268 149.675C145.153 149.714 145.027 149.707 144.918 149.654C144.809 149.601 144.726 149.507 144.686 149.392C144.646 149.277 144.654 149.152 144.707 149.043C144.76 148.934 144.854 148.85 144.969 148.81C145.296 148.697 145.64 148.639 145.986 148.64C146.061 148.634 146.136 148.634 146.211 148.64C145.994 148.146 145.6 147.751 145.106 147.534C144.612 147.317 144.054 147.294 143.544 147.47C143.033 147.645 142.608 148.007 142.352 148.482C142.096 148.957 142.028 149.511 142.162 150.034C142.374 150.101 142.576 150.198 142.76 150.323C142.81 150.356 142.853 150.398 142.887 150.447C142.92 150.497 142.944 150.552 142.956 150.611C142.968 150.67 142.968 150.73 142.957 150.789C142.946 150.847 142.923 150.903 142.89 150.953C142.857 151.003 142.815 151.046 142.765 151.08C142.716 151.113 142.66 151.137 142.602 151.149C142.543 151.161 142.483 151.161 142.424 151.15C142.366 151.139 142.31 151.116 142.26 151.083C142.097 150.974 141.914 150.899 141.722 150.861H141.709C141.615 150.843 141.519 150.834 141.423 150.834C141.194 150.834 140.968 150.886 140.763 150.986C140.557 151.086 140.377 151.231 140.236 151.411V153.214C140.304 153.299 140.381 153.377 140.465 153.445C140.513 153.483 140.553 153.531 140.582 153.585C140.611 153.639 140.629 153.699 140.635 153.76C140.641 153.821 140.634 153.883 140.616 153.942C140.597 154 140.567 154.054 140.527 154.101C140.455 154.191 140.351 154.25 140.236 154.265V158.337C142.112 157.782 143.859 156.861 145.376 155.626C145.287 155.622 145.202 155.592 145.13 155.54C145.059 155.488 145.004 155.416 144.972 155.334C144.941 155.251 144.934 155.161 144.953 155.075C144.972 154.988 145.015 154.909 145.079 154.847L145.991 153.935C146.077 153.85 146.193 153.803 146.314 153.803C146.434 153.803 146.55 153.85 146.637 153.935C146.723 154.023 146.772 154.142 146.772 154.265C146.859 154.166 146.944 154.058 147.025 153.964C146.99 153.869 146.989 153.765 147.02 153.669C147.052 153.573 147.115 153.49 147.199 153.434C147.488 153.241 147.724 152.98 147.888 152.674C148.052 152.368 148.138 152.026 148.138 151.679C148.139 151.558 148.187 151.443 148.273 151.357C148.359 151.272 148.475 151.224 148.595 151.224C148.636 151.223 148.676 151.229 148.714 151.243C149.36 149.855 149.73 148.354 149.804 146.825V145.896H140.234ZM141.292 156.139C141.222 156.139 141.154 156.117 141.097 156.077C141.039 156.037 140.996 155.981 140.972 155.915C140.947 155.849 140.944 155.778 140.961 155.711C140.979 155.643 141.017 155.582 141.069 155.537L142.316 154.454H141.277C141.207 154.455 141.139 154.434 141.082 154.394C141.024 154.354 140.98 154.298 140.956 154.232C140.932 154.166 140.928 154.095 140.946 154.027C140.964 153.96 141.002 153.899 141.055 153.854L143.01 152.167C143.043 152.136 143.083 152.112 143.127 152.096C143.17 152.08 143.216 152.073 143.262 152.076C143.308 152.078 143.353 152.09 143.395 152.111C143.436 152.131 143.473 152.16 143.503 152.195C143.533 152.23 143.556 152.27 143.57 152.314C143.584 152.358 143.589 152.405 143.585 152.451C143.58 152.497 143.567 152.541 143.544 152.582C143.522 152.622 143.492 152.658 143.456 152.687L142.197 153.771H143.236C143.306 153.77 143.375 153.791 143.433 153.831C143.49 153.87 143.534 153.927 143.559 153.992C143.584 154.058 143.587 154.13 143.57 154.197C143.552 154.265 143.514 154.326 143.46 154.371L141.506 156.056C141.446 156.107 141.37 156.137 141.292 156.139ZM144.809 155.032L143.897 155.944C143.855 155.987 143.805 156.021 143.749 156.044C143.694 156.067 143.635 156.079 143.575 156.079C143.515 156.079 143.455 156.068 143.4 156.045C143.344 156.021 143.294 155.987 143.253 155.944C143.21 155.902 143.176 155.851 143.152 155.796C143.129 155.74 143.117 155.681 143.117 155.621C143.117 155.561 143.129 155.501 143.152 155.446C143.176 155.39 143.21 155.34 143.253 155.298L144.165 154.386C144.252 154.309 144.365 154.269 144.481 154.273C144.597 154.276 144.708 154.324 144.79 154.407C144.872 154.489 144.919 154.599 144.923 154.716C144.926 154.832 144.885 154.945 144.809 155.032ZM145.723 152.977L144.809 153.891C144.723 153.976 144.607 154.024 144.487 154.024C144.396 154.024 144.308 153.997 144.233 153.947C144.157 153.897 144.099 153.825 144.064 153.742C144.03 153.658 144.021 153.566 144.039 153.477C144.057 153.389 144.1 153.307 144.165 153.243L145.077 152.331C145.163 152.25 145.278 152.205 145.397 152.207C145.516 152.208 145.629 152.256 145.713 152.341C145.798 152.425 145.846 152.538 145.847 152.657C145.849 152.776 145.804 152.891 145.723 152.977Z" fill="url(#paint8_linear_2902_55055)"/>
<path d="M132.367 144.786H129.555V140.372C129.609 140.388 129.666 140.394 129.723 140.391H131.005L132.317 144.655C132.328 144.701 132.344 144.745 132.367 144.786Z" fill="url(#paint9_linear_2902_55055)"/>
<path d="M134.378 135.057C134.363 135.089 134.353 135.124 134.347 135.159L132.714 142.492L131.867 139.731C131.838 139.624 131.772 139.531 131.682 139.467C131.594 139.403 131.487 139.369 131.379 139.37H129.717C129.662 139.369 129.607 139.377 129.555 139.395V135.514C131.174 135.529 132.79 135.376 134.378 135.057Z" fill="url(#paint10_linear_2902_55055)"/>
<path d="M139.122 133.021V139.394C139.07 139.377 139.016 139.369 138.962 139.369H138.808L138.166 137.649C138.126 137.551 138.059 137.466 137.973 137.404C137.887 137.344 137.783 137.314 137.678 137.317C137.57 137.315 137.464 137.349 137.377 137.412C137.286 137.475 137.22 137.568 137.19 137.674L136.471 139.976L135.354 135.146C135.333 135.037 135.274 134.938 135.188 134.868C137.317 134.309 138.53 133.517 139.122 133.021Z" fill="url(#paint11_linear_2902_55055)"/>
<path d="M139.114 140.373V144.787H133.227C133.257 144.736 133.279 144.681 133.291 144.623L134.843 137.585L135.881 142.055C135.904 142.164 135.962 142.261 136.048 142.332C136.134 142.405 136.243 142.448 136.357 142.452C136.47 142.464 136.584 142.432 136.675 142.363C136.768 142.298 136.836 142.203 136.868 142.095L137.699 139.409L137.942 140.065C137.982 140.163 138.049 140.248 138.135 140.308C138.225 140.368 138.331 140.397 138.438 140.391H138.952C139.006 140.394 139.061 140.388 139.114 140.373Z" fill="url(#paint12_linear_2902_55055)"/>
<path d="M148.627 144.787H141.336C142.189 143.961 142.915 143.014 143.492 141.976L144.205 141.509C144.68 142.246 144.77 142.246 144.94 142.246C145.11 142.246 145.193 142.246 145.698 141.513L146.629 142.178C146.64 142.187 146.653 142.194 146.666 142.198C147.214 143.137 147.872 144.006 148.627 144.787Z" fill="url(#paint13_linear_2902_55055)"/>
<path d="M145.097 138.14V139.158H144.852V138.237L145.097 138.14Z" fill="url(#paint14_linear_2902_55055)"/>
<path d="M145.922 140.776L145.822 140.701C145.782 140.673 145.736 140.653 145.688 140.642C145.64 140.631 145.59 140.63 145.542 140.639C145.492 140.648 145.444 140.668 145.402 140.697C145.36 140.726 145.325 140.764 145.299 140.807C145.184 140.975 145.056 141.164 144.945 141.318C144.844 141.167 144.723 140.982 144.621 140.818C144.568 140.733 144.484 140.673 144.387 140.651C144.339 140.641 144.29 140.64 144.242 140.65C144.194 140.659 144.149 140.678 144.108 140.705H144.094C144.2 140.442 144.301 140.172 144.385 139.891H145.55C145.623 140.091 145.745 140.392 145.922 140.776Z" fill="url(#paint15_linear_2902_55055)"/>
<path d="M144.132 138.372V139.158C144.053 139.157 143.976 139.183 143.913 139.23C143.849 139.278 143.803 139.345 143.781 139.421C143.15 141.515 141.923 143.379 140.25 144.787V133.025C141 133.62 141.842 134.088 142.743 134.413C142.235 134.446 141.76 134.675 141.418 135.052C141.076 135.429 140.894 135.925 140.91 136.433C140.927 136.942 141.14 137.424 141.506 137.778C141.872 138.132 142.361 138.331 142.869 138.331C143.081 138.331 143.292 138.296 143.493 138.227C143.696 138.312 143.912 138.361 144.132 138.372Z" fill="url(#paint16_linear_2902_55055)"/>
<path d="M147.53 136.002C147.518 135.883 147.488 135.766 147.443 135.655C147.406 135.566 147.359 135.482 147.304 135.404C146.083 135.301 144.875 135.078 143.698 134.739H143.666L143.571 134.971C143.571 134.996 143.552 135.019 143.544 135.044C143.518 135.128 143.498 135.214 143.486 135.302L143.471 135.433L143.376 135.52C143.253 135.637 143.155 135.779 143.089 135.935L142.412 135.657C142.487 135.472 142.593 135.301 142.723 135.15C142.42 135.181 142.139 135.323 141.935 135.549C141.73 135.775 141.617 136.069 141.617 136.374C141.617 136.678 141.73 136.972 141.935 137.198C142.139 137.424 142.42 137.566 142.723 137.597L143.261 137.171C143.37 137.312 143.508 137.427 143.666 137.508C143.841 137.599 144.035 137.646 144.231 137.647C144.293 137.648 144.355 137.644 144.416 137.632L144.913 137.425C145.003 137.368 145.083 137.298 145.152 137.217L145.359 136.98L145.625 137.157C145.828 137.291 146.066 137.363 146.309 137.364C146.41 137.365 146.51 137.352 146.608 137.325C146.639 137.319 146.67 137.309 146.699 137.296C146.731 137.286 146.761 137.273 146.791 137.259C146.936 137.197 147.068 137.107 147.177 136.993C147.189 136.98 147.202 136.97 147.212 136.957C147.265 136.9 147.311 136.837 147.351 136.77C147.38 136.723 147.405 136.674 147.426 136.623C147.494 136.468 147.53 136.301 147.53 136.133C147.532 136.089 147.532 136.045 147.53 136.002ZM142.354 137.024C142.333 136.957 142.316 136.889 142.302 136.816C142.294 136.787 142.289 136.758 142.285 136.729L143.006 136.61C143.006 136.629 143.006 136.648 143.016 136.669C143.026 136.716 143.038 136.762 143.054 136.808L142.354 137.024Z" fill="url(#paint17_linear_2902_55055)"/>
<path d="M148.883 136.272C148.883 136.59 148.76 136.895 148.54 137.124C148.32 137.353 148.02 137.489 147.703 137.502C147.743 137.46 147.778 137.419 147.815 137.375C147.85 137.336 147.881 137.293 147.909 137.249C147.925 137.228 147.94 137.207 147.952 137.184C147.981 137.143 148.006 137.099 148.027 137.053C148.088 136.942 148.137 136.825 148.175 136.704C148.191 136.642 148.208 136.58 148.22 136.515C148.233 136.451 148.239 136.389 148.247 136.326C148.256 136.264 148.258 136.198 148.258 136.131C148.258 136.065 148.258 136.038 148.258 135.992C148.256 135.945 148.251 135.899 148.243 135.853C148.243 135.807 148.229 135.763 148.218 135.716C148.208 135.668 148.198 135.628 148.185 135.585C148.173 135.541 148.162 135.512 148.152 135.475L148.601 135.497C148.783 135.715 148.883 135.989 148.883 136.272Z" fill="url(#paint18_linear_2902_55055)"/>
<path d="M149.804 135.514V144.787H149.692C147.199 142.535 146.179 139.448 146.16 139.411C146.137 139.34 146.093 139.278 146.034 139.233C145.974 139.188 145.903 139.162 145.828 139.159V138.034C145.984 138.073 146.143 138.092 146.304 138.092C146.466 138.093 146.628 138.072 146.786 138.031C147.144 138.209 147.548 138.272 147.944 138.213C148.34 138.154 148.708 137.975 148.999 137.701C149.29 137.427 149.49 137.07 149.573 136.679C149.656 136.287 149.617 135.88 149.461 135.512L149.804 135.514Z" fill="url(#paint19_linear_2902_55055)"/>
</g>
<path fill-rule="evenodd" clip-rule="evenodd" d="M146.985 261.809C146.962 261.62 146.87 261.447 146.727 261.321C146.585 261.195 146.401 261.125 146.21 261.125H133.71C133.52 261.125 133.336 261.195 133.194 261.321C133.051 261.447 132.959 261.62 132.935 261.809L131.714 271.572C131.643 272.139 131.367 272.66 130.939 273.038C130.511 273.416 129.96 273.625 129.389 273.625H124.935C124.141 273.625 123.367 273.875 122.723 274.339C122.079 274.803 121.597 275.459 121.346 276.212C121.207 276.631 121.168 277.076 121.235 277.512C121.301 277.949 121.47 278.363 121.728 278.72C121.986 279.078 122.326 279.369 122.718 279.57C123.111 279.771 123.546 279.875 123.987 279.875H155.932C156.373 279.875 156.808 279.771 157.201 279.57C157.594 279.369 157.933 279.078 158.191 278.72C158.449 278.363 158.618 277.949 158.685 277.512C158.751 277.076 158.713 276.631 158.573 276.212C158.322 275.459 157.841 274.803 157.196 274.339C156.552 273.875 155.778 273.625 154.984 273.625H150.531C149.96 273.625 149.408 273.416 148.98 273.038C148.552 272.66 148.277 272.139 148.206 271.572L146.985 261.809Z" fill="#0C955B"/>
<path d="M139.961 212.844C150.068 212.844 157.504 213.097 162.579 213.371L164.61 213.489C168.378 213.723 171.373 216.404 171.882 220.086L171.923 220.445C172.282 224.308 172.615 229.978 172.615 237.688C172.615 245.397 172.282 251.066 171.923 254.931V254.932C171.575 258.675 168.689 261.465 164.973 261.855L164.61 261.886C159.574 262.199 151.512 262.531 139.961 262.531C129.854 262.531 122.417 262.278 117.343 262.004L115.312 261.886C111.544 261.652 108.55 258.972 108.039 255.289L107.997 254.93C107.639 251.066 107.305 245.396 107.305 237.688C107.305 229.979 107.639 224.309 107.999 220.444V220.443C108.346 216.7 111.233 213.91 114.949 213.52L115.312 213.489C120.346 213.176 128.41 212.844 139.961 212.844Z" fill="white" fill-opacity="0.36" stroke="#0C955B" stroke-width="5"/>
<path d="M118.406 238.573V224.406H134.775M161.375 236.802V250.969H145.006" stroke="#0C955B" stroke-width="5" stroke-linecap="round" stroke-linejoin="round"/>
<defs>
<filter id="filter0_d_2902_55055" x="102" y="93" width="75.3672" height="95" filterUnits="userSpaceOnUse" color-interpolation-filters="sRGB">
<feFlood flood-opacity="0" result="BackgroundImageFix"/>
<feColorMatrix in="SourceAlpha" type="matrix" values="0 0 0 0 0 0 0 0 0 0 0 0 0 0 0 0 0 0 127 0" result="hardAlpha"/>
<feOffset/>
<feGaussianBlur stdDeviation="5"/>
<feComposite in2="hardAlpha" operator="out"/>
<feColorMatrix type="matrix" values="0 0 0 0 0 0 0 0 0 0 0 0 0 0 0 0 0 0 0.1 0"/>
<feBlend mode="normal" in2="BackgroundImageFix" result="effect1_dropShadow_2902_55055"/>
<feBlend mode="normal" in="SourceGraphic" in2="effect1_dropShadow_2902_55055" result="shape"/>
</filter>
<linearGradient id="paint0_linear_2902_55055" x1="139.382" y1="29.53" x2="139.382" y2="363.022" gradientUnits="userSpaceOnUse">
<stop offset="0.0437592" stop-color="#149660"/>
<stop offset="0.413462" stop-color="#58B58E" stop-opacity="0.708578"/>
<stop offset="0.625" stop-color="white" stop-opacity="0"/>
</linearGradient>
<linearGradient id="paint1_linear_2902_55055" x1="139.644" y1="164.056" x2="139.644" y2="104.192" gradientUnits="userSpaceOnUse">
<stop stop-color="#008851"/>
<stop offset="0.34" stop-color="#038B53"/>
<stop offset="0.6" stop-color="#0C955B"/>
<stop offset="0.83" stop-color="#1CA567"/>
<stop offset="1" stop-color="#2BB673"/>
</linearGradient>
<linearGradient id="paint2_linear_2902_55055" x1="139.608" y1="178" x2="139.608" y2="167.269" gradientUnits="userSpaceOnUse">
<stop stop-color="#008851"/>
<stop offset="0.34" stop-color="#038B53"/>
<stop offset="0.6" stop-color="#0C955B"/>
<stop offset="0.83" stop-color="#1CA567"/>
<stop offset="1" stop-color="#2BB673"/>
</linearGradient>
<linearGradient id="paint3_linear_2902_55055" x1="138.6" y1="150.165" x2="138.6" y2="147.656" gradientUnits="userSpaceOnUse">
<stop stop-color="#F9ED32"/>
<stop offset="0.3" stop-color="#F9EA33"/>
<stop offset="0.53" stop-color="#F9E035"/>
<stop offset="0.75" stop-color="#FACF39"/>
<stop offset="0.94" stop-color="#FBB83E"/>
<stop offset="1" stop-color="#FBB040"/>
</linearGradient>
<linearGradient id="paint4_linear_2902_55055" x1="135.41" y1="152.13" x2="135.41" y2="149.903" gradientUnits="userSpaceOnUse">
<stop stop-color="#F9ED32"/>
<stop offset="0.3" stop-color="#F9EA33"/>
<stop offset="0.53" stop-color="#F9E035"/>
<stop offset="0.75" stop-color="#FACF39"/>
<stop offset="0.94" stop-color="#FBB83E"/>
<stop offset="1" stop-color="#FBB040"/>
</linearGradient>
<linearGradient id="paint5_linear_2902_55055" x1="135.419" y1="154.848" x2="135.419" y2="147.187" gradientUnits="userSpaceOnUse">
<stop stop-color="#F9ED32"/>
<stop offset="0.3" stop-color="#F9EA33"/>
<stop offset="0.53" stop-color="#F9E035"/>
<stop offset="0.75" stop-color="#FACF39"/>
<stop offset="0.94" stop-color="#FBB83E"/>
<stop offset="1" stop-color="#FBB040"/>
</linearGradient>
<linearGradient id="paint6_linear_2902_55055" x1="134.335" y1="153.962" x2="134.335" y2="145.896" gradientUnits="userSpaceOnUse">
<stop stop-color="#F9ED32"/>
<stop offset="0.3" stop-color="#F9EA33"/>
<stop offset="0.53" stop-color="#F9E035"/>
<stop offset="0.75" stop-color="#FACF39"/>
<stop offset="0.94" stop-color="#FBB83E"/>
<stop offset="1" stop-color="#FBB040"/>
</linearGradient>
<linearGradient id="paint7_linear_2902_55055" x1="136.532" y1="158.33" x2="136.532" y2="151.976" gradientUnits="userSpaceOnUse">
<stop stop-color="#F9ED32"/>
<stop offset="0.3" stop-color="#F9EA33"/>
<stop offset="0.53" stop-color="#F9E035"/>
<stop offset="0.75" stop-color="#FACF39"/>
<stop offset="0.94" stop-color="#FBB83E"/>
<stop offset="1" stop-color="#FBB040"/>
</linearGradient>
<linearGradient id="paint8_linear_2902_55055" x1="145.018" y1="158.331" x2="145.018" y2="145.896" gradientUnits="userSpaceOnUse">
<stop stop-color="#6D6E71"/>
<stop offset="0.23" stop-color="#6B7074"/>
<stop offset="0.42" stop-color="#65757E"/>
<stop offset="0.58" stop-color="#5B7E8F"/>
<stop offset="0.74" stop-color="#4C8AA6"/>
<stop offset="0.88" stop-color="#399AC4"/>
<stop offset="1" stop-color="#27AAE1"/>
</linearGradient>
<linearGradient id="paint9_linear_2902_55055" x1="130.961" y1="144.786" x2="130.961" y2="140.372" gradientUnits="userSpaceOnUse">
<stop stop-color="#8B5E3C"/>
<stop offset="0.4" stop-color="#8E613E"/>
<stop offset="0.71" stop-color="#986B45"/>
<stop offset="0.99" stop-color="#A87B50"/>
<stop offset="1" stop-color="#A97C50"/>
</linearGradient>
<linearGradient id="paint10_linear_2902_55055" x1="131.964" y1="142.492" x2="131.964" y2="135.057" gradientUnits="userSpaceOnUse">
<stop stop-color="#8B5E3C"/>
<stop offset="0.4" stop-color="#8E613E"/>
<stop offset="0.71" stop-color="#986B45"/>
<stop offset="0.99" stop-color="#A87B50"/>
<stop offset="1" stop-color="#A97C50"/>
</linearGradient>
<linearGradient id="paint11_linear_2902_55055" x1="137.155" y1="139.976" x2="137.155" y2="133.021" gradientUnits="userSpaceOnUse">
<stop stop-color="#8B5E3C"/>
<stop offset="0.4" stop-color="#8E613E"/>
<stop offset="0.71" stop-color="#986B45"/>
<stop offset="0.99" stop-color="#A87B50"/>
<stop offset="1" stop-color="#A97C50"/>
</linearGradient>
<linearGradient id="paint12_linear_2902_55055" x1="136.17" y1="144.787" x2="136.17" y2="137.585" gradientUnits="userSpaceOnUse">
<stop stop-color="#8B5E3C"/>
<stop offset="0.4" stop-color="#8E613E"/>
<stop offset="0.71" stop-color="#986B45"/>
<stop offset="0.99" stop-color="#A87B50"/>
<stop offset="1" stop-color="#A97C50"/>
</linearGradient>
<linearGradient id="paint13_linear_2902_55055" x1="144.984" y1="144.787" x2="144.984" y2="141.509" gradientUnits="userSpaceOnUse">
<stop stop-color="#BE1E2D"/>
<stop offset="0.69" stop-color="#E0462A"/>
<stop offset="1" stop-color="#F15A29"/>
</linearGradient>
<linearGradient id="paint14_linear_2902_55055" x1="144.974" y1="139.158" x2="144.974" y2="138.14" gradientUnits="userSpaceOnUse">
<stop stop-color="#BE1E2D"/>
<stop offset="0.69" stop-color="#E0462A"/>
<stop offset="1" stop-color="#F15A29"/>
</linearGradient>
<linearGradient id="paint15_linear_2902_55055" x1="145.006" y1="141.308" x2="145.006" y2="139.891" gradientUnits="userSpaceOnUse">
<stop stop-color="#BE1E2D"/>
<stop offset="0.69" stop-color="#E0462A"/>
<stop offset="1" stop-color="#F15A29"/>
</linearGradient>
<linearGradient id="paint16_linear_2902_55055" x1="142.186" y1="144.787" x2="142.186" y2="133.025" gradientUnits="userSpaceOnUse">
<stop stop-color="#BE1E2D"/>
<stop offset="0.69" stop-color="#E0462A"/>
<stop offset="1" stop-color="#F15A29"/>
</linearGradient>
<linearGradient id="paint17_linear_2902_55055" x1="144.576" y1="137.643" x2="144.576" y2="134.728" gradientUnits="userSpaceOnUse">
<stop stop-color="#BE1E2D"/>
<stop offset="0.69" stop-color="#E0462A"/>
<stop offset="1" stop-color="#F15A29"/>
</linearGradient>
<linearGradient id="paint18_linear_2902_55055" x1="148.293" y1="137.502" x2="148.293" y2="135.468" gradientUnits="userSpaceOnUse">
<stop stop-color="#BE1E2D"/>
<stop offset="0.69" stop-color="#E0462A"/>
<stop offset="1" stop-color="#F15A29"/>
</linearGradient>
<linearGradient id="paint19_linear_2902_55055" x1="147.82" y1="144.787" x2="147.82" y2="135.512" gradientUnits="userSpaceOnUse">
<stop stop-color="#BE1E2D"/>
<stop offset="0.69" stop-color="#E0462A"/>
<stop offset="1" stop-color="#F15A29"/>
</linearGradient>
</defs>
</svg>
