<svg width="20" height="17" viewBox="0 0 20 17" fill="none" xmlns="http://www.w3.org/2000/svg">
<path d="M18.5 15.9277C18.5 14.3019 16.9228 12.9196 14.7222 12.4063M12.8333 15.9277C12.8333 13.8651 10.2966 12.1944 7.16667 12.1944C4.03678 12.1944 1.5 13.8651 1.5 15.9277M12.8333 9.3944C13.8353 9.3944 14.7962 9.00107 15.5046 8.30093C16.2131 7.6008 16.6111 6.65121 16.6111 5.66107C16.6111 4.67093 16.2131 3.72134 15.5046 3.0212C14.7962 2.32107 13.8353 1.92773 12.8333 1.92773M7.16667 9.3944C6.16474 9.3944 5.20384 9.00107 4.49537 8.30093C3.7869 7.6008 3.38889 6.65121 3.38889 5.66107C3.38889 4.67093 3.7869 3.72134 4.49537 3.0212C5.20384 2.32107 6.16474 1.92773 7.16667 1.92773C8.1686 1.92773 9.12949 2.32107 9.83796 3.0212C10.5464 3.72134 10.9444 4.67093 10.9444 5.66107C10.9444 6.65121 10.5464 7.6008 9.83796 8.30093C9.12949 9.00107 8.1686 9.3944 7.16667 9.3944Z" stroke="black" stroke-width="1.5" stroke-linecap="round" stroke-linejoin="round"/>
</svg>
