<svg width="16" height="14" viewBox="0 0 16 14" fill="none" xmlns="http://www.w3.org/2000/svg">
<path d="M15 12.4268C15 11.1493 13.7011 10.0632 11.8889 9.65989M10.3333 12.4268C10.3333 10.8061 8.24422 9.49342 5.66667 9.49342C3.08911 9.49342 1 10.8061 1 12.4268M10.3333 7.29342C11.1585 7.29342 11.9498 6.98438 12.5332 6.43427C13.1167 5.88416 13.4444 5.13806 13.4444 4.36009C13.4444 3.58212 13.1167 2.83602 12.5332 2.28591C11.9498 1.7358 11.1585 1.42676 10.3333 1.42676M5.66667 7.29342C4.84155 7.29342 4.05023 6.98438 3.46678 6.43427C2.88333 5.88416 2.55556 5.13806 2.55556 4.36009C2.55556 3.58212 2.88333 2.83602 3.46678 2.28591C4.05023 1.7358 4.84155 1.42676 5.66667 1.42676C6.49178 1.42676 7.28311 1.7358 7.86655 2.28591C8.45 2.83602 8.77778 3.58212 8.77778 4.36009C8.77778 5.13806 8.45 5.88416 7.86655 6.43427C7.28311 6.98438 6.49178 7.29342 5.66667 7.29342Z" stroke="black" stroke-width="1.5" stroke-linecap="round" stroke-linejoin="round"/>
</svg>
