<svg width="48" height="58" viewBox="0 0 48 58" fill="none" xmlns="http://www.w3.org/2000/svg">
<g filter="url(#filter0_d_876_46357)">
<path d="M37.9026 23.4754C37.9044 25.6879 37.3441 27.8646 36.2744 29.8014C36.1946 29.9463 36.1123 30.0895 36.0276 30.231C33.269 28.1878 30.5588 25.9976 28.2026 23.7675C28.5244 23.0605 28.6636 22.2841 28.6075 21.5094C28.5514 20.7346 28.3017 19.9864 27.8814 19.3332C27.461 18.68 26.8835 18.1428 26.2016 17.7707C25.5198 17.3987 24.7554 17.2037 23.9787 17.2037C23.2019 17.2037 22.4376 17.3987 21.7557 17.7707C21.0739 18.1428 20.4963 18.68 20.076 19.3332C19.6556 19.9864 19.406 20.7346 19.3498 21.5094C19.2937 22.2841 19.4329 23.0605 19.7547 23.7675C17.3985 25.9976 14.6873 28.1889 11.9245 30.2321C10.699 28.1915 10.0526 25.8557 10.0547 23.4754C10.0547 16.0328 16.2892 10 23.9787 10C31.6681 10 37.9026 16.0328 37.9026 23.4754Z" fill="url(#paint0_linear_876_46357)"/>
<path d="M36.0102 30.2266C36.8968 30.9073 37.5701 31.4199 37.5701 31.4199C37.6809 31.4962 37.7751 31.5941 37.8468 31.7079C37.9186 31.8216 37.9665 31.9488 37.9877 32.0816C38.0088 32.2145 38.0027 32.3502 37.9698 32.4806C37.9369 32.611 37.8778 32.7334 37.7961 32.8403C37.7145 32.9472 37.6119 33.0364 37.4948 33.1024C37.3776 33.1685 37.2482 33.21 37.1145 33.2245C36.9808 33.239 36.8455 33.2262 36.7169 33.1869C36.5883 33.1475 36.469 33.0825 36.3663 32.9956L34.8767 31.859C34.8462 31.8958 26.3679 40.6829 26.3679 40.6829C26.0586 40.9986 25.6888 41.2487 25.2807 41.4183C24.8689 41.5896 24.4272 41.6777 23.9812 41.6777C23.5352 41.6777 23.0936 41.5896 22.6818 41.4183C22.2747 41.249 21.9063 40.9988 21.5988 40.6829C21.5988 40.6829 13.1687 31.964 13.09 31.859L11.6288 32.9777C11.5259 33.0636 11.4068 33.1277 11.2786 33.1662C11.1503 33.2048 11.0156 33.217 10.8825 33.2022C10.7494 33.1873 10.6207 33.1456 10.5041 33.0797C10.3875 33.0138 10.2855 32.925 10.2041 32.8186C10.1228 32.7122 10.0638 32.5905 10.0307 32.4607C9.99766 32.3309 9.9912 32.1958 10.0117 32.0634C10.0323 31.9311 10.0794 31.8043 10.1502 31.6906C10.221 31.5769 10.3141 31.4788 10.4239 31.402C10.4239 31.402 10.9859 30.9577 11.883 30.2287" fill="white"/>
<path d="M28.6216 21.8398C28.6216 22.505 28.4783 23.1625 28.2014 23.7674C26.8116 22.4701 25.5103 21.081 24.3062 19.6096H23.6476C22.533 20.9931 21.096 22.2547 19.6379 23.6329C19.3701 23.0468 19.3365 22.5268 19.3365 21.8398C19.3272 21.2244 19.4404 20.6133 19.6695 20.042C19.8986 19.4708 20.239 18.9508 20.671 18.5123C21.1029 18.0739 21.6177 17.7257 22.1854 17.488C22.7532 17.2503 23.3625 17.1279 23.978 17.1279C24.5934 17.1279 25.2028 17.2503 25.7705 17.488C26.3382 17.7257 26.853 18.0739 27.285 18.5123C27.7169 18.9508 28.0573 19.4708 28.2864 20.042C28.5155 20.6133 28.6287 21.2244 28.6195 21.8398H28.6216Z" fill="#6D6E71"/>
<path d="M28.2057 23.7675C27.836 24.5775 27.2413 25.264 26.4924 25.7454C25.7435 26.2269 24.872 26.4828 23.9818 26.4828C23.0915 26.4828 22.22 26.2269 21.4711 25.7454C20.7222 25.264 20.1275 24.5775 19.7578 23.7675C21.1473 22.4705 22.4482 21.0819 23.6519 19.6108H24.3105C25.5146 21.0819 26.8159 22.4705 28.2057 23.7675Z" fill="#6D6E71"/>
<path d="M37.7571 32.811C37.5974 33.0202 37.3612 33.1574 37.1004 33.1924C36.8396 33.2275 36.5755 33.1576 36.3663 32.998L34.8767 31.8614C34.8462 31.8982 26.3679 40.6854 26.3679 40.6854C26.0586 41.0011 25.6888 41.2512 25.2807 41.4207C24.8689 41.592 24.4272 41.6802 23.9812 41.6802C23.5352 41.6802 23.0936 41.592 22.6818 41.4207C22.2747 41.2514 21.9063 41.0013 21.5988 40.6854C21.5988 40.6854 13.1687 31.9665 13.09 31.8614L11.6288 32.9781C11.5259 33.0639 11.4068 33.128 11.2786 33.1666C11.1503 33.2051 11.0156 33.2173 10.8825 33.2025C10.7494 33.1876 10.6207 33.146 10.5041 33.08C10.3875 33.0141 10.2855 32.9253 10.2041 32.8189C10.1228 32.7125 10.0638 32.5908 10.0307 32.461C9.99766 32.3312 9.9912 32.1961 10.0117 32.0638C10.0323 31.9314 10.0794 31.8046 10.1502 31.6909C10.221 31.5773 10.3141 31.4791 10.4239 31.4024C10.4239 31.4024 20.7342 23.2308 23.6493 19.6108H24.3079C25.767 21.4219 27.5822 23.2528 29.5928 25.0439V23.3736C29.5927 23.3127 29.6046 23.2524 29.6278 23.1962C29.6511 23.1399 29.6852 23.0888 29.7282 23.0457C29.7713 23.0027 29.8224 22.9686 29.8787 22.9453C29.9349 22.9221 29.9952 22.9102 30.0561 22.9104H31.7106C31.7715 22.9102 31.8318 22.9221 31.888 22.9453C31.9443 22.9686 31.9954 23.0027 32.0385 23.0457C32.0815 23.0888 32.1156 23.1399 32.1389 23.1962C32.1621 23.2524 32.174 23.3127 32.1738 23.3736V27.2415C33.426 28.2646 37.5701 31.4223 37.5701 31.4223C37.7784 31.5822 37.915 31.8179 37.95 32.0781C37.9851 32.3383 37.9157 32.6018 37.7571 32.811Z" fill="white"/>
<path d="M23.8561 19.41C23.8597 19.3448 23.871 19.2803 23.8897 19.2178C23.9083 19.1595 23.9311 19.1026 23.958 19.0476C24.0137 18.9394 24.0821 18.8382 24.1618 18.7461C24.3224 18.5692 24.5095 18.4182 24.7164 18.2986C25.1189 18.0731 25.552 17.9072 26.0022 17.8059C26.4396 17.7075 26.8838 17.6418 27.331 17.6095C27.4361 17.6001 27.5516 17.5948 27.6619 17.5906C27.7722 17.5864 27.8836 17.5811 27.9928 17.5801H28.2407H28.309C28.4004 17.5801 28.4897 17.5717 28.5758 17.5643C28.8748 17.548 29.1625 17.4447 29.4036 17.2671C29.4652 17.2152 29.5235 17.1594 29.578 17.1C29.619 17.058 29.6641 17.0286 29.7261 16.9666C29.9097 16.7552 30.0468 16.5075 30.1284 16.2397C30.2598 15.8951 30.369 15.4855 30.5297 15.0127V15.0022C30.535 14.9865 30.5434 14.9719 30.5544 14.9594C30.5654 14.9469 30.5787 14.9367 30.5937 14.9294C30.6086 14.922 30.6249 14.9178 30.6415 14.9167C30.6581 14.9157 30.6747 14.918 30.6904 14.9235C30.7041 14.9257 30.7173 14.9303 30.7293 14.9371C30.9374 15.0872 31.1189 15.2711 31.2661 15.4813C31.4139 15.6878 31.5326 15.9137 31.6191 16.1525C31.6637 16.2768 31.6988 16.4042 31.7241 16.5338C31.7534 16.6721 31.7699 16.8127 31.7735 16.954C31.7852 17.2661 31.7364 17.5776 31.6296 17.8711C31.5079 18.2003 31.307 18.4943 31.0445 18.7272C30.788 18.9516 30.4826 19.1128 30.1526 19.1978C29.8695 19.2697 29.5779 19.3019 29.286 19.2934C29.0308 19.2881 28.7762 19.2681 28.5233 19.2335C28.4025 19.2167 28.2828 19.1989 28.1672 19.1758L28.08 19.159L27.9981 19.139L27.8521 19.1085C27.7544 19.0865 27.6577 19.0676 27.56 19.0487C27.4624 19.0297 27.3657 19.0108 27.268 18.994C26.8842 18.9231 26.4966 18.874 26.1072 18.847C25.7268 18.815 25.3439 18.834 24.9685 18.9037C24.7875 18.9378 24.6126 18.9987 24.4496 19.0844C24.3691 19.1288 24.2941 19.1824 24.2259 19.244C24.193 19.2743 24.1624 19.3069 24.1345 19.3417C24.1084 19.3747 24.0852 19.4098 24.0651 19.4468L24.0462 19.4762C24.0317 19.499 24.009 19.5152 23.9828 19.5217C23.9566 19.5282 23.9289 19.5243 23.9055 19.5109C23.8885 19.5004 23.8749 19.4854 23.8662 19.4676C23.8574 19.4497 23.8539 19.4298 23.8561 19.41Z" fill="white"/>
<path d="M23.9595 47.9272C25.458 47.9272 26.6728 46.7124 26.6728 45.2139C26.6728 43.7153 25.458 42.5005 23.9595 42.5005C22.4609 42.5005 21.2461 43.7153 21.2461 45.2139C21.2461 46.7124 22.4609 47.9272 23.9595 47.9272Z" fill="url(#paint1_linear_876_46357)"/>
<path d="M23.7148 32.585V33.8539C23.6472 33.5879 23.5217 33.34 23.3472 33.1281L23.1875 32.9295L23.7148 32.585Z" fill="url(#paint2_linear_876_46357)"/>
<path d="M22.4034 34.2808C22.4037 34.3921 22.3708 34.501 22.3091 34.5937C22.2474 34.6865 22.1596 34.7588 22.0568 34.8016C21.954 34.8444 21.8408 34.8558 21.7316 34.8342C21.6223 34.8127 21.5219 34.7593 21.443 34.6807C21.3641 34.6021 21.3103 34.5019 21.2884 34.3927C21.2664 34.2835 21.2774 34.1703 21.3198 34.0673C21.3622 33.9643 21.4342 33.8763 21.5267 33.8142C21.6192 33.7522 21.728 33.719 21.8393 33.7188C21.9885 33.719 22.1315 33.7783 22.2372 33.8835C22.3429 33.9888 22.4026 34.1316 22.4034 34.2808Z" fill="url(#paint3_linear_876_46357)"/>
<path d="M23.3654 33.9951C23.3135 33.7638 23.208 33.5479 23.0576 33.3648L22.7645 33.0055C22.7479 32.9852 22.7358 32.9616 22.7289 32.9362C22.722 32.9109 22.7206 32.8844 22.7246 32.8585C22.729 32.8326 22.7386 32.8078 22.7528 32.7858C22.7671 32.7637 22.7857 32.7449 22.8076 32.7303L23.3612 32.3679C20.7476 32.1462 20.3537 33.7745 20.3379 33.8459C20.3385 33.8504 20.3385 33.855 20.3379 33.8596C20.3379 33.8596 20.3379 33.8732 20.3379 33.8743C20.2782 34.1002 20.2731 34.3372 20.3232 34.5655C20.3758 34.7965 20.4812 35.0122 20.631 35.1958L20.9241 35.5561C20.9408 35.5766 20.953 35.6003 20.9599 35.6259C20.9667 35.6514 20.9682 35.6781 20.964 35.7042C20.9544 35.7562 20.9246 35.8023 20.881 35.8323L20.5375 36.0571C20.5869 36.1118 20.6426 36.1622 20.692 36.2179C22.9757 36.263 23.3328 34.784 23.3475 34.7136C23.347 34.7087 23.347 34.7038 23.3475 34.6989C23.3475 34.6989 23.3475 34.6852 23.3475 34.6842C23.4086 34.4592 23.4147 34.2229 23.3654 33.9951ZM21.8391 35.2199C21.6536 35.2197 21.4724 35.1645 21.3183 35.0614C21.1642 34.9582 21.0441 34.8117 20.9733 34.6403C20.9024 34.469 20.8839 34.2804 20.9201 34.0986C20.9564 33.9167 21.0457 33.7497 21.1768 33.6185C21.3079 33.4874 21.475 33.3981 21.6569 33.3619C21.8387 33.3256 22.0272 33.3441 22.1986 33.415C22.37 33.4858 22.5165 33.6059 22.6197 33.76C22.7228 33.9141 22.778 34.0954 22.7782 34.2808C22.7765 34.5294 22.6771 34.7673 22.5013 34.943C22.3255 35.1188 22.0876 35.2183 21.8391 35.2199Z" fill="url(#paint4_linear_876_46357)"/>
<path d="M23.7156 31.6919V32.0259C20.4896 31.6058 19.9927 33.6762 19.9685 33.7792C19.892 34.063 19.8855 34.3611 19.9496 34.6479C20.0145 34.9364 20.1458 35.2059 20.3331 35.4347L20.4927 35.6312L20.2826 35.7688C19.4422 34.7443 18.9492 33.4792 18.875 32.1562V31.6919H23.7156Z" fill="url(#paint5_linear_876_46357)"/>
<path d="M23.716 34.7671V37.9805C22.7554 37.697 21.8621 37.2221 21.0898 36.5844C23.3158 36.4552 23.6971 34.8721 23.716 34.7828V34.7671Z" fill="url(#paint6_linear_876_46357)"/>
<path d="M24.2773 31.6919V33.8895C24.4287 33.8029 24.5973 33.7509 24.7711 33.7372C24.7188 33.34 24.8224 32.938 25.0599 32.6155C25.2975 32.2929 25.6507 32.0749 26.0455 32.007C26.4403 31.9391 26.846 32.0266 27.1777 32.2512C27.5094 32.4758 27.7413 32.8201 27.8248 33.2119C27.957 33.2723 28.0807 33.35 28.1924 33.443C28.2382 33.4829 28.2663 33.5392 28.2709 33.5997C28.2755 33.6601 28.2562 33.72 28.217 33.7663C28.1778 33.8127 28.122 33.8417 28.0616 33.8473C28.0012 33.8528 27.9411 33.8344 27.8941 33.796C27.792 33.7089 27.6744 33.6419 27.5475 33.5985C27.5444 33.5975 27.5411 33.5975 27.538 33.5985C27.4246 33.5604 27.3057 33.5409 27.1861 33.5407C27.0623 33.5408 26.9394 33.5618 26.8226 33.6027C26.7647 33.6228 26.7011 33.619 26.646 33.5922C26.5908 33.5654 26.5486 33.5178 26.5285 33.4598C26.5084 33.4019 26.5122 33.3383 26.539 33.2832C26.5658 33.228 26.6134 33.1858 26.6714 33.1657C26.8369 33.1083 27.0109 33.0792 27.1861 33.0796C27.2238 33.0764 27.2618 33.0764 27.2995 33.0796C27.1902 32.8295 26.9907 32.6298 26.7408 32.5201C26.4909 32.4105 26.2088 32.3989 25.9508 32.4878C25.6927 32.5766 25.4776 32.7593 25.3481 32.9996C25.2187 33.2399 25.1844 33.5201 25.2522 33.7844C25.3595 33.8182 25.4614 33.8674 25.5547 33.9304C25.58 33.9471 25.6017 33.9685 25.6186 33.9935C25.6356 34.0185 25.6475 34.0467 25.6536 34.0763C25.6597 34.1059 25.6599 34.1364 25.6542 34.1661C25.6485 34.1957 25.637 34.224 25.6204 34.2493C25.6037 34.2745 25.5823 34.2962 25.5573 34.3132C25.5323 34.3302 25.5042 34.342 25.4746 34.3481C25.445 34.3542 25.4144 34.3544 25.3848 34.3487C25.3551 34.343 25.3268 34.3315 25.3016 34.3149C25.2191 34.26 25.1267 34.2218 25.0295 34.2025H25.0232C24.9754 34.1937 24.9268 34.1891 24.8782 34.1889C24.7626 34.1888 24.6486 34.2151 24.5446 34.2657C24.4407 34.3163 24.3497 34.3899 24.2784 34.4809V35.3927C24.3126 35.4356 24.3513 35.4747 24.3939 35.5093C24.4182 35.5287 24.4384 35.5529 24.4531 35.5802C24.4679 35.6076 24.477 35.6376 24.48 35.6686C24.4829 35.6996 24.4796 35.7308 24.4702 35.7605C24.4609 35.7901 24.4457 35.8176 24.4255 35.8413C24.3889 35.8868 24.3363 35.9165 24.2784 35.9242V37.9832C25.2269 37.7028 26.1103 37.2368 26.8773 36.6123C26.8326 36.6102 26.7895 36.595 26.7532 36.5688C26.717 36.5425 26.6892 36.5063 26.6733 36.4645C26.6573 36.4227 26.6539 36.3771 26.6635 36.3334C26.673 36.2897 26.6951 36.2497 26.727 36.2184L27.1882 35.7572C27.2318 35.7144 27.2905 35.6904 27.3515 35.6904C27.4126 35.6904 27.4713 35.7144 27.5149 35.7572C27.5587 35.8017 27.5833 35.8617 27.5832 35.9242C27.6273 35.8738 27.6704 35.8192 27.7113 35.7719C27.6938 35.7238 27.693 35.6713 27.7091 35.6227C27.7251 35.5741 27.7569 35.5323 27.7996 35.504C27.9454 35.4063 28.0649 35.2742 28.1477 35.1195C28.2305 34.9647 28.274 34.7919 28.2744 34.6164C28.2747 34.5553 28.2991 34.4968 28.3424 34.4537C28.3858 34.4106 28.4444 34.3863 28.5055 34.3863C28.5259 34.3856 28.5462 34.3889 28.5654 34.3958C28.8919 33.6937 29.0792 32.9349 29.1169 32.1615V31.6919H24.2773ZM24.812 36.8718C24.7767 36.8716 24.7423 36.8607 24.7134 36.8404C24.6844 36.8202 24.6624 36.7916 24.6502 36.7584C24.6379 36.7253 24.6361 36.6892 24.645 36.655C24.6538 36.6209 24.6729 36.5902 24.6996 36.5671L25.3299 36.0198H24.8047C24.7693 36.02 24.7348 36.0093 24.7057 35.9892C24.6767 35.9691 24.6545 35.9405 24.6422 35.9074C24.63 35.8742 24.6282 35.8381 24.6371 35.8039C24.6461 35.7697 24.6653 35.7391 24.6923 35.7162L25.6808 34.8633C25.6978 34.8473 25.718 34.835 25.7399 34.8271C25.7619 34.8191 25.7852 34.8157 25.8085 34.817C25.8318 34.8183 25.8546 34.8242 25.8756 34.8346C25.8965 34.8449 25.9152 34.8593 25.9304 34.877C25.9456 34.8947 25.9571 34.9153 25.9642 34.9376C25.9712 34.9598 25.9737 34.9833 25.9715 35.0065C25.9693 35.0298 25.9624 35.0523 25.9512 35.0728C25.9401 35.0933 25.9249 35.1114 25.9066 35.1259L25.27 35.6742H25.7953C25.8307 35.6738 25.8654 35.6844 25.8946 35.7044C25.9239 35.7244 25.9462 35.753 25.9586 35.7862C25.971 35.8194 25.9729 35.8556 25.9639 35.8899C25.955 35.9242 25.9357 35.9549 25.9087 35.9778L24.9202 36.8297C24.89 36.8557 24.8518 36.8705 24.812 36.8718ZM26.5905 36.3119L26.1293 36.773C26.1082 36.7947 26.0828 36.812 26.0549 36.8237C26.0269 36.8355 25.9968 36.8414 25.9665 36.8413C25.9361 36.8416 25.906 36.8357 25.878 36.824C25.85 36.8122 25.8247 36.7949 25.8037 36.773C25.782 36.7517 25.7648 36.7263 25.753 36.6982C25.7412 36.6702 25.7352 36.6401 25.7352 36.6097C25.7352 36.5793 25.7412 36.5491 25.753 36.5211C25.7648 36.4931 25.782 36.4676 25.8037 36.4463L26.2648 35.9852C26.309 35.9464 26.3663 35.9259 26.425 35.9279C26.4837 35.9298 26.5395 35.9541 26.581 35.9957C26.6224 36.0373 26.6465 36.0932 26.6483 36.1519C26.65 36.2106 26.6294 36.2678 26.5905 36.3119ZM27.0527 35.2729L26.5905 35.7352C26.5471 35.778 26.4886 35.8021 26.4277 35.8024C26.3819 35.8024 26.3372 35.7888 26.2992 35.7633C26.2612 35.7378 26.2316 35.7017 26.2141 35.6594C26.1967 35.6171 26.1922 35.5705 26.2012 35.5257C26.2103 35.4808 26.2324 35.4397 26.2648 35.4074L26.726 34.9462C26.7697 34.905 26.8278 34.8823 26.888 34.8832C26.9481 34.884 27.0056 34.9083 27.0481 34.9509C27.0906 34.9934 27.1149 35.0508 27.1157 35.111C27.1166 35.1711 27.094 35.2292 27.0527 35.2729Z" fill="url(#paint7_linear_876_46357)"/>
<path d="M20.3012 31.1312H18.8789V28.8989C18.9065 28.9068 18.9353 28.91 18.964 28.9084H19.6121L20.276 31.065C20.2812 31.0882 20.2897 31.1104 20.3012 31.1312Z" fill="url(#paint8_linear_876_46357)"/>
<path d="M21.322 26.2109C21.3144 26.2273 21.3091 26.2446 21.3062 26.2624L20.4806 29.9706L20.052 28.5745C20.0373 28.5205 20.0042 28.4733 19.9585 28.4411C19.9139 28.4088 19.8602 28.3915 19.8051 28.3917H18.9647C18.9369 28.3915 18.9093 28.3957 18.8828 28.4043V26.442C19.7017 26.4494 20.5191 26.372 21.322 26.2109Z" fill="url(#paint9_linear_876_46357)"/>
<path d="M23.7162 25.1816V28.4045C23.6901 28.3958 23.6627 28.3915 23.6353 28.3919H23.5575L23.2329 27.5221C23.2126 27.4724 23.1788 27.4295 23.1352 27.3981C23.0915 27.3679 23.0392 27.3525 22.9861 27.354C22.9314 27.3533 22.878 27.3702 22.8338 27.4023C22.7878 27.4341 22.7544 27.4809 22.7392 27.5347L22.3758 28.6986L21.8106 26.2563C21.8001 26.2009 21.7703 26.151 21.7266 26.1155C22.8033 25.8329 23.4168 25.4327 23.7162 25.1816Z" fill="url(#paint10_linear_876_46357)"/>
<path d="M23.7153 28.899V31.1312H20.7383C20.7538 31.1056 20.7648 31.0776 20.7708 31.0482L21.5555 27.4893L22.0808 29.7499C22.0921 29.8046 22.1217 29.8539 22.1648 29.8896C22.2086 29.927 22.2638 29.9484 22.3213 29.9505C22.3787 29.9563 22.4361 29.9402 22.4821 29.9053C22.529 29.8725 22.5635 29.8248 22.5798 29.7698L22.9999 28.4116L23.1228 28.7435C23.1428 28.7931 23.1768 28.8358 23.2205 28.8664C23.2658 28.8967 23.3196 28.9114 23.3739 28.9084H23.6334C23.661 28.9099 23.6887 28.9067 23.7153 28.899Z" fill="url(#paint11_linear_876_46357)"/>
<path d="M28.5231 31.1313H24.8359C25.2672 30.7136 25.6346 30.2347 25.9263 29.71L26.2866 29.4736C26.5272 29.8465 26.5724 29.8465 26.6585 29.8465C26.7446 29.8465 26.7867 29.8465 27.0419 29.4757L27.5125 29.8119C27.5182 29.8164 27.5246 29.8199 27.5314 29.8224C27.8084 30.2968 28.1414 30.7362 28.5231 31.1313Z" fill="url(#paint12_linear_876_46357)"/>
<path d="M26.7411 27.77V28.2847H26.6172V27.8194L26.7411 27.77Z" fill="url(#paint13_linear_876_46357)"/>
<path d="M27.1549 29.1028L27.1045 29.065C27.0841 29.0506 27.061 29.0404 27.0367 29.035C27.0124 29.0296 26.9872 29.0291 26.9626 29.0334C26.9373 29.0382 26.9133 29.0482 26.8921 29.0628C26.8709 29.0775 26.8531 29.0965 26.8397 29.1185C26.782 29.2036 26.7168 29.2992 26.6612 29.3769C26.6097 29.3003 26.5488 29.2068 26.4973 29.1238C26.4704 29.0811 26.4277 29.0509 26.3786 29.0397C26.3545 29.0345 26.3296 29.0341 26.3054 29.0388C26.2812 29.0435 26.2582 29.0531 26.2378 29.0671H26.2305C26.284 28.9336 26.3355 28.7971 26.3775 28.6553H26.9668C27.0036 28.7561 27.0656 28.9084 27.1549 29.1028Z" fill="url(#paint14_linear_876_46357)"/>
<path d="M26.2446 27.8875V28.2846C26.2045 28.2844 26.1654 28.2974 26.1334 28.3215C26.1013 28.3455 26.078 28.3794 26.067 28.418C25.7479 29.4767 25.1274 30.4195 24.2812 31.1314V25.1836C24.6607 25.4841 25.0864 25.7211 25.5418 25.8853C25.285 25.9021 25.0447 26.018 24.8718 26.2086C24.6989 26.3993 24.6069 26.6497 24.6152 26.9069C24.6235 27.1641 24.7315 27.4081 24.9164 27.5871C25.1013 27.7662 25.3485 27.8664 25.6059 27.8665C25.7131 27.8665 25.8196 27.8487 25.921 27.814C26.0238 27.8571 26.1333 27.882 26.2446 27.8875Z" fill="url(#paint15_linear_876_46357)"/>
<path d="M27.9667 26.689C27.9605 26.6287 27.9456 26.5696 27.9226 26.5136C27.9037 26.4688 27.8801 26.4262 27.8522 26.3864C27.2348 26.3346 26.6239 26.222 26.0286 26.0503H26.0128L25.9645 26.1679C25.9645 26.1806 25.9551 26.1921 25.9508 26.2047C25.9376 26.2473 25.9278 26.2908 25.9214 26.335L25.9141 26.4012L25.8658 26.4453C25.8036 26.5047 25.7543 26.5762 25.7208 26.6554L25.3783 26.5146C25.4166 26.4212 25.4698 26.3346 25.5359 26.2583C25.3826 26.2738 25.2405 26.3457 25.1371 26.46C25.0338 26.5743 24.9766 26.7229 24.9766 26.877C24.9766 27.0311 25.0338 27.1797 25.1371 27.2941C25.2405 27.4084 25.3826 27.4802 25.5359 27.4957L25.808 27.2804C25.8628 27.3516 25.9328 27.4098 26.0128 27.4506C26.1011 27.4965 26.1991 27.5206 26.2986 27.521C26.3299 27.5217 26.3612 27.5192 26.392 27.5136L26.6431 27.4086C26.6885 27.3799 26.7292 27.3445 26.7639 27.3035L26.869 27.1838L27.0034 27.273C27.1061 27.3407 27.2261 27.3772 27.349 27.3781C27.4001 27.3786 27.4511 27.3719 27.5003 27.3581C27.5162 27.355 27.5317 27.35 27.5465 27.3434C27.5624 27.3384 27.5779 27.3321 27.5927 27.3245C27.6664 27.2936 27.733 27.2479 27.7881 27.1901C27.7944 27.1838 27.8007 27.1785 27.806 27.1722C27.8325 27.1431 27.8561 27.1114 27.8764 27.0777C27.8908 27.0538 27.9035 27.0289 27.9142 27.0031C27.9485 26.9249 27.9664 26.8405 27.9667 26.7552C27.9679 26.7331 27.9679 26.711 27.9667 26.689ZM25.3489 27.2058C25.3384 27.1722 25.33 27.1375 25.3227 27.1008C25.3189 27.0863 25.316 27.0715 25.3143 27.0566L25.6788 26.9968C25.6788 27.0062 25.6788 27.0157 25.684 27.0262C25.689 27.05 25.6953 27.0735 25.7029 27.0966L25.3489 27.2058Z" fill="url(#paint16_linear_876_46357)"/>
<path d="M28.6553 26.8253C28.6551 26.9858 28.593 27.1402 28.4818 27.256C28.3707 27.3719 28.219 27.4404 28.0586 27.4471C28.0786 27.4261 28.0964 27.4051 28.1153 27.3831C28.1327 27.3629 28.1485 27.3415 28.1626 27.319C28.1709 27.3088 28.1783 27.2979 28.1846 27.2864C28.1989 27.2653 28.2115 27.2432 28.2225 27.2202C28.2532 27.1641 28.2782 27.1049 28.297 27.0438C28.3055 27.0122 28.3139 26.9807 28.3202 26.9482C28.3265 26.9156 28.3296 26.8841 28.3338 26.8526C28.338 26.8211 28.3391 26.7874 28.3391 26.7538C28.3391 26.7202 28.3391 26.7066 28.3391 26.6834C28.3382 26.6598 28.3357 26.6363 28.3317 26.6131C28.3317 26.5899 28.3244 26.5679 28.3191 26.5437C28.3139 26.5196 28.3086 26.4996 28.3023 26.4775C28.296 26.4555 28.2907 26.4408 28.2855 26.4219L28.5124 26.4334C28.6045 26.5432 28.6551 26.6819 28.6553 26.8253Z" fill="url(#paint17_linear_876_46357)"/>
<path d="M29.1161 26.442V31.1313H29.0593C27.7988 29.9926 27.283 28.4316 27.2735 28.4127C27.2618 28.3769 27.2394 28.3455 27.2094 28.3228C27.1794 28.3001 27.1431 28.2871 27.1055 28.2855V27.7162C27.1841 27.736 27.2649 27.7459 27.346 27.7456C27.4282 27.7461 27.5102 27.7358 27.5897 27.7151C27.7711 27.8047 27.9754 27.8367 28.1755 27.8068C28.3755 27.7769 28.5616 27.6866 28.7088 27.548C28.856 27.4093 28.9574 27.229 28.9992 27.0311C29.041 26.8332 29.0213 26.6273 28.9427 26.4409L29.1161 26.442Z" fill="url(#paint18_linear_876_46357)"/>
</g>
<defs>
<filter id="filter0_d_876_46357" x="0" y="0" width="48" height="57.9272" filterUnits="userSpaceOnUse" color-interpolation-filters="sRGB">
<feFlood flood-opacity="0" result="BackgroundImageFix"/>
<feColorMatrix in="SourceAlpha" type="matrix" values="0 0 0 0 0 0 0 0 0 0 0 0 0 0 0 0 0 0 127 0" result="hardAlpha"/>
<feOffset/>
<feGaussianBlur stdDeviation="5"/>
<feComposite in2="hardAlpha" operator="out"/>
<feColorMatrix type="matrix" values="0 0 0 0 0 0 0 0 0 0 0 0 0 0 0 0 0 0 0.15 0"/>
<feBlend mode="normal" in2="BackgroundImageFix" result="effect1_dropShadow_876_46357"/>
<feBlend mode="normal" in="SourceGraphic" in2="effect1_dropShadow_876_46357" result="shape"/>
</filter>
<linearGradient id="paint0_linear_876_46357" x1="23.9787" y1="40.8754" x2="23.9787" y2="10.603" gradientUnits="userSpaceOnUse">
<stop stop-color="#008851"/>
<stop offset="0.34" stop-color="#038B53"/>
<stop offset="0.6" stop-color="#0C955B"/>
<stop offset="0.83" stop-color="#1CA567"/>
<stop offset="1" stop-color="#2BB673"/>
</linearGradient>
<linearGradient id="paint1_linear_876_46357" x1="23.9595" y1="47.9272" x2="23.9595" y2="42.5005" gradientUnits="userSpaceOnUse">
<stop stop-color="#008851"/>
<stop offset="0.34" stop-color="#038B53"/>
<stop offset="0.6" stop-color="#0C955B"/>
<stop offset="0.83" stop-color="#1CA567"/>
<stop offset="1" stop-color="#2BB673"/>
</linearGradient>
<linearGradient id="paint2_linear_876_46357" x1="23.4512" y1="33.8508" x2="23.4512" y2="32.5818" gradientUnits="userSpaceOnUse">
<stop stop-color="#F9ED32"/>
<stop offset="0.3" stop-color="#F9EA33"/>
<stop offset="0.53" stop-color="#F9E035"/>
<stop offset="0.75" stop-color="#FACF39"/>
<stop offset="0.94" stop-color="#FBB83E"/>
<stop offset="1" stop-color="#FBB040"/>
</linearGradient>
<linearGradient id="paint3_linear_876_46357" x1="21.8404" y1="34.8449" x2="21.8404" y2="33.7188" gradientUnits="userSpaceOnUse">
<stop stop-color="#F9ED32"/>
<stop offset="0.3" stop-color="#F9EA33"/>
<stop offset="0.53" stop-color="#F9E035"/>
<stop offset="0.75" stop-color="#FACF39"/>
<stop offset="0.94" stop-color="#FBB83E"/>
<stop offset="1" stop-color="#FBB040"/>
</linearGradient>
<linearGradient id="paint4_linear_876_46357" x1="21.8401" y1="36.2189" x2="21.8401" y2="32.3448" gradientUnits="userSpaceOnUse">
<stop stop-color="#F9ED32"/>
<stop offset="0.3" stop-color="#F9EA33"/>
<stop offset="0.53" stop-color="#F9E035"/>
<stop offset="0.75" stop-color="#FACF39"/>
<stop offset="0.94" stop-color="#FBB83E"/>
<stop offset="1" stop-color="#FBB040"/>
</linearGradient>
<linearGradient id="paint5_linear_876_46357" x1="21.2963" y1="35.7709" x2="21.2963" y2="31.6919" gradientUnits="userSpaceOnUse">
<stop stop-color="#F9ED32"/>
<stop offset="0.3" stop-color="#F9EA33"/>
<stop offset="0.53" stop-color="#F9E035"/>
<stop offset="0.75" stop-color="#FACF39"/>
<stop offset="0.94" stop-color="#FBB83E"/>
<stop offset="1" stop-color="#FBB040"/>
</linearGradient>
<linearGradient id="paint6_linear_876_46357" x1="22.4019" y1="37.9805" x2="22.4019" y2="34.7671" gradientUnits="userSpaceOnUse">
<stop stop-color="#F9ED32"/>
<stop offset="0.3" stop-color="#F9EA33"/>
<stop offset="0.53" stop-color="#F9E035"/>
<stop offset="0.75" stop-color="#FACF39"/>
<stop offset="0.94" stop-color="#FBB83E"/>
<stop offset="1" stop-color="#FBB040"/>
</linearGradient>
<linearGradient id="paint7_linear_876_46357" x1="26.6966" y1="37.98" x2="26.6966" y2="31.6919" gradientUnits="userSpaceOnUse">
<stop stop-color="#6D6E71"/>
<stop offset="0.23" stop-color="#6B7074"/>
<stop offset="0.42" stop-color="#65757E"/>
<stop offset="0.58" stop-color="#5B7E8F"/>
<stop offset="0.74" stop-color="#4C8AA6"/>
<stop offset="0.88" stop-color="#399AC4"/>
<stop offset="1" stop-color="#27AAE1"/>
</linearGradient>
<linearGradient id="paint8_linear_876_46357" x1="19.5901" y1="31.1312" x2="19.5901" y2="28.8989" gradientUnits="userSpaceOnUse">
<stop stop-color="#8B5E3C"/>
<stop offset="0.4" stop-color="#8E613E"/>
<stop offset="0.71" stop-color="#986B45"/>
<stop offset="0.99" stop-color="#A87B50"/>
<stop offset="1" stop-color="#A97C50"/>
</linearGradient>
<linearGradient id="paint9_linear_876_46357" x1="20.1014" y1="29.9706" x2="20.1014" y2="26.2109" gradientUnits="userSpaceOnUse">
<stop stop-color="#8B5E3C"/>
<stop offset="0.4" stop-color="#8E613E"/>
<stop offset="0.71" stop-color="#986B45"/>
<stop offset="0.99" stop-color="#A87B50"/>
<stop offset="1" stop-color="#A97C50"/>
</linearGradient>
<linearGradient id="paint10_linear_876_46357" x1="22.7214" y1="28.6986" x2="22.7214" y2="25.1816" gradientUnits="userSpaceOnUse">
<stop stop-color="#8B5E3C"/>
<stop offset="0.4" stop-color="#8E613E"/>
<stop offset="0.71" stop-color="#986B45"/>
<stop offset="0.99" stop-color="#A87B50"/>
<stop offset="1" stop-color="#A97C50"/>
</linearGradient>
<linearGradient id="paint11_linear_876_46357" x1="22.2268" y1="31.1312" x2="22.2268" y2="27.4893" gradientUnits="userSpaceOnUse">
<stop stop-color="#8B5E3C"/>
<stop offset="0.4" stop-color="#8E613E"/>
<stop offset="0.71" stop-color="#986B45"/>
<stop offset="0.99" stop-color="#A87B50"/>
<stop offset="1" stop-color="#A97C50"/>
</linearGradient>
<linearGradient id="paint12_linear_876_46357" x1="26.6806" y1="31.1313" x2="26.6806" y2="29.4736" gradientUnits="userSpaceOnUse">
<stop stop-color="#BE1E2D"/>
<stop offset="0.69" stop-color="#E0462A"/>
<stop offset="1" stop-color="#F15A29"/>
</linearGradient>
<linearGradient id="paint13_linear_876_46357" x1="26.6792" y1="28.2847" x2="26.6792" y2="27.77" gradientUnits="userSpaceOnUse">
<stop stop-color="#BE1E2D"/>
<stop offset="0.69" stop-color="#E0462A"/>
<stop offset="1" stop-color="#F15A29"/>
</linearGradient>
<linearGradient id="paint14_linear_876_46357" x1="26.6916" y1="29.3717" x2="26.6916" y2="28.6553" gradientUnits="userSpaceOnUse">
<stop stop-color="#BE1E2D"/>
<stop offset="0.69" stop-color="#E0462A"/>
<stop offset="1" stop-color="#F15A29"/>
</linearGradient>
<linearGradient id="paint15_linear_876_46357" x1="25.2603" y1="31.1314" x2="25.2603" y2="25.1836" gradientUnits="userSpaceOnUse">
<stop stop-color="#BE1E2D"/>
<stop offset="0.69" stop-color="#E0462A"/>
<stop offset="1" stop-color="#F15A29"/>
</linearGradient>
<linearGradient id="paint16_linear_876_46357" x1="26.4729" y1="27.5188" x2="26.4729" y2="26.045" gradientUnits="userSpaceOnUse">
<stop stop-color="#BE1E2D"/>
<stop offset="0.69" stop-color="#E0462A"/>
<stop offset="1" stop-color="#F15A29"/>
</linearGradient>
<linearGradient id="paint17_linear_876_46357" x1="28.3569" y1="27.4471" x2="28.3569" y2="26.4187" gradientUnits="userSpaceOnUse">
<stop stop-color="#BE1E2D"/>
<stop offset="0.69" stop-color="#E0462A"/>
<stop offset="1" stop-color="#F15A29"/>
</linearGradient>
<linearGradient id="paint18_linear_876_46357" x1="28.1129" y1="31.1313" x2="28.1129" y2="26.4409" gradientUnits="userSpaceOnUse">
<stop stop-color="#BE1E2D"/>
<stop offset="0.69" stop-color="#E0462A"/>
<stop offset="1" stop-color="#F15A29"/>
</linearGradient>
</defs>
</svg>
